<svg width="30" height="30" viewBox="0 0 30 30" fill="none" xmlns="http://www.w3.org/2000/svg">
<g clip-path="url(#clip0)">
<path d="M25.6066 4.39339C22.7735 1.56029 19.0068 0 15.0002 0H14.9998C10.9932 0 7.22649 1.56029 4.39339 4.39339C1.56029 7.22649 0 10.9934 0 15C0 19.0066 1.56029 22.7735 4.39339 25.6066C7.22649 28.4397 10.9934 30 15 30C19.0066 30 22.7735 28.4397 25.6066 25.6066C28.4397 22.7735 30 19.0066 30 15C30 10.9934 28.4397 7.22649 25.6066 4.39339ZM26.5865 21.4053H22.1963C22.7845 19.6818 23.1388 17.8157 23.2214 15.8789H28.2122C28.0811 17.8729 27.5066 19.7475 26.5865 21.4053ZM15 28.1122C13.1291 26.9989 11.5775 25.2734 10.4615 23.1631H19.5385C18.4225 25.2734 16.8709 26.9989 15 28.1122ZM9.66705 21.4053C9.02069 19.7095 8.62885 17.837 8.53821 15.8789H21.4618C21.3712 17.837 20.9791 19.7095 20.3327 21.4053H9.66705ZM1.7878 15.8789H6.77856C6.86119 17.8157 7.2155 19.6818 7.80373 21.4053H3.41354C2.49344 19.7475 1.91895 17.8729 1.7878 15.8789ZM3.41354 8.59474H7.80373C7.2155 10.3182 6.86119 12.1843 6.77856 14.1211H1.7878C1.91895 12.1271 2.49344 10.2525 3.41354 8.59474ZM15 1.88782C16.8709 3.0011 18.4225 4.72664 19.5385 6.83693H10.4615C11.5775 4.72664 13.1291 3.0011 15 1.88782ZM20.3329 8.59474C20.9793 10.2905 21.3712 12.163 21.4618 14.1211H8.53821C8.62885 12.163 9.02092 10.2905 9.66728 8.59474H20.3329ZM28.2122 14.1211H23.2214C23.1388 12.1843 22.7845 10.3182 22.1963 8.59474H26.5865C27.5066 10.2525 28.0811 12.1271 28.2122 14.1211ZM21.4925 6.83693C20.657 5.03242 19.5456 3.43781 18.2112 2.1524C21.1075 2.87659 23.6295 4.55635 25.4201 6.83693H21.4925ZM11.7888 2.1524C10.4544 3.43781 9.34296 5.03242 8.50754 6.83693H4.57993C6.37047 4.55635 8.89252 2.87659 11.7888 2.1524ZM8.50754 23.1631C9.34296 24.9676 10.4544 26.5622 11.7888 27.8476C8.89252 27.1234 6.37047 25.4436 4.57993 23.1631H8.50754ZM18.2112 27.8476C19.5456 26.5622 20.657 24.9673 21.4925 23.1631H25.4201C23.6295 25.4436 21.1075 27.1234 18.2112 27.8476Z" fill="#757575"/>
</g>
<defs>
<clipPath id="clip0">
<rect width="30" height="30" fill="white"/>
</clipPath>
</defs>
</svg>
