<svg width="40" height="40" viewBox="0 0 40 40" fill="none" xmlns="http://www.w3.org/2000/svg">
<g opacity="0.5">
<path d="M36.5666 21.4416L34.7899 15.9749L34.7916 15.9833V15.9749L31.2666 5.12661C31.1738 4.84767 30.9949 4.60538 30.7555 4.43466C30.5162 4.26393 30.2289 4.17358 29.9349 4.17661C29.6424 4.17519 29.3571 4.26746 29.1208 4.4399C28.8844 4.61235 28.7095 4.85591 28.6216 5.13494L25.2766 15.4316H14.7233L11.3733 5.13328C11.2854 4.85424 11.1105 4.61068 10.8741 4.43823C10.6378 4.26579 10.3525 4.17352 10.0599 4.17494H10.0499C9.75617 4.17508 9.4699 4.26773 9.23176 4.43975C8.99362 4.61177 8.81571 4.85443 8.72327 5.13328L5.21161 15.9733L5.20827 15.9833L5.20994 15.9749L3.42994 21.4416C3.29841 21.8425 3.29759 22.2748 3.42759 22.6762C3.55759 23.0776 3.8117 23.4273 4.15327 23.6749L19.5349 34.8499L19.5416 34.8549L19.5616 34.8683L19.5433 34.8549L19.5466 34.8566L19.5483 34.8583C19.5724 34.8752 19.5974 34.8908 19.6233 34.9049L19.6333 34.9116L19.6399 34.9149L19.6449 34.9166H19.6483L19.6583 34.9216L19.6983 34.9383L19.7366 34.9549H19.7383L19.7449 34.9583L19.7533 34.9616H19.7566L19.7683 34.9649H19.7716C19.7899 34.9716 19.8099 34.9749 19.8283 34.9799L19.8499 34.9849H19.8533L19.8616 34.9883L19.8733 34.9899H19.8849C19.9213 34.9959 19.9581 34.9992 19.9949 34.9999H19.9966C20.034 34.9999 20.0713 34.9971 20.1083 34.9916H20.1199L20.1316 34.9883L20.1383 34.9866H20.1416L20.1649 34.9799L20.2216 34.9666H20.2249L20.2366 34.9616H20.2399L20.2483 34.9583L20.2533 34.9566H20.2549L20.2966 34.9383L20.3349 34.9216L20.3433 34.9183H20.3466L20.3516 34.9149L20.3583 34.9116L20.3699 34.9049C20.3952 34.8913 20.4197 34.8763 20.4433 34.8599L20.4499 34.8549L20.4583 34.8499L35.8416 23.6733C36.1828 23.4257 36.4367 23.0763 36.5667 22.6752C36.6967 22.2742 36.6961 21.8423 36.5649 21.4416H36.5666ZM29.9449 6.14161L32.9616 15.4316H26.9283L29.9449 6.14161ZM32.4333 17.0016L31.2033 18.5799L22.1233 30.2133L26.4183 17.0016H32.4333ZM19.2499 34.4583L19.2516 34.4649L19.2499 34.4583ZM17.8716 30.2149L7.56661 16.9999H13.5833L17.8716 30.2149ZM10.0499 6.14328L13.0716 15.4316H7.03827L10.0499 6.14328ZM5.07661 22.4033C5.00422 22.3504 4.9504 22.276 4.92286 22.1907C4.89532 22.1053 4.89547 22.0135 4.92327 21.9283L6.24661 17.8649L15.9499 30.3049L5.07661 22.4033ZM19.5083 34.8299L19.4983 34.8216L19.4799 34.8049L19.4466 34.7749L19.4499 34.7766L19.4533 34.7799C19.4754 34.8019 19.4988 34.8224 19.5233 34.8416L19.5283 34.8449L19.5083 34.8299ZM19.9966 31.6733L17.4733 23.8983L15.2349 17.0016H24.7666L19.9966 31.6733ZM20.5133 34.8066L20.4966 34.8199L20.4933 34.8216L20.4849 34.8299L20.4649 34.8449L20.4683 34.8416C20.4934 34.8231 20.5173 34.8031 20.5399 34.7816L20.5416 34.7783L20.5449 34.7749L20.5133 34.8066ZM34.9183 22.4033L24.0466 30.3033L33.7533 17.8649L35.0716 21.9266C35.0998 22.0121 35.1001 22.1043 35.0726 22.1899C35.045 22.2756 34.991 22.3503 34.9183 22.4033Z" fill="white"/>
</g>
</svg>
