<svg width="30" height="30" viewBox="0 0 30 30" fill="none" xmlns="http://www.w3.org/2000/svg">
<g clip-path="url(#clip0)">
<path d="M29.9112 16.2912L28.336 11.4608C28.336 11.4158 28.321 11.3708 28.306 11.3258L25.1408 1.60507C24.9758 1.12503 24.4957 0.75 23.9407 0.75C23.4007 0.75 22.9206 1.12503 22.7556 1.62007L19.7554 10.8758H10.2596L7.2444 1.62007C7.07938 1.12503 6.59934 0.75 6.0593 0.75C5.50426 0.75 5.02422 1.12503 4.85921 1.62007L1.69396 11.3558V11.3708L0.0888364 16.2912C-0.151182 17.0413 0.103838 17.8513 0.748888 18.3014L14.58 28.3672C14.835 28.5472 15.165 28.5472 15.42 28.3522L29.2511 18.3014C29.8962 17.8513 30.1512 17.0413 29.9112 16.2912ZM9.22455 12.3009L13.0799 24.1668L3.82413 12.3009H9.22455ZM16.9202 24.1818L20.6254 12.7959L20.7755 12.3009H26.1909L17.8052 23.0417L16.9202 24.1818ZM23.9557 2.53514L26.6709 10.8758H21.2405L23.9557 2.53514ZM19.2903 12.3009L16.6051 20.5665L15 25.4869L10.7097 12.3009H19.2903ZM6.0443 2.53514L8.75951 10.8758H3.34409L6.0443 2.53514ZM1.57395 17.1613C1.43894 17.0563 1.37894 16.8763 1.43894 16.7262L2.62403 13.081L11.3547 24.2568L1.57395 17.1613ZM28.4261 17.1613L18.6603 24.2568L18.6903 24.2118L27.376 13.081L28.5611 16.7262C28.6211 16.8763 28.5611 17.0563 28.4261 17.1613Z" fill="#757575"/>
</g>
<defs>
<clipPath id="clip0">
<rect width="30" height="30" fill="white"/>
</clipPath>
</defs>
</svg>
