<svg width="40" height="40" viewBox="0 0 40 40" fill="none" xmlns="http://www.w3.org/2000/svg">
<g opacity="0.5">
<path d="M35.6173 5.45602C35.3594 5.23325 35.0456 5.08499 34.7097 5.02718C34.3739 4.96936 34.0286 5.00418 33.711 5.1279L4.8829 16.456C4.50825 16.6051 4.19164 16.8709 3.98003 17.2142C3.76842 17.5574 3.67308 17.9597 3.70816 18.3613C3.74324 18.763 3.90687 19.1427 4.17478 19.444C4.44268 19.7453 4.80059 19.9523 5.1954 20.0341L13.0235 21.6123V31.2685C13.0188 31.6405 13.1267 32.0052 13.333 32.3148C13.5394 32.6243 13.8346 32.8642 14.1798 33.0029C14.4134 33.0959 14.6627 33.1436 14.9141 33.1435C15.1582 33.1438 15.3999 33.0956 15.6252 33.0017C15.8505 32.9078 16.055 32.7701 16.2266 32.5966L20.6954 28.1279L27.2891 33.9248C27.627 34.2307 28.0678 34.398 28.5235 34.3935C28.72 34.393 28.9151 34.3614 29.1016 34.2998C29.4088 34.199 29.6851 34.0211 29.9039 33.7831C30.1228 33.5451 30.2769 33.255 30.3516 32.9404L36.2266 7.28415C36.3036 6.95287 36.2873 6.60678 36.1798 6.28414C36.0723 5.9615 35.8776 5.6749 35.6173 5.45602ZM4.9454 18.2529C4.92681 18.1175 4.95553 17.9798 5.02669 17.8631C5.09786 17.7464 5.20712 17.6578 5.33602 17.6123L31.7735 7.23727L13.5079 20.4248L5.4454 18.8154C5.31111 18.7912 5.18884 18.7225 5.09818 18.6206C5.00753 18.5186 4.95372 18.3891 4.9454 18.2529ZM15.336 31.706C15.2511 31.7943 15.1416 31.8549 15.0218 31.8799C14.9019 31.905 14.7773 31.8934 14.6641 31.8466C14.5489 31.8 14.4502 31.7201 14.3807 31.6172C14.3111 31.5142 14.2738 31.3928 14.2735 31.2685V22.4716L19.7579 27.2998L15.336 31.706ZM35.0079 7.01852L29.1329 32.6591C29.1095 32.7655 29.058 32.8636 28.9838 32.9433C28.9096 33.023 28.8154 33.0813 28.711 33.1123C28.6102 33.1485 28.5013 33.156 28.3964 33.1339C28.2916 33.1119 28.1949 33.0611 28.1173 32.9873L14.6485 21.1435L34.9141 6.5029C34.9652 6.57738 35 6.66182 35.0162 6.75069C35.0323 6.83955 35.0295 6.93083 35.0079 7.01852Z" fill="white"/>
</g>
</svg>
