<svg width="163" height="50" viewBox="0 0 163 50" fill="none" xmlns="http://www.w3.org/2000/svg">
<g clip-path="url(#clip0)">
<path d="M59.8686 42.4403C59.8958 42.0728 59.9741 41.7391 60.1034 41.4396C60.2395 41.1333 60.4132 40.8746 60.6242 40.6636C60.8352 40.4525 61.0803 40.2891 61.3595 40.1734C61.6386 40.0577 61.9381 39.9998 62.2581 39.9998C62.6257 39.9998 62.9592 40.0713 63.2588 40.2142C63.5652 40.3504 63.8238 40.5444 64.0349 40.7963C64.2527 41.0414 64.4195 41.3341 64.5352 41.6745C64.6578 42.0149 64.719 42.3825 64.719 42.7774C64.719 43.1994 64.6544 43.5806 64.525 43.9211C64.4025 44.2546 64.2289 44.5406 64.0043 44.7788C63.7864 45.0171 63.5277 45.2009 63.2281 45.3303C62.9286 45.4596 62.6018 45.5243 62.2478 45.5243C61.9075 45.5243 61.5977 45.4664 61.3186 45.3506C61.0395 45.2281 60.7944 45.0614 60.5834 44.8503C60.3791 44.6325 60.2157 44.3703 60.0932 44.064C59.9706 43.7577 59.8958 43.4207 59.8686 43.0531H58.9903V45.4222H58.3164V40.1019H58.9903V42.4403H59.8686ZM60.5425 42.7671C60.5425 43.4479 60.6991 43.9755 61.0123 44.35C61.3254 44.7243 61.7407 44.9116 62.2581 44.9116C62.5304 44.9116 62.7755 44.8605 62.9933 44.7584C63.218 44.6563 63.4052 44.5134 63.5549 44.3295C63.7047 44.1389 63.8204 43.9143 63.9021 43.6556C63.9838 43.39 64.0247 43.0939 64.0247 42.7671C64.0247 42.0931 63.8613 41.569 63.5345 41.1945C63.2078 40.8133 62.7823 40.6227 62.2581 40.6227C61.9926 40.6227 61.7543 40.6737 61.5432 40.7759C61.3322 40.878 61.1518 41.0243 61.002 41.215C60.8523 41.3988 60.7366 41.6234 60.6549 41.8889C60.58 42.1545 60.5425 42.4472 60.5425 42.7671ZM68.5297 40.1019C68.7203 40.1019 68.8938 40.1359 69.0504 40.204C69.2138 40.2721 69.3534 40.3674 69.4692 40.4899C69.5917 40.6057 69.6836 40.7419 69.7449 40.8985C69.8129 41.055 69.847 41.2252 69.847 41.409C69.847 41.5315 69.8299 41.654 69.7959 41.7766C69.7687 41.8991 69.7244 42.0183 69.6632 42.134C69.6019 42.2429 69.5236 42.3451 69.4283 42.4403C69.333 42.5289 69.2207 42.6003 69.0913 42.6548C69.3909 42.7365 69.6257 42.8931 69.7959 43.1245C69.9661 43.356 70.0512 43.6351 70.0512 43.9619C70.0512 44.1797 70.0104 44.3772 69.9287 44.5542C69.8538 44.7312 69.7449 44.8843 69.6019 45.0137C69.4658 45.1431 69.3024 45.2451 69.1117 45.32C68.9211 45.3881 68.7135 45.4222 68.4888 45.4222H65.9257V40.1019H68.5297ZM68.254 42.4506C68.533 42.4506 68.7543 42.362 68.9177 42.1851C69.0811 42.008 69.1628 41.7834 69.1628 41.5111C69.1628 41.2728 69.0947 41.0652 68.9586 40.8882C68.8224 40.7112 68.6113 40.6227 68.3255 40.6227H66.5997V42.4506H68.254ZM68.4173 44.9014C68.5603 44.9014 68.6896 44.8742 68.8054 44.8197C68.9279 44.7652 69.03 44.6937 69.1117 44.6052C69.1934 44.5099 69.2581 44.4044 69.3058 44.2886C69.3534 44.1729 69.3772 44.0504 69.3772 43.9211C69.3772 43.676 69.2921 43.4581 69.1219 43.2675C68.9586 43.0769 68.7305 42.9816 68.4378 42.9816H66.5997V44.9014H68.4173ZM73.5378 45.5243C73.1498 45.5243 72.7924 45.4528 72.4656 45.3098C72.1456 45.16 71.8666 44.9592 71.6283 44.7074C71.39 44.4486 71.2027 44.1525 71.0666 43.8189C70.9372 43.4854 70.8726 43.128 70.8726 42.7468C70.8726 42.3723 70.9372 42.0217 71.0666 41.6949C71.2027 41.3614 71.3866 41.072 71.618 40.8269C71.8563 40.5751 72.1389 40.3776 72.4656 40.2347C72.7924 40.0849 73.1464 40.01 73.5276 40.01C73.9156 40.01 74.2696 40.0849 74.5896 40.2347C74.9164 40.3776 75.1955 40.5751 75.427 40.8269C75.6584 41.0788 75.8389 41.3682 75.9682 41.6949C76.0975 42.0217 76.1622 42.3689 76.1622 42.7365C76.1622 42.791 76.1622 42.8454 76.1622 42.8999C76.1622 42.9543 76.1588 42.9918 76.152 43.0122H71.5976C71.618 43.2982 71.6827 43.5637 71.7916 43.8088C71.9074 44.047 72.0538 44.2546 72.2307 44.4317C72.4078 44.6086 72.6086 44.7482 72.8332 44.8503C73.0647 44.9456 73.3098 44.9933 73.5684 44.9933C73.7387 44.9933 73.9089 44.9694 74.079 44.9218C74.2492 44.8741 74.4058 44.8094 74.5487 44.7277C74.6918 44.646 74.8211 44.5474 74.9368 44.4317C75.0526 44.3091 75.141 44.1763 75.2023 44.0334L75.8048 44.1968C75.7231 44.3942 75.6074 44.5746 75.4576 44.738C75.3078 44.8946 75.1342 45.0341 74.9368 45.1566C74.7394 45.2724 74.5215 45.3609 74.2833 45.4222C74.045 45.4903 73.7965 45.5243 73.5378 45.5243ZM75.4984 42.4812C75.4781 42.1953 75.4099 41.9366 75.2942 41.7051C75.1853 41.4668 75.0423 41.2626 74.8653 41.0925C74.6952 40.9222 74.4943 40.7895 74.2629 40.6942C74.0382 40.5988 73.7965 40.5512 73.5378 40.5512C73.2792 40.5512 73.0341 40.5988 72.8026 40.6942C72.5712 40.7895 72.3669 40.9222 72.1899 41.0925C72.0197 41.2626 71.8801 41.4668 71.7712 41.7051C71.6691 41.9434 71.6078 42.2021 71.5874 42.4812H75.4984ZM76.4292 44.8401C76.6198 44.8265 76.7866 44.7754 76.9296 44.6869C77.0726 44.5916 77.1951 44.4248 77.2972 44.1866C77.4061 43.9415 77.498 43.6079 77.5729 43.1858C77.6548 42.7637 77.7327 42.2157 77.8076 41.5417L77.9611 40.1019H81.0861V45.4222H80.4018V40.6534H78.6044L78.461 41.8379C78.373 42.5459 78.2743 43.1314 78.1655 43.5943C78.056 44.0504 77.9271 44.418 77.7775 44.6971C77.634 44.9694 77.4606 45.1634 77.2564 45.2792C77.0521 45.3881 76.8138 45.4494 76.5415 45.463L76.4292 44.8401ZM83.3232 44.4418L86.4991 40.1019H87.0606V45.4222H86.3764V41.1639L83.2614 45.4222H82.6389V40.1019H83.3232V44.4418ZM91.3381 45.5243C90.8892 45.5243 90.4911 45.412 90.144 45.1873C89.803 44.9558 89.5276 44.6665 89.3163 44.3193V47.5972H88.622V40.1019H89.2453V41.1333C89.4628 40.7997 89.7452 40.5308 90.0923 40.3265C90.4394 40.1155 90.8174 40.01 91.2263 40.01C91.5935 40.01 91.9306 40.0883 92.2368 40.2448C92.5431 40.3946 92.8092 40.5988 93.0337 40.8576C93.2582 41.1094 93.4317 41.4022 93.5544 41.7357C93.684 42.0694 93.748 42.4131 93.748 42.7671C93.748 43.1416 93.6902 43.4956 93.5744 43.8291C93.4587 44.1628 93.2921 44.4554 93.0746 44.7074C92.8632 44.9592 92.6079 45.16 92.3086 45.3098C92.0154 45.4528 91.6922 45.5243 91.3381 45.5243ZM91.1445 44.9116C91.4307 44.9116 91.6891 44.8503 91.9205 44.7277C92.1589 44.6052 92.3595 44.4452 92.523 44.2478C92.6935 44.0436 92.8223 43.8155 92.911 43.5637C92.9997 43.3049 93.0437 43.0394 93.0437 42.7671C93.0437 42.4812 92.9928 42.2089 92.891 41.9502C92.7884 41.6915 92.6487 41.4634 92.4721 41.266C92.2947 41.0686 92.0841 40.912 91.8388 40.7963C91.6004 40.6806 91.342 40.6227 91.0627 40.6227C90.8861 40.6227 90.6986 40.6602 90.5011 40.7351C90.3106 40.8031 90.1301 40.8985 89.9596 41.021C89.7968 41.1367 89.6534 41.2762 89.5307 41.4396C89.415 41.5962 89.344 41.763 89.3163 41.94V43.5739C89.398 43.7645 89.5006 43.9415 89.6225 44.1049C89.7521 44.2683 89.8948 44.4112 90.0514 44.5337C90.2149 44.6495 90.3885 44.7414 90.5729 44.8094C90.7565 44.8775 90.947 44.9116 91.1445 44.9116ZM95.6287 42.3995H98.6102V40.1019H99.2945V45.4222H98.6102V42.9816H95.6287V45.4222H94.9445V40.1019H95.6287V42.3995ZM102.176 45.5243C101.923 45.5243 101.689 45.4834 101.471 45.4017C101.26 45.3132 101.073 45.1941 100.91 45.0443C100.753 44.8946 100.631 44.7209 100.542 44.5235C100.453 44.3193 100.409 44.1014 100.409 43.87C100.409 43.6385 100.463 43.4241 100.573 43.2266C100.681 43.0292 100.834 42.8591 101.032 42.7161C101.229 42.5731 101.464 42.4642 101.737 42.3893C102.009 42.3076 102.308 42.2668 102.635 42.2668C102.908 42.2668 103.183 42.2906 103.462 42.3383C103.742 42.3859 103.99 42.454 104.208 42.5425V42.0625C104.208 41.5928 104.075 41.2217 103.81 40.9494C103.544 40.6703 103.176 40.5308 102.706 40.5308C102.434 40.5308 102.156 40.5853 101.869 40.6942C101.583 40.8031 101.294 40.9597 101.002 41.1639L100.756 40.7044C101.444 40.2414 102.111 40.01 102.758 40.01C103.425 40.01 103.949 40.1972 104.33 40.5716C104.711 40.946 104.902 41.4634 104.902 42.1238V44.5235C104.902 44.7142 104.987 44.8094 105.157 44.8094V45.4222C105.041 45.4426 104.954 45.4528 104.892 45.4528C104.715 45.4528 104.576 45.4085 104.473 45.32C104.378 45.2315 104.327 45.109 104.32 44.9524L104.299 44.5337C104.055 44.8537 103.745 45.0988 103.371 45.269C103.003 45.4392 102.605 45.5243 102.176 45.5243ZM102.339 44.9933C102.7 44.9933 103.03 44.9252 103.33 44.7891C103.636 44.6529 103.867 44.4725 104.024 44.2478C104.085 44.1866 104.13 44.1219 104.157 44.0538C104.191 43.9789 104.208 43.9108 104.208 43.8496V42.9816C103.976 42.8931 103.735 42.825 103.482 42.7774C103.238 42.7297 102.986 42.7059 102.727 42.7059C102.237 42.7059 101.839 42.808 101.532 43.0122C101.226 43.2165 101.073 43.4854 101.073 43.8189C101.073 43.9823 101.103 44.1355 101.164 44.2785C101.233 44.4214 101.321 44.5474 101.43 44.6563C101.546 44.7584 101.682 44.8401 101.839 44.9014C101.995 44.9626 102.162 44.9933 102.339 44.9933ZM107.393 43.3083C107.066 43.2131 106.797 43.0394 106.586 42.7876C106.375 42.5289 106.27 42.1851 106.27 41.7562C106.27 41.5179 106.314 41.2967 106.402 41.0925C106.491 40.8882 106.61 40.7146 106.759 40.5716C106.916 40.4219 107.1 40.3062 107.311 40.2245C107.529 40.1428 107.767 40.1019 108.026 40.1019H109.925V45.4222H109.241V43.4003H108.087L106.739 45.4222H105.953L107.393 43.3083ZM109.241 42.7977V40.7044H108.056C107.913 40.7044 107.774 40.7282 107.638 40.7759C107.508 40.8235 107.393 40.895 107.291 40.9903C107.188 41.0788 107.107 41.1877 107.046 41.3171C106.985 41.4465 106.954 41.5928 106.954 41.7562C106.954 42.0694 107.046 42.3212 107.229 42.5119C107.42 42.7025 107.668 42.7977 107.975 42.7977H109.241ZM117.227 40.1019H118.003L115.991 42.6752L118.176 45.4222H117.4L115.521 42.9918H114.766V45.4222H114.082V40.1019H114.766V42.4506H115.46L117.227 40.1019ZM121.085 45.5243C120.697 45.5243 120.343 45.4528 120.023 45.3098C119.703 45.16 119.424 44.9592 119.185 44.7074C118.954 44.4554 118.773 44.1628 118.645 43.8291C118.515 43.4956 118.45 43.145 118.45 42.7774C118.45 42.4029 118.515 42.0489 118.645 41.7154C118.78 41.3817 118.965 41.0891 119.196 40.8371C119.434 40.5853 119.713 40.3845 120.033 40.2347C120.353 40.0849 120.703 40.01 121.085 40.01C121.466 40.01 121.817 40.0849 122.137 40.2347C122.464 40.3845 122.742 40.5853 122.974 40.8371C123.212 41.0891 123.396 41.3817 123.525 41.7154C123.662 42.0489 123.73 42.4029 123.73 42.7774C123.73 43.145 123.665 43.4956 123.536 43.8291C123.406 44.1628 123.223 44.4554 122.984 44.7074C122.753 44.9592 122.474 45.16 122.147 45.3098C121.827 45.4528 121.473 45.5243 121.085 45.5243ZM119.155 42.7876C119.155 43.0871 119.206 43.3662 119.308 43.6249C119.411 43.8768 119.546 44.1014 119.717 44.2989C119.893 44.4895 120.098 44.6393 120.329 44.7482C120.568 44.8571 120.819 44.9116 121.085 44.9116C121.351 44.9116 121.599 44.8571 121.83 44.7482C122.069 44.6325 122.276 44.4793 122.453 44.2886C122.63 44.0912 122.77 43.8632 122.872 43.6045C122.974 43.3458 123.025 43.0667 123.025 42.7671C123.025 42.4744 122.974 42.1987 122.872 41.94C122.77 41.6745 122.63 41.4465 122.453 41.2558C122.276 41.0584 122.069 40.9052 121.83 40.7963C121.599 40.6806 121.351 40.6227 121.085 40.6227C120.819 40.6227 120.571 40.6806 120.339 40.7963C120.108 40.9052 119.903 41.0584 119.727 41.2558C119.55 41.4532 119.411 41.6847 119.308 41.9502C119.206 42.2089 119.155 42.488 119.155 42.7876ZM127.587 43.6862L129.579 40.1019H130.252V45.4222H129.579V41.3375L127.791 44.5337H127.383L125.586 41.3375V45.4222H124.901V40.1019H125.596L127.587 43.6862ZM135.989 45.4222H135.315V40.7044H132.486V45.4222H131.802V40.1019H135.989V45.4222ZM138.883 45.5243C138.632 45.5243 138.397 45.4834 138.179 45.4017C137.968 45.3132 137.781 45.1941 137.617 45.0443C137.461 44.8946 137.338 44.7209 137.249 44.5235C137.161 44.3193 137.117 44.1014 137.117 43.87C137.117 43.6385 137.172 43.4241 137.28 43.2266C137.389 43.0292 137.543 42.8591 137.74 42.7161C137.938 42.5731 138.172 42.4642 138.444 42.3893C138.717 42.3076 139.017 42.2668 139.343 42.2668C139.615 42.2668 139.892 42.2906 140.17 42.3383C140.449 42.3859 140.698 42.454 140.916 42.5425V42.0625C140.916 41.5928 140.783 41.2217 140.517 40.9494C140.252 40.6703 139.885 40.5308 139.415 40.5308C139.142 40.5308 138.863 40.5853 138.577 40.6942C138.292 40.8031 138.002 40.9597 137.709 41.1639L137.464 40.7044C138.152 40.2414 138.819 40.01 139.466 40.01C140.133 40.01 140.657 40.1972 141.039 40.5716C141.42 40.946 141.61 41.4634 141.61 42.1238V44.5235C141.61 44.7142 141.695 44.8094 141.866 44.8094V45.4222C141.75 45.4426 141.661 45.4528 141.6 45.4528C141.423 45.4528 141.283 45.4085 141.181 45.32C141.086 45.2315 141.035 45.109 141.028 44.9524L141.008 44.5337C140.762 44.8537 140.453 45.0988 140.078 45.269C139.711 45.4392 139.312 45.5243 138.883 45.5243ZM139.047 44.9933C139.408 44.9933 139.738 44.9252 140.037 44.7891C140.344 44.6529 140.575 44.4725 140.732 44.2478C140.793 44.1866 140.837 44.1219 140.865 44.0538C140.899 43.9789 140.916 43.9108 140.916 43.8496V42.9816C140.685 42.8931 140.442 42.825 140.191 42.7774C139.946 42.7297 139.694 42.7059 139.435 42.7059C138.945 42.7059 138.547 42.808 138.24 43.0122C137.934 43.2165 137.781 43.4854 137.781 43.8189C137.781 43.9823 137.812 44.1355 137.873 44.2785C137.941 44.4214 138.029 44.5474 138.138 44.6563C138.254 44.7584 138.39 44.8401 138.547 44.9014C138.704 44.9626 138.87 44.9933 139.047 44.9933ZM143.815 42.3995H146.796V40.1019H147.481V45.4222H146.796V42.9816H143.815V45.4222H143.131V40.1019H143.815V42.3995ZM149.719 44.4418L152.894 40.1019H153.456V45.4222H152.772V41.1639L149.657 45.4222H149.034V40.1019H149.719V44.4418ZM155.988 43.3083C155.661 43.2131 155.392 43.0394 155.181 42.7876C154.97 42.5289 154.865 42.1851 154.865 41.7562C154.865 41.5179 154.909 41.2967 154.997 41.0925C155.086 40.8882 155.205 40.7146 155.354 40.5716C155.511 40.4219 155.695 40.3062 155.906 40.2245C156.124 40.1428 156.362 40.1019 156.621 40.1019H158.52V45.4222H157.836V43.4003H156.682L155.334 45.4222H154.548L155.988 43.3083ZM157.836 42.7977V40.7044H156.651C156.508 40.7044 156.369 40.7282 156.233 40.7759C156.103 40.8235 155.988 40.895 155.886 40.9903C155.783 41.0788 155.702 41.1877 155.641 41.3171C155.579 41.4465 155.549 41.5928 155.549 41.7562C155.549 42.0694 155.641 42.3212 155.824 42.5119C156.015 42.7025 156.263 42.7977 156.569 42.7977H157.836Z" fill="#757575"/>
<path fill-rule="evenodd" clip-rule="evenodd" d="M69.0906 30.9636L63.4225 23.4308L68.6731 17.1517C68.8362 16.9435 68.9464 16.7804 69.0099 16.6536C69.0834 16.5065 69.1208 16.355 69.1208 16.2038C69.1208 16.0961 69.0936 15.995 69.0392 15.9016C68.9792 15.799 68.8803 15.7184 68.7447 15.661C68.6438 15.6189 68.518 15.5861 68.3606 15.5616C68.2103 15.5378 68.0241 15.5266 67.7911 15.5266C67.5639 15.5266 67.3736 15.5359 67.2243 15.5538C67.0684 15.5727 66.9381 15.5984 66.8257 15.6328C66.6984 15.6717 66.5876 15.7261 66.4959 15.7949C66.4046 15.8636 66.3234 15.9497 66.27 16.0323L61.0114 22.6336V16.2037C61.0114 16.0821 60.9791 15.9719 60.915 15.8749C60.8478 15.775 60.7427 15.6985 60.601 15.6488C60.5006 15.6137 60.3754 15.5851 60.2189 15.5609C59.9213 15.5164 59.4197 15.5143 59.1021 15.5609C58.9406 15.5845 58.8133 15.6132 58.7117 15.6492C58.5707 15.6985 58.4649 15.775 58.3983 15.8749C58.3342 15.9709 58.3018 16.0816 58.3018 16.2038L58.3019 31.7947C58.3019 31.9049 58.3325 32.0106 58.3926 32.108C58.4594 32.2178 58.567 32.2989 58.7117 32.3497C58.8117 32.3846 58.9394 32.4133 59.1021 32.4374C59.4192 32.4841 59.9208 32.482 60.2189 32.4374C60.3765 32.4133 60.5016 32.3846 60.601 32.3497C60.7457 32.2989 60.8535 32.2178 60.9206 32.108C60.9813 32.01 61.0114 31.9044 61.0114 31.7947V24.5121L66.4857 31.9521C66.5616 32.061 66.6591 32.1589 66.7749 32.243C66.9058 32.3384 67.0816 32.4 67.314 32.4317C67.5126 32.4585 67.7588 32.4719 68.0671 32.4719C68.3047 32.4717 68.5037 32.4605 68.6596 32.4374C68.8253 32.4128 68.9567 32.3809 69.0602 32.3394C69.2056 32.2815 69.3096 32.1949 69.3706 32.0819C69.4215 31.9871 69.4471 31.8824 69.4471 31.7695C69.4473 31.6859 69.427 31.5915 69.386 31.4791C69.3604 31.4104 69.305 31.2909 69.0906 30.9636Z" fill="#757575"/>
<path fill-rule="evenodd" clip-rule="evenodd" d="M83.2601 30.7742L81.8037 27.196C81.6325 26.7779 81.4597 26.3989 81.2915 26.0699C81.1164 25.7298 80.9289 25.4252 80.733 25.164C80.5324 24.8973 80.3126 24.6639 80.0788 24.471C79.9963 24.4021 79.9099 24.3382 79.8204 24.2776C80.1043 24.1519 80.3697 24.0103 80.6157 23.8554C81.0238 23.5979 81.3787 23.29 81.6718 22.9392C81.968 22.5842 82.1987 22.1702 82.3545 21.7085C82.5111 21.2515 82.589 20.7293 82.589 20.1578C82.589 19.5682 82.5018 19.0199 82.329 18.5285C82.1547 18.0318 81.8886 17.5846 81.5383 17.1983C81.1904 16.8145 80.7538 16.4935 80.2439 16.2447C79.741 15.9999 79.157 15.8189 78.492 15.704C78.2707 15.6783 78.0223 15.6551 77.7469 15.6336C77.4675 15.6125 77.116 15.6019 76.7031 15.6019L73.2508 15.6018C72.9977 15.6018 72.7582 15.686 72.5387 15.8522C72.2949 16.0359 72.1719 16.34 72.1719 16.7561V31.7945C72.1719 31.9165 72.2042 32.0268 72.2683 32.1223C72.335 32.2238 72.4412 32.3002 72.5817 32.349C72.6818 32.3845 72.8069 32.4131 72.9649 32.4372C73.2687 32.4823 73.7847 32.4824 74.0894 32.4372C74.248 32.4126 74.372 32.3834 74.4694 32.3475C74.5995 32.2998 74.7004 32.2284 74.7702 32.1356C74.843 32.038 74.8815 31.9202 74.8815 31.7945V25.1533H76.0501C76.5046 25.1533 76.8955 25.22 77.2114 25.3517C77.5275 25.483 77.8055 25.6699 78.0377 25.9053C78.2768 26.1489 78.4866 26.4435 78.661 26.7804C78.8438 27.1339 79.0235 27.5294 79.1948 27.9526L80.6836 31.7673C80.7253 31.8924 80.777 32.0007 80.8371 32.0879C80.912 32.1966 81.0161 32.2818 81.1457 32.3403C81.256 32.3899 81.391 32.4239 81.5592 32.4445C81.7104 32.4628 81.8955 32.4717 82.1262 32.4717C82.3854 32.4716 82.5983 32.4624 82.7587 32.4445C82.9354 32.4249 83.0735 32.3947 83.1822 32.3511C83.3303 32.2921 83.4329 32.2054 83.4892 32.093C83.534 32.0043 83.5564 31.9037 83.5564 31.7945C83.5564 31.7026 83.5371 31.5898 83.4954 31.438C83.4592 31.3065 83.3828 31.0907 83.2594 30.7742H83.2601ZM79.5782 21.376C79.4648 21.6685 79.2851 21.9266 79.0421 22.143C78.796 22.3636 78.4797 22.5391 78.1033 22.6643C77.7191 22.7924 77.2523 22.8575 76.7152 22.8575H74.8818V17.935H76.4271C76.8429 17.935 77.1825 17.9474 77.4365 17.9714C77.6821 17.9949 77.9042 18.034 78.0948 18.0878C78.6965 18.2607 79.1261 18.5408 79.3715 18.9204C79.6252 19.3124 79.7541 19.8048 79.7541 20.3835C79.7541 20.741 79.6947 21.075 79.5782 21.376Z" fill="#757575"/>
<path fill-rule="evenodd" clip-rule="evenodd" d="M93.894 16.1724C93.8469 16.0456 93.7814 15.9359 93.6981 15.8466C93.6063 15.7486 93.4805 15.6748 93.3262 15.6271C93.1959 15.5871 93.0362 15.5609 92.8387 15.5471C92.6574 15.5337 92.4291 15.5276 92.1537 15.5276C91.8976 15.5274 91.6808 15.5337 91.5111 15.5471C91.3252 15.5614 91.1732 15.5881 91.0467 15.628C90.8978 15.6758 90.7783 15.7476 90.6911 15.8409C90.6116 15.926 90.5484 16.0333 90.5013 16.161L85.0536 31.2497C84.9765 31.4631 84.9356 31.6366 84.9302 31.7786C84.9217 32.0234 85.0212 32.1691 85.1045 32.247C85.211 32.3465 85.3676 32.4091 85.5836 32.4384C85.751 32.4609 85.9631 32.4722 86.2161 32.4722C86.463 32.4721 86.6597 32.4635 86.8186 32.4455C86.9968 32.425 87.1364 32.3901 87.2437 32.3393C87.3624 32.2833 87.4566 32.21 87.5268 32.1198C87.5877 32.0408 87.6355 31.9478 87.6695 31.8464L88.9369 28.1291H95.298L96.6348 31.9201C96.678 32.0171 96.7235 32.0962 96.7714 32.1603C96.8416 32.2541 96.9434 32.326 97.0737 32.3737C97.1779 32.4122 97.3167 32.4378 97.498 32.4526C97.6616 32.466 97.8729 32.4722 98.1414 32.4722C98.4129 32.4721 98.625 32.4635 98.7924 32.4455C99.0077 32.422 99.1658 32.3635 99.2769 32.2659C99.3679 32.1864 99.4744 32.0392 99.4644 31.7909C99.4597 31.6473 99.4196 31.4744 99.3425 31.2621L93.894 16.1724ZM94.5397 25.8582H89.6659L92.0866 18.8573L94.5397 25.8582Z" fill="#757575"/>
<path fill-rule="evenodd" clip-rule="evenodd" d="M110.068 24.4635C109.706 24.1008 109.288 23.7822 108.825 23.5155C108.376 23.2574 107.912 23.0174 107.448 22.8014C106.988 22.5885 106.536 22.3773 106.093 22.1684C105.668 21.9679 105.284 21.7447 104.951 21.5042C104.634 21.2743 104.376 21.008 104.186 20.7121C104.005 20.4294 103.916 20.0964 103.916 19.6937C103.917 19.4194 103.965 19.1578 104.061 18.9161C104.155 18.6759 104.293 18.4755 104.481 18.3015C104.67 18.127 104.918 17.9835 105.217 17.8751C105.519 17.7654 105.885 17.7095 106.302 17.7095C106.757 17.7094 107.171 17.7664 107.532 17.8788C107.903 17.9947 108.228 18.124 108.498 18.2625C108.775 18.4051 109.013 18.5353 109.204 18.6498C109.659 18.9207 109.901 18.9176 110.111 18.7458C110.199 18.6733 110.265 18.5703 110.306 18.44C110.337 18.3415 110.359 18.2271 110.373 18.0917C110.388 17.9659 110.395 17.8218 110.395 17.6602C110.395 17.4914 110.389 17.354 110.38 17.2473C110.371 17.1318 110.356 17.0334 110.336 16.9487C110.313 16.8523 110.284 16.7732 110.247 16.7056C110.208 16.6348 110.143 16.5553 110.042 16.4547C109.941 16.3525 109.761 16.2372 109.479 16.0911C109.217 15.9556 108.913 15.8315 108.577 15.7221C108.244 15.6138 107.884 15.5261 107.51 15.4616C106.398 15.2696 105.286 15.3621 104.331 15.6586C103.694 15.8561 103.135 16.1495 102.669 16.5307C102.199 16.9158 101.827 17.3986 101.564 17.9645C101.301 18.5303 101.169 19.1792 101.169 19.8944C101.169 20.5915 101.284 21.202 101.513 21.7087C101.739 22.2084 102.038 22.6512 102.402 23.024C102.76 23.3913 103.171 23.7146 103.625 23.985C104.066 24.2475 104.526 24.4907 104.994 24.7072C105.454 24.9205 105.903 25.13 106.342 25.3347C106.764 25.531 107.143 25.7502 107.472 25.9866C107.786 26.2119 108.04 26.4761 108.229 26.7715C108.409 27.0516 108.5 27.3984 108.5 27.8027C108.5 28.1883 108.431 28.5347 108.298 28.8322C108.165 29.1266 107.974 29.3781 107.729 29.5797C107.476 29.7863 107.169 29.9494 106.814 30.0639C106.454 30.1798 106.049 30.2388 105.612 30.2388C105.022 30.2388 104.499 30.169 104.054 30.0316C103.598 29.8899 103.205 29.7377 102.886 29.5776C102.563 29.4159 102.296 29.2657 102.093 29.1303C101.654 28.8373 101.365 28.8148 101.129 28.9521C101.029 29.0106 100.949 29.1056 100.892 29.2344C100.847 29.3343 100.815 29.4555 100.794 29.6048C100.776 29.7396 100.767 29.9064 100.767 30.0998C100.767 30.3892 100.793 30.6179 100.848 30.7995C100.905 30.9954 100.999 31.1622 101.126 31.2945C101.242 31.4151 101.43 31.55 101.702 31.7071C101.962 31.8563 102.284 32.0025 102.661 32.141C103.035 32.2784 103.467 32.3965 103.945 32.4918C104.425 32.5868 104.952 32.6349 105.511 32.6349C106.313 32.6349 107.074 32.5252 107.771 32.3088C108.476 32.0896 109.099 31.7578 109.622 31.3223C110.15 30.8836 110.567 30.3429 110.863 29.7156C111.16 29.0877 111.31 28.3638 111.31 27.5641C111.31 26.8844 111.194 26.2821 110.965 25.7747C110.739 25.2741 110.437 24.8329 110.068 24.4635Z" fill="#757575"/>
<path fill-rule="evenodd" clip-rule="evenodd" d="M126.806 15.6979C126.698 15.6469 126.562 15.6126 126.389 15.5917C126.237 15.5737 126.057 15.5649 125.853 15.5649C125.619 15.5649 125.433 15.5737 125.284 15.5917C125.117 15.6126 124.984 15.6466 124.873 15.6958C124.741 15.7542 124.647 15.8281 124.583 15.9185C124.515 16.0143 124.479 16.1261 124.479 16.2422V25.0538C124.479 25.7156 124.481 26.4045 124.485 27.1207C124.487 27.4176 124.489 27.71 124.493 27.9978C124.475 27.9604 124.455 27.9229 124.436 27.8855C124.238 27.4966 124.039 27.1016 123.837 26.7C123.633 26.2967 123.422 25.8874 123.203 25.4714C122.984 25.0564 122.758 24.6312 122.523 24.1961L118.714 17.067C118.568 16.7919 118.432 16.5693 118.299 16.3873C118.157 16.1929 118.006 16.0374 117.849 15.924C117.687 15.8081 117.503 15.7235 117.3 15.6732C117.111 15.626 116.877 15.6024 116.605 15.6024L115.543 15.6024C115.26 15.6024 114.995 15.6926 114.756 15.8708C114.494 16.0672 114.361 16.3822 114.361 16.8069V31.795C114.361 31.9089 114.394 32.0171 114.459 32.1136C114.526 32.2192 114.63 32.2983 114.766 32.3481C114.863 32.3839 114.986 32.4132 115.145 32.4378C115.295 32.4603 115.485 32.4723 115.709 32.4723C115.937 32.4721 116.121 32.4609 116.274 32.4378C116.431 32.4136 116.555 32.385 116.655 32.3501C116.797 32.3004 116.905 32.2208 116.974 32.1141C117.039 32.014 117.071 31.9069 117.071 31.795V21.9911C117.071 21.3705 117.067 20.7457 117.059 20.1173C117.056 19.9105 117.052 19.7054 117.049 19.5012C117.118 19.6417 117.189 19.7833 117.259 19.9243C117.523 20.4471 117.787 20.9545 118.046 21.431L123 30.6669C123.175 31.004 123.344 31.2861 123.503 31.5047C123.668 31.7318 123.837 31.9172 124.008 32.0536C124.189 32.1987 124.384 32.3003 124.589 32.3558C124.781 32.4079 125.004 32.4348 125.251 32.4348H125.965C126.103 32.4348 126.243 32.4136 126.381 32.3732C126.529 32.329 126.665 32.2567 126.785 32.1573C126.907 32.0561 127.005 31.9274 127.077 31.7756C127.151 31.6207 127.189 31.4375 127.189 31.2303V16.2422C127.189 16.1281 127.153 16.0169 127.086 15.9205C127.023 15.8311 126.929 15.7563 126.806 15.6979Z" fill="#757575"/>
<path fill-rule="evenodd" clip-rule="evenodd" d="M143.811 17.5755C143.195 16.8547 142.414 16.2987 141.49 15.9236C140.574 15.5523 139.487 15.3635 138.26 15.3635C136.99 15.3635 135.86 15.5719 134.901 15.9823C133.936 16.3951 133.12 16.9907 132.476 17.7526C131.834 18.5117 131.347 19.4428 131.03 20.5196C130.713 21.5861 130.554 22.7861 130.554 24.0876C130.554 25.4459 130.7 26.6658 130.99 27.7127C131.285 28.7772 131.74 29.6823 132.343 30.4023C132.951 31.1289 133.731 31.6886 134.66 32.0687C135.581 32.4446 136.682 32.6355 137.934 32.6355C139.204 32.6355 140.334 32.4273 141.293 32.0167C142.259 31.6038 143.073 31.0033 143.712 30.2327C144.349 29.4672 144.833 28.528 145.152 27.4414C145.468 26.3662 145.629 25.1453 145.629 23.8116C145.629 22.4797 145.479 21.2779 145.184 20.24C144.886 19.1884 144.423 18.2922 143.81 17.5755H143.811ZM138.041 30.2137C137.137 30.2137 136.379 30.0614 135.79 29.7607C135.205 29.4625 134.733 29.0389 134.386 28.5008C134.031 27.9529 133.774 27.2865 133.622 26.5197C133.467 25.7357 133.389 24.8673 133.389 23.9362C133.389 23.0978 133.474 22.2875 133.639 21.5291C133.803 20.7859 134.075 20.1271 134.452 19.5721C134.823 19.0252 135.312 18.5805 135.905 18.2528C136.497 17.9259 137.244 17.7602 138.129 17.7602C139.017 17.7602 139.767 17.9147 140.36 18.2194C140.948 18.5215 141.426 18.9479 141.779 19.4869C142.138 20.0374 142.399 20.6981 142.555 21.4502C142.713 22.2208 142.793 23.0651 142.793 23.9617C142.793 24.8164 142.71 25.6377 142.548 26.4026C142.389 27.1526 142.119 27.8201 141.747 28.3863C141.381 28.944 140.891 29.3929 140.291 29.7206C139.691 30.048 138.934 30.2137 138.041 30.2137Z" fill="#757575"/>
<path fill-rule="evenodd" clip-rule="evenodd" d="M158.568 30.7674C158.546 30.6186 158.505 30.4961 158.445 30.3935C158.38 30.2832 158.301 30.1985 158.208 30.1411C158.109 30.0805 157.999 30.0504 157.881 30.0504H151.718V24.789H156.89C157.003 24.789 157.108 24.7634 157.202 24.7126C157.302 24.6587 157.385 24.5741 157.45 24.4598C157.504 24.3632 157.541 24.2473 157.564 24.1032C157.583 23.9796 157.592 23.8349 157.592 23.6728C157.593 23.5035 157.583 23.3511 157.564 23.2182C157.542 23.0664 157.505 22.9454 157.449 22.8458C157.391 22.7427 157.316 22.6597 157.228 22.5986C157.127 22.5288 157.013 22.4934 156.89 22.4934H151.718V17.9477H157.793C157.912 17.9477 158.021 17.917 158.119 17.857C158.219 17.7954 158.299 17.7036 158.357 17.5835C158.401 17.4898 158.434 17.3773 158.46 17.2389C158.484 17.1084 158.495 16.9588 158.495 16.7936C158.496 16.6114 158.484 16.4534 158.46 16.3232C158.435 16.1872 158.402 16.0744 158.359 15.9778C158.302 15.8516 158.222 15.7558 158.119 15.6927C158.021 15.6322 157.911 15.6019 157.793 15.6019L150.086 15.6018C149.833 15.6018 149.593 15.686 149.373 15.8522C149.13 16.0359 149.008 16.34 149.008 16.7561V31.2419C149.008 31.658 149.13 31.9621 149.373 32.1454C149.593 32.312 149.833 32.3962 150.086 32.3962H157.881C158 32.3962 158.11 32.3654 158.208 32.3055C158.303 32.2469 158.384 32.1582 158.448 32.0407C158.506 31.937 158.546 31.8109 158.569 31.6647C158.587 31.5374 158.596 31.3907 158.596 31.2297C158.596 31.0512 158.587 30.8963 158.568 30.7674Z" fill="#757575"/>
<path fill-rule="evenodd" clip-rule="evenodd" d="M22.9617 45.6875L14.3511 43.9755L7.04845 39.0975L2.16948 31.7981L0.456055 23.1855L2.16904 14.5745L7.04598 7.27297L14.3452 2.39385L22.958 0.68042L31.5701 2.3924L38.8705 7.27036L43.7491 14.5698L45.464 23.1819L43.7517 31.794L38.874 39.0949L31.5726 43.9735L22.9617 45.6875Z" fill="#F09481"/>
<path fill-rule="evenodd" clip-rule="evenodd" d="M31.5042 43.9215L2.22363 31.7278L14.4168 2.44604L43.696 14.64L31.5042 43.9215Z" fill="#E74C41"/>
<path fill-rule="evenodd" clip-rule="evenodd" d="M43.6647 31.8058L14.3394 43.8899L2.25684 14.5626L31.5822 2.479L43.6647 31.8058Z" fill="#E74C41"/>
<path fill-rule="evenodd" clip-rule="evenodd" d="M35.116 35.3401H10.8037V11.0278H35.116V35.3401Z" fill="#E42127"/>
<path fill-rule="evenodd" clip-rule="evenodd" d="M22.9598 40.3759L5.76953 23.1839L22.9598 5.99365L40.1508 23.1839L22.9598 40.3759Z" fill="#E42127"/>
<path fill-rule="evenodd" clip-rule="evenodd" d="M17.925 35.3401L10.8037 28.2188V18.1492L17.925 11.0278H27.9941L35.116 18.1492V28.2188L27.9941 35.3401H17.925Z" fill="#D8213A"/>
</g>
<defs>
<clipPath id="clip0">
<rect width="161.996" height="48.5989" fill="white" transform="translate(0.456055 0.68042)"/>
</clipPath>
</defs>
</svg>
