<svg width="1313" height="1008" viewBox="0 0 1313 1008" fill="none" xmlns="http://www.w3.org/2000/svg">
<g clip-path="url(#clip0_27_239)">
<path d="M446.6 22.9878C443.6 25.9878 441 38.8878 438.6 62.4878C436.4 83.2878 436.1 92.0878 437.1 98.4878C439.2 112.188 439.9 121.588 438.8 123.888C437.8 126.288 434.2 128.488 431.4 128.488C430.5 128.488 426.6 129.588 422.7 130.888C418.7 132.288 412.4 133.688 408.5 133.988C404.7 134.388 395.8 135.688 388.7 137.088C381.7 138.388 373.1 139.488 369.6 139.488C363.5 139.488 362.8 139.688 358.6 143.388C355.6 145.988 351.7 148.088 346.9 149.588C343 150.788 338.2 152.888 336.3 154.188C334.5 155.388 331.7 157.088 330.1 157.988C325.7 160.188 307.7 165.988 296 168.988C290.2 170.388 282.1 172.488 277.9 173.588C273.8 174.588 268.2 175.488 265.6 175.488C262.6 175.488 259.2 176.388 256 177.988C249.1 181.488 233.5 187.188 227.2 188.588C224.3 189.188 220.7 190.688 219.2 191.988C217.7 193.188 214.7 195.088 212.5 196.288C207.5 198.788 199 207.688 199 210.388C199 211.588 198.4 214.588 197.8 217.188C196.7 221.088 195.5 222.588 190.9 226.188C187.8 228.588 184.7 231.788 183.9 233.288C183.2 234.788 181.9 236.788 181.1 237.788C180 239.088 179.9 239.988 180.8 241.988C182.6 245.988 184 244.888 184 239.488C184 234.988 184.3 234.388 187 232.988C192.6 230.088 195.2 233.788 195.2 244.488C195.2 250.288 194.1 255.488 192.9 255.488C192.4 255.488 192 256.488 192 257.788C192 259.488 193.1 260.788 196.3 262.488C201.2 265.188 205 268.388 205 269.888C205 270.488 205.9 272.088 207 273.488C212.2 280.188 205.7 293.088 197.1 292.888C193.2 292.788 187 290.088 187 288.488C187 287.888 186.2 286.588 185.3 285.588C184.3 284.488 182.8 282.888 182.1 281.888C181.1 280.788 180.5 280.588 180.2 281.288C179.8 282.688 186 294.088 188.9 297.188C191.5 299.988 191.5 301.688 188.9 303.488C186.6 305.188 180 313.988 180 315.488C180 315.988 178.8 319.388 177.4 322.988C174.2 330.888 174.6 332.388 182.3 340.688C186.1 344.888 188.8 346.788 192.5 347.988C195.2 348.888 198 350.088 198.6 350.588C199.3 351.088 200.1 355.688 200.5 360.788C200.9 365.888 201.8 372.688 202.5 375.988C203.2 379.288 204.1 384.088 204.5 386.688C205.3 392.688 207.3 394.988 210.1 393.188C212 392.088 212.1 391.288 211.6 380.988C209.6 344.788 209.6 347.388 212.5 343.088C218.2 334.688 220.5 321.988 217.4 316.488C214 310.688 209.6 306.388 204.8 304.288C202.1 303.188 200 301.588 200 300.888C200 300.088 203.4 296.088 207.5 291.888C214.9 284.488 215 284.388 217.7 285.888C219.2 286.688 222.2 288.888 224.4 290.788C226.5 292.688 233.7 297.288 240.4 300.988C247 304.788 253.9 308.888 255.7 310.188C258.9 312.488 277.9 321.988 288 326.388C305.3 333.788 340.3 346.788 353 350.388C357.1 351.588 361.4 352.988 362.5 353.588C365.8 355.088 382.1 360.088 388 361.488C392.5 362.488 423.4 370.288 440.2 374.588C447.3 376.388 447.5 377.288 443.5 393.488C442.7 396.488 441.8 402.088 441.5 405.988C441.1 409.788 440.2 417.388 439.3 422.788C438.5 428.088 437.7 434.688 437.5 437.288C436.9 446.188 435.2 454.988 432.7 463.488C431.3 468.188 429.6 474.588 429 477.788C427.2 486.588 424.5 486.888 407.2 480.088C384.4 471.188 367.6 461.688 362.2 454.688C352.6 442.288 341.2 417.988 332 390.488C327.5 376.988 324.1 372.088 316 367.988C310.6 365.288 297.2 362.388 288.7 362.188L282.5 361.988L282.6 365.088C282.8 368.688 292.9 395.088 301.2 413.488C302.9 417.088 305.3 422.688 306.7 425.988C308.1 429.288 310.2 433.288 311.5 434.988C312.7 436.588 314.5 439.588 315.5 441.488C316.5 443.388 318.5 446.388 319.9 448.088C325.1 454.288 326.1 455.688 331.6 463.988C334.7 468.688 337.6 472.488 338 472.488C338.5 472.488 341 475.188 343.5 478.588C346.1 481.888 353.4 488.988 359.7 494.288C371.2 503.888 373.5 505.788 382.4 512.488C388.2 516.788 402.1 525.688 407.7 528.588C409.9 529.788 412.3 531.888 412.9 533.188C413.6 534.688 414 542.888 414 554.288V572.988L418.1 581.188C420.4 585.788 422.6 589.488 423.1 589.488C423.6 589.488 424 590.088 424 590.788C424 591.488 424.8 592.988 425.8 594.088C426.7 595.188 429.1 598.288 430.9 600.988C432.8 603.788 434.9 606.288 435.6 606.688C436.2 607.088 439.4 610.688 442.6 614.688C450.1 623.888 454.5 627.788 463.6 633.688C467.6 636.188 471.4 639.288 472 640.488C474 644.188 470 646.788 452.2 653.488C447.6 655.188 441.9 656.988 439.7 657.488C437.4 657.988 432.6 659.088 429 659.988C424.1 661.288 416.9 661.788 399 661.988C386.1 662.188 373.7 662.588 371.5 663.088C369.3 663.488 356.7 663.888 343.5 663.888L319.5 663.988L312 667.388C297.4 673.988 288.6 681.888 277.5 698.488C272.3 706.388 269.7 711.588 266.8 719.988C264.7 725.988 263 731.688 263 732.488C263 733.288 262 735.188 260.7 736.688C258.7 739.188 258.3 739.388 256 738.188C254.6 737.488 253.3 735.688 252.9 733.988C252.5 732.288 251.7 729.588 251.2 727.988C250.1 724.888 248.4 719.088 244.9 706.488C243.8 702.388 242.5 698.088 242 696.988C241.5 695.888 240 690.488 238.6 684.988C237.2 679.488 235.1 671.788 234 667.988C232.9 664.088 231.7 659.588 231.4 657.988C231.1 656.288 229.5 650.688 228 645.488C224.8 634.388 222.4 623.988 221.6 617.188C221.3 614.588 219.7 609.588 218 605.988C216.3 602.388 214.7 597.388 214.4 594.788C213.5 588.188 211.5 580.288 209.7 576.888C208.5 574.488 206.2 567.288 202.4 554.188C200.8 548.788 189.3 546.988 176 549.888C172.4 550.688 166.6 551.888 163 552.488C159.4 553.188 155 554.288 153.3 554.988C150.2 556.288 150 556.688 150 561.688C150 564.688 150.7 569.788 151.6 572.988C152.5 576.288 153.6 580.788 154.1 583.088C154.5 585.288 155.6 588.888 156.6 591.088C159.2 597.188 159.8 598.788 160.5 601.988C160.8 603.588 161.9 607.188 162.9 609.988C163.9 612.688 165.3 617.688 166 620.988C166.7 624.288 168.5 630.388 170.1 634.488C173 642.288 180.4 667.188 185.9 687.988C187.6 694.588 189.7 701.988 190.5 704.488C191.3 706.988 194.4 718.688 197.4 730.488C202.7 751.388 205.3 760.788 210.6 778.488C213.8 788.988 214.3 790.988 218 810.988C219.7 819.788 221.9 830.788 223.1 835.388C225.5 844.888 225.1 850.788 221.9 854.888C220.1 857.188 216.4 863.788 210.7 874.688C207.2 881.488 203.2 901.888 202 919.488C201.5 926.888 199.9 938.388 198.4 944.988C197 951.588 195.4 958.788 195 960.988C193.4 968.488 185.6 985.788 178.4 997.488C171.7 1008.29 168 1015.29 168 1016.99C168 1018.29 228.2 1018.49 672.9 1018.49C1153 1018.49 1177.9 1018.39 1178.2 1016.69C1178.6 1014.79 1178 1010.49 1175.7 996.988C1174.8 991.988 1173.9 979.688 1173.5 969.488C1172.7 941.588 1169.8 925.988 1161.5 903.988C1160 900.088 1157.5 893.188 1155.9 888.488C1154.2 883.788 1152.3 878.888 1151.5 877.488C1150.8 876.088 1149.9 873.388 1149.5 871.488C1148 864.288 1135.5 841.988 1132.4 840.788C1131.6 840.488 1131 839.888 1131 839.388C1131 838.288 1123.6 830.088 1112.1 818.488C1106.9 813.288 1099.1 804.288 1094.6 798.488C1084.5 785.288 1082.2 782.788 1056.5 757.288C1045 745.788 1031 731.188 1025.5 724.788C1020 718.388 1012.7 710.188 1009.4 706.588C1006 702.988 1001.4 697.788 999 694.988C996.7 692.288 989.9 684.688 983.9 677.988C960.2 651.588 939.8 621.888 933.7 604.888C932.9 602.788 931.2 598.088 929.8 594.488C926.6 586.388 925 581.788 924.1 577.988C923.6 576.288 922.5 573.388 921.6 571.488C916.1 559.688 895.7 526.988 891.1 522.388C884.3 515.688 870.9 498.888 864.8 489.488C858.5 479.688 853.6 471.988 852.4 469.988C842.5 452.688 836.8 440.888 837.2 438.688C837.4 437.788 838.9 436.388 840.5 435.488C842.2 434.688 843.9 433.388 844.3 432.688C844.7 432.088 846 431.488 847.1 431.488C851.6 431.488 862 425.088 862 422.288C862 421.888 859.2 421.488 855.8 421.488C849.1 421.488 837.5 418.788 832.5 416.188C828.4 414.088 820 405.888 820 403.988C820 402.188 822.1 401.688 833.5 401.088C853.7 399.888 870.2 397.488 892.8 392.488C895.1 391.888 898.7 391.488 900.8 391.488C902.8 391.488 907.7 390.788 911.5 389.988C921.9 387.688 930.9 385.988 945 383.588C951.7 382.388 956.2 381.388 966 378.588C973 376.588 987.5 372.988 1013.5 366.888C1025.9 363.888 1031.6 361.588 1042.2 355.288C1046.2 352.888 1053.3 349.388 1058 347.588C1062.7 345.688 1067.9 343.188 1069.5 341.988C1074.2 338.588 1083.1 334.288 1084.5 334.888C1086 335.388 1088.1 333.188 1090.1 329.088C1091 327.188 1093.5 325.088 1096.9 323.388C1100.1 321.688 1103.1 319.288 1104.3 317.288C1106.7 313.288 1107.7 312.588 1110.1 313.188C1112.3 313.788 1112.6 312.288 1110.8 310.288C1107.7 307.088 1106.7 303.688 1107.9 300.388C1109.5 295.688 1109.4 295.188 1104.5 288.688C1102 285.388 1100 282.388 1100 281.988C1100 280.788 1091.9 270.388 1088.4 266.988C1080.3 259.288 1076.4 256.188 1073.4 254.888C1071.6 254.088 1069.9 253.088 1069.6 252.588C1067.3 248.888 1036.4 231.988 1022.6 226.888C1019.9 225.888 1013.9 222.688 1009.2 219.788C1004.6 216.888 1000.4 214.488 1000 214.488C999.5 214.488 997.9 213.388 996.3 212.188C994.8 210.888 990.1 208.288 986 206.488C981.9 204.588 977 202.088 975.2 200.688C973.4 199.388 968.2 197.088 963.7 195.588C959.2 193.988 953 191.588 950 190.188C942.1 186.488 935.2 183.888 930 182.488C927.5 181.788 924.4 180.488 923 179.488C921.6 178.588 919.4 177.388 918 176.988C916.6 176.588 912.9 174.988 909.7 173.388C906.5 171.788 902.3 170.088 900.2 169.488C898.2 168.988 893.4 167.688 889.5 166.588C885.5 165.488 879.2 164.588 875 164.588C862.6 164.488 860.9 161.888 865.7 150.388L868.4 143.988L868.2 119.488C867.8 64.6878 867.3 50.5878 866 48.9878C863 45.3878 860.2 47.8878 850.5 62.4878C849.3 64.3878 843.5 71.1878 837.9 77.4878C832.2 83.8878 826.2 90.8878 824.6 92.9878C823 95.1878 819.5 99.1878 816.9 101.988C814.4 104.688 810.1 109.488 807.4 112.488C801.4 119.288 789.4 129.688 785.2 131.888C780.9 134.088 777.3 134.088 765.5 131.588C755.4 129.488 746.6 126.488 737.5 121.988C734.7 120.588 732.1 119.488 731.7 119.488C731.2 119.488 728.8 118.088 726.3 116.288C723.8 114.588 719.4 112.288 716.6 111.288C713.8 110.288 709.6 108.488 707.3 107.388C704.9 106.388 702.7 105.488 702.4 105.488C702.1 105.488 700.6 104.688 699.2 103.588C695.9 101.288 686.8 96.3878 669.1 87.2878C659 82.1878 654.8 80.4878 651.6 80.4878C646.6 80.4878 631.3 84.4878 623 87.9878C617.1 90.4878 593.7 96.4878 590 96.4878C587.4 96.4878 581.2 99.3878 577.7 102.188C574.4 104.888 569.8 105.188 565.6 102.988C560.4 100.288 553.5 101.688 547.4 106.788C543 110.488 533 114.788 529.3 114.688C521.9 114.388 512.7 107.488 491.5 86.0878C473 67.3878 468.2 61.5878 462.5 50.9878C460.4 47.0878 457.4 42.0878 455.8 39.7878C454.3 37.4878 452.4 32.8878 451.6 29.3878C449.8 21.9878 448.9 20.7878 446.6 22.9878Z" fill="#B22E72"/>
<path d="M181.8 257.488C180.2 260.388 180.2 260.388 182.1 259.188C183.1 258.588 184 257.188 184 256.288C184 253.888 183.8 253.988 181.8 257.488Z" fill="#B22E72"/>
<path d="M1088.6 343.188C1090.4 350.188 1095 354.488 1103.4 356.988C1107.9 358.288 1109.1 359.988 1106.2 360.888C1102.4 362.188 1092.5 372.888 1090.6 377.888C1088.9 382.188 1088.9 383.388 1090 388.388C1092.3 398.188 1097 403.388 1107.3 406.888L1113.5 408.988L1114.2 417.488C1117.1 453.888 1117.9 463.388 1118.5 466.488C1119.8 472.688 1123.9 486.788 1126.1 492.488C1127.4 495.688 1128.6 501.788 1129 506.988C1129.4 511.888 1130.5 517.688 1131.4 519.688C1132.3 521.788 1133 525.588 1133 528.288C1133 530.988 1133.6 534.488 1134.4 536.088C1135.1 537.688 1136.4 540.488 1137.1 542.188C1138.5 545.488 1143 548.188 1144.9 546.988C1145.5 546.688 1146 547.088 1146 547.888C1146 548.788 1146.7 549.488 1147.5 549.488C1148.3 549.488 1149 549.888 1149 550.488C1149 551.988 1152.8 555.488 1154.5 555.488C1156.9 555.488 1160 551.688 1160 548.888C1160 547.188 1159.4 546.088 1158 545.788C1156.9 545.488 1156 544.888 1156 544.388C1156 543.888 1155.1 542.588 1153.9 541.388C1152.7 540.188 1151.5 537.388 1151.3 535.088C1151 532.888 1150.1 529.788 1149.4 528.288C1148.6 526.788 1148 522.488 1148 518.488C1148 511.188 1146.2 506.488 1143.4 506.488C1142.4 506.488 1142.3 505.888 1143.1 503.588C1143.8 501.688 1143.8 497.588 1143.1 491.388C1142.2 482.388 1140.1 475.788 1134 462.988C1131.3 457.288 1129 450.388 1129 447.888C1129 446.688 1127.9 441.388 1126.5 436.088C1125.1 430.788 1124 424.488 1124 421.988C1124 419.588 1123.5 415.288 1122.9 412.488C1122 408.388 1122.1 406.588 1123.4 402.788C1125.1 397.888 1125.1 397.888 1120.4 392.488C1119.3 391.088 1118 389.188 1117.6 388.088C1117 386.488 1117.3 386.288 1119.9 386.788C1122.1 387.288 1122.8 387.088 1122.4 386.088C1122.1 385.388 1123.1 384.288 1124.5 383.688C1126.6 382.688 1127 381.888 1126.8 378.488C1126.7 376.288 1126.1 373.988 1125.3 373.388C1124.6 372.788 1124 371.488 1124 370.488C1124 369.488 1122.8 368.188 1121.2 367.588C1119.6 366.888 1116.3 364.388 1113.9 361.888L1109.6 357.488L1111.3 354.488C1112.8 351.988 1112.9 351.488 1111.6 351.488C1110.8 351.488 1109.8 351.888 1109.5 352.488C1107.8 355.288 1098.4 351.788 1093.3 346.488C1091.5 344.588 1090 342.488 1090 341.788C1090 341.088 1089.5 340.488 1089 340.488C1088.4 340.488 1088.2 341.588 1088.6 343.188Z" fill="#B22E72"/>
<path d="M1159.7 541.988C1159 543.588 1160.5 544.888 1162 543.988C1163 543.388 1162.2 540.488 1161 540.488C1160.6 540.488 1160 541.188 1159.7 541.988Z" fill="#B22E72"/>
<path d="M1206 630.988C1206 632.588 1214.1 642.188 1217.4 644.388C1218.6 645.188 1221.5 647.588 1223.9 649.688C1226.3 651.788 1229.1 653.488 1230.1 653.488C1231.9 653.488 1231.8 653.188 1229.6 648.688C1228.2 646.088 1226.6 642.688 1225.9 641.188C1225.2 639.588 1222.9 637.588 1220.6 636.388C1218.3 635.288 1214.5 633.388 1212 631.988C1206.6 629.188 1206 628.988 1206 630.988Z" fill="#B22E72"/>
</g>
<defs>
<clipPath id="clip0_27_239">
<rect width="1313" height="1008" fill="white"/>
</clipPath>
</defs>
</svg>
