<svg width="731" height="164" viewBox="0 0 731 164" fill="none" xmlns="http://www.w3.org/2000/svg">
<path fill-rule="evenodd" clip-rule="evenodd" d="M3.65696 0.28566L3.29357 0.603638L2.90746 3.38589C2.69169 4.91898 2.44185 6.78139 2.33965 7.5309C2.23744 8.28041 2.05574 9.58636 1.94218 10.4267C1.82862 11.2671 1.59014 12.9251 1.43115 14.1175C1.28014 15.2393 1.10865 16.4737 1.04316 16.9451L1.03369 17.0133C0.976907 17.4221 0.795208 18.7167 0.636221 19.9091C0.477235 21.0902 0.261468 22.6005 0.170619 23.2478C0.0797691 23.8952 0.000275949 24.6333 0.000275949 24.8945C-0.0110802 25.1557 0.329605 26.8705 0.738427 28.7102L0.850578 29.2149C1.22912 30.9188 1.62827 32.7155 1.78319 33.3662C1.94218 34.0816 2.41914 36.2507 2.85067 38.1926C3.28221 40.1231 4.50868 45.5968 5.5648 50.3437L5.92708 51.9721C7.02404 56.903 8.70308 64.4504 9.8915 69.7627C11.6858 77.837 12.2763 80.6646 12.2309 81.0053C12.1741 81.3914 11.2202 84.8324 8.98301 92.7022C4.1907 109.555 3.99765 110.247 3.13458 113.529L2.37372 116.403L2.58948 116.709C2.83932 117.038 3.13458 117.197 8.81266 120.184C11.0612 121.354 14.8655 123.352 17.273 124.613C19.6805 125.874 23.3826 127.815 25.5062 128.928C29.4923 131.007 30.8209 131.711 30.8664 131.756L33.3647 132.994C33.5464 133.085 36.4195 134.55 39.7582 136.253C50.1037 141.522 52.3068 142.647 52.3409 142.669L54.1011 143.975C54.1124 143.975 57.4852 147.337 61.5961 151.448L69.0685 158.92L70.7719 160.249C70.8174 160.26 72.2142 161.01 73.8722 161.918L76.9043 163.565L79.0733 163.531L81.9918 161.929L82.2672 161.779C83.7427 160.973 84.9237 160.328 84.9558 160.328L86.6365 158.931L94.1089 151.459C98.2312 147.337 101.615 143.975 101.649 143.975L103.466 142.737C103.466 142.703 104.114 142.329 104.92 141.908C105.715 141.5 108.225 140.194 110.507 139.013C121.625 133.244 122.817 132.63 122.874 132.676L125.1 131.472L130.04 128.86C139.147 124.045 148.391 119.128 150.969 117.72C151.764 117.277 152.468 116.823 152.536 116.698C152.604 116.573 152.639 116.255 152.616 115.994C152.593 115.744 151.889 112.871 151.06 109.623C148.335 98.9027 146.188 90.4537 144.655 84.4122L143.599 80.2104L144.178 77.6553C145.916 70.1034 149.277 55.488 149.402 54.9429C149.675 53.7278 150.719 49.1967 150.878 48.5267C150.969 48.1519 151.242 46.9255 151.503 45.8012C151.753 44.6769 152.014 43.5527 152.071 43.3028L152.083 43.2488C152.23 42.6282 152.604 41.0384 153.32 37.9087C153.638 36.5005 154.376 33.298 154.955 30.777L156 26.2005L155.739 23.6794C155.5 21.3059 155.228 18.7054 154.853 15.1963C154.058 7.78075 154.035 7.58768 153.536 3.6698C153.127 0.376511 153.059 0.160751 152.332 0.0244751C151.934 -0.0550232 152.037 -0.111801 143.61 4.74864C142.611 5.3278 140.771 6.38393 139.522 7.11072C138.273 7.82616 136.411 8.905 135.377 9.49551C134.344 10.086 132.504 11.1535 131.289 11.8463C129.12 13.0954 126.61 14.5377 121.296 17.6038C119.831 18.4442 117.786 19.6252 116.753 20.2157C115.72 20.8063 112.199 22.839 108.917 24.7355L102.955 28.1764L101.195 27.9834C98.0722 27.654 83.0025 25.996 81.9464 25.8711C78.6077 25.485 78.0172 25.4396 77.2677 25.5304C76.5409 25.6326 75.1781 25.7803 70.0224 26.3254C68.9687 26.4368 67.7523 26.5754 67.1474 26.6443L66.9563 26.666C66.4566 26.7228 64.8213 26.9045 63.3223 27.0635C59.9381 27.4269 57.0083 27.7449 54.8506 27.9834C53.9307 28.0856 53.0677 28.1423 52.92 28.1083C52.6361 28.0401 46.7082 24.6219 40.5532 20.988C35.6132 18.0694 31.6045 15.7073 30.1055 14.8329C29.197 14.2992 25.6766 12.2323 22.2697 10.2337C16.6711 6.95172 13.8889 5.3278 9.49403 2.79538C6.9389 1.31908 4.62224 0.0812378 4.31562 0.0131073C4.0885 -0.0323181 3.91815 0.0358276 3.65696 0.28566ZM10.4593 15.026C10.289 14.708 9.01708 12.2891 7.62027 9.63179C6.22346 6.97444 5.05377 4.75999 5.00835 4.71457C4.9175 4.61237 4.838 5.08932 4.21342 9.63179C3.96358 11.4715 3.57747 14.231 3.3617 15.7641C3.14594 17.2972 2.79389 19.8751 2.56677 21.499C2.351 23.1229 2.14659 24.5652 2.12388 24.7014C2.11252 24.8377 2.22609 25.5759 2.39643 26.3481C2.56677 27.1203 3.35035 30.6294 4.14528 34.1611C4.92885 37.6929 6.66635 45.5059 8.01773 51.5361C9.35776 57.5662 11.277 66.1742 12.2763 70.6599L12.4279 71.3346L12.4288 71.3382C13.3691 75.5222 14.1166 78.8482 14.1274 78.859C14.1387 78.8817 15.5128 77.7915 17.1594 76.4515C18.8174 75.1001 20.7594 73.5216 21.4748 72.9425C22.883 71.8068 28.3339 67.3666 32.5243 63.9484C33.9439 62.79 35.1022 61.8247 35.1022 61.7907C35.1022 61.7225 32.2064 56.1921 31.0708 54.0912C30.8663 53.7165 30.2758 52.5922 29.7648 51.5928C29.2424 50.5935 28.7314 49.6169 28.6292 49.4352C28.5156 49.2421 28.1295 48.504 27.7434 47.7885C27.3686 47.0731 26.1308 44.7224 24.9952 42.5647C23.8596 40.407 22.6445 38.1131 22.2924 37.4544C21.9518 36.7958 21.4521 35.8532 21.1909 35.3535C20.9183 34.8539 19.9758 33.0596 19.09 31.3789C18.2339 29.7436 17.293 27.9704 16.9643 27.3509L16.9323 27.2906C16.6371 26.7228 15.6604 24.8831 14.7747 23.2024C13.8889 21.5104 12.935 19.7274 12.6738 19.2278C12.4126 18.7281 11.8675 17.706 11.4814 16.9565C11.0839 16.207 10.6297 15.3326 10.4593 15.026ZM152.582 14.5717C152.116 10.3245 151.685 6.39529 151.617 5.82748C151.548 5.27103 151.48 4.79405 151.458 4.7827C151.454 4.7787 151.453 4.76926 151.45 4.76762C151.426 4.75711 151.261 5.06647 149.067 9.17244L149.062 9.18076L149.058 9.18852L149.055 9.19427L149.038 9.22708C148.655 9.94246 148.212 10.7717 147.699 11.7327L147.068 12.9112L147.065 12.9172L147.008 13.024C145.366 16.0921 143.388 19.7901 142.327 21.7829C141.112 24.0655 139.136 27.7676 137.932 30.0161C136.729 32.2646 134.98 35.5352 134.049 37.2841C131.993 41.1111 127.621 49.2875 125.123 53.9776C125 54.2083 124.872 54.4477 124.741 54.6923C123.812 56.4351 122.742 58.4427 122.204 59.4286C122.014 59.7833 121.825 60.1335 121.653 60.4532L121.651 60.4572C121.278 61.1487 120.983 61.6965 120.921 61.8361L120.728 62.1881L122.465 63.5282C123.137 64.0546 123.977 64.6964 124.618 65.1861L124.62 65.1882C124.877 65.3842 125.101 65.556 125.27 65.6859C125.678 65.9997 126.428 66.5794 127.182 67.1624L127.195 67.1724L127.196 67.1734L127.209 67.1832C127.537 67.4369 127.865 67.6908 128.166 67.923C128.754 68.3705 129.887 69.2422 131.158 70.2192L131.167 70.2257C132.054 70.9082 133.008 71.6417 133.89 72.3179C136.047 73.9759 138.137 75.5884 138.546 75.9064C140.726 77.5871 141.725 78.3366 141.771 78.3366C141.827 78.3366 142.032 77.5076 143.043 73.1128C143.313 71.9344 143.573 70.8105 143.735 70.1118C143.778 69.9247 143.815 69.7681 143.842 69.6491C143.867 69.54 143.885 69.4625 143.894 69.422C143.951 69.1722 144.099 68.5363 144.224 68.0025C144.349 67.4688 144.916 65.0158 145.484 62.5516C146.052 60.0873 146.62 57.6343 146.745 57.1006C146.822 56.7359 146.921 56.3235 146.994 56.0191L146.994 56.018C147.011 55.9496 147.026 55.8867 147.039 55.831L147.046 55.8031L147.051 55.7821C147.055 55.7643 147.059 55.7475 147.062 55.7316C147.067 55.7134 147.071 55.6965 147.074 55.6811L147.082 55.6477L147.1 55.5704C147.112 55.518 147.127 55.4516 147.145 55.3724L147.179 55.2263L147.181 55.217L147.182 55.2143C147.352 54.4811 147.689 53.0251 148.039 51.4793C148.292 50.3824 148.549 49.2791 148.751 48.4105C148.929 47.6424 149.065 47.0577 149.118 46.8233C149.165 46.6178 149.382 45.6747 149.709 44.258C150.178 42.2298 150.87 39.2308 151.605 36.0349L153.876 26.155L153.774 25.2465C153.717 24.7469 153.615 23.8724 153.547 23.316C153.479 22.7482 153.047 18.8189 152.582 14.5717ZM139.477 22.6119C140.158 21.3514 142.111 17.6947 143.815 14.4922C144.712 12.8175 145.596 11.1645 146.283 9.88083C146.909 8.70984 147.371 7.84615 147.528 7.5536C147.858 6.94037 148.107 6.418 148.073 6.39529C148.051 6.37259 147.63 6.74731 147.131 7.22427C146.631 7.70123 145.223 9.01855 144.008 10.1428C142.793 11.2671 141.362 12.5958 140.828 13.0954C140.294 13.5951 137.512 16.1729 134.639 18.8303C133.102 20.2575 131.372 21.8615 129.876 23.2484L129.826 23.2943L129.803 23.3155L129.78 23.3371L129.721 23.3918C128.497 24.5263 127.444 25.5028 126.803 26.0983C126.455 26.4216 126.045 26.8025 125.6 27.2154C125.243 27.5471 124.864 27.8994 124.476 28.2591L124.469 28.2659C123.342 29.3122 122.148 30.4204 121.239 31.2653C119.615 32.7643 117.582 34.6494 116.708 35.4671C116.299 35.8441 115.828 36.2807 115.387 36.6898C114.884 37.1556 114.42 37.5858 114.13 37.8519C113.585 38.3516 111.768 40.0323 110.098 41.5881C103.864 47.3797 99.4236 51.4906 98.992 51.8881L98.5605 52.2856L99.6166 52.7512C100.207 53.001 103.194 54.2956 106.249 55.6243C107.684 56.2464 109.339 56.9657 110.89 57.6397C112.651 58.4053 114.279 59.1127 115.299 59.5535C117.219 60.3939 118.809 61.0752 118.843 61.0752C118.909 61.0752 119.167 60.5955 120.873 57.4212L120.874 57.4199L121.046 57.1006C122.092 55.1369 124.932 49.8256 127.658 44.7262L127.666 44.7122C128.547 43.0631 129.417 41.4365 130.21 39.9528C131.198 38.1131 132.606 35.4784 133.333 34.1043C134.9 31.1631 137.739 25.8371 139.477 22.6119ZM18.6925 15.9913C16.2055 13.6519 9.55082 7.4287 9.0625 6.98581C8.3357 6.3158 8.26757 6.32715 8.68775 7.05394C8.83538 7.31512 9.72116 8.9845 10.6637 10.7674C13.5368 16.2297 16.7052 22.2485 17.1594 23.0889C17.3875 23.5015 18.28 25.2016 19.1918 26.9383L19.1933 26.9412L19.3171 27.1771C20.271 28.9827 21.2704 30.8792 21.5316 31.3789C22.5763 33.3321 30.9345 49.174 33.2284 53.5234C36.2605 59.281 37.0555 60.7346 37.1236 60.6891C37.169 60.6664 39.2472 59.792 41.7456 58.7472C44.2439 57.7025 47.5713 56.3057 49.1271 55.647C50.6942 54.9997 53.1585 53.9663 54.6121 53.3531C56.0657 52.7512 57.2808 52.2288 57.3035 52.1947C57.3376 52.1607 55.9976 50.8661 54.3282 49.3103C53.4532 48.4925 52.7558 47.8413 52.1525 47.278L52.1465 47.2724C50.7174 45.9381 49.8164 45.0967 48.3321 43.7003C47.8365 43.2249 46.2145 41.7132 44.5658 40.1767L44.5632 40.1743L43.96 39.6121C41.7289 37.5283 40.1886 36.0906 39.0434 35.0218C37.1868 33.289 36.3689 32.5255 35.3293 31.5492C33.6713 29.9934 30.6847 27.1998 24.8362 21.7375C24.7061 21.6158 24.5703 21.4889 24.4299 21.3575C24.3473 21.2803 24.263 21.2016 24.1774 21.1215L23.2854 20.2877L23.2785 20.2812C21.7082 18.8134 19.8959 17.1195 18.6925 15.9913ZM41.4617 23.9406C38.668 22.3053 35.9766 20.7381 24.9952 14.3446C14.6687 8.33527 14.651 8.32472 13.542 7.66287L13.3778 7.56497C12.7646 7.20157 12.2309 6.90631 12.1854 6.90631C12.14 6.90631 12.3331 7.12207 12.617 7.39462C12.9009 7.65581 15.0245 9.63181 17.3298 11.7895C18.0982 12.5087 18.9562 13.3112 19.8143 14.1137C21.5303 15.7187 23.2464 17.3237 24.2457 18.2625C25.7447 19.6707 27.3346 21.1583 27.7888 21.5671C28.2317 21.976 29.4695 23.1229 30.5257 24.1223C31.5704 25.1103 33.535 26.95 34.8751 28.1991C35.1431 28.449 35.4212 28.708 35.6993 28.967L35.7007 28.9683L36.1164 29.3555C37.08 30.2532 37.9823 31.0952 38.3955 31.4924C38.6954 31.775 39.2472 32.292 39.8888 32.893C40.5104 33.4754 41.2164 34.1367 41.8591 34.7403C45.0729 37.727 51.1485 43.405 54.385 46.4599C55.8499 47.8226 57.065 48.9241 57.0877 48.8901C57.1218 48.856 56.7016 47.2548 56.1679 45.3242C55.6228 43.405 54.9301 40.9521 54.6348 39.896C54.3396 38.8285 53.6014 36.2052 52.9882 34.0476C52.3863 31.8899 51.8298 30.0729 51.7617 29.9934C51.6822 29.9253 49.5018 28.6307 46.9126 27.1203L41.4617 23.9406ZM135.945 14.6853C139.727 11.1876 143.145 8.00786 143.554 7.62175C143.962 7.23564 144.269 6.91766 144.235 6.91766C144.201 6.91766 141.169 8.65515 137.478 10.7788C125.145 17.8991 111.041 26.0301 107.157 28.2559C105.601 29.1531 104.261 29.9366 104.182 30.0048C104.102 30.0729 103.762 31.129 103.421 32.3441C102.728 34.8652 100.412 43.0984 99.662 45.7444C99.3895 46.7097 99.0602 47.8794 98.9352 48.345L98.7081 49.1853L98.9466 48.9696C99.1737 48.7765 106.68 41.8265 110.405 38.3743C111.245 37.5907 112.551 36.3756 113.289 35.6942C114.039 35.0015 115.413 33.7296 116.356 32.8438C116.978 32.2596 117.656 31.6348 118.139 31.1896L118.144 31.1846C118.382 30.9658 118.571 30.7909 118.684 30.6861C119.024 30.3795 120.103 29.3915 121.068 28.483C122.034 27.5746 123.465 26.2459 124.248 25.5304C125.032 24.815 126.44 23.509 127.371 22.6346C127.546 22.4727 127.82 22.218 128.175 21.8884L128.179 21.8847L128.185 21.8793C129.75 20.4259 132.87 17.5293 135.945 14.6853ZM75.1781 32.5485C75.9958 30.0615 76.6658 27.9834 76.6658 27.9152C76.6658 27.8585 76.5976 27.813 76.5295 27.813C76.497 27.8177 76.2538 27.8451 75.8704 27.8883C75.3162 27.9508 74.4692 28.0463 73.5428 28.1537C72.962 28.2173 72.2482 28.2967 71.5037 28.3796C70.254 28.5186 68.9177 28.6673 67.9783 28.7669C64.8554 29.1076 62.4592 29.3688 58.0644 29.8458C56.3496 30.0388 54.8052 30.1865 54.6348 30.1865C54.4531 30.1865 54.2828 30.2319 54.2487 30.2887C54.2146 30.3455 54.5326 31.6287 54.9641 33.1504C55.3957 34.6721 56.1679 37.3976 56.6676 39.2146C57.1786 41.0203 58.1666 44.5179 58.8593 46.9709L60.1198 51.4225L64.5601 51.3998L68.989 51.3657L69.1253 50.9683C69.2048 50.7525 69.8066 48.9355 70.4653 46.9368C72.2106 41.581 73.2425 38.4402 74.3732 34.999L74.3754 34.9923L74.3832 34.9685L74.5743 34.3868L74.8813 33.4522C74.9786 33.1561 75.0774 32.8553 75.1781 32.5485ZM101.752 30.2546C101.729 30.2433 100.23 30.0615 98.4129 29.8685C97.4244 29.7566 96.1092 29.6106 94.8399 29.4698C93.7906 29.3534 92.7727 29.2404 91.9966 29.1531C90.2344 28.9593 88.8794 28.8097 87.7993 28.6904L87.4564 28.6525L87.3529 28.641L87.243 28.6289L87.2412 28.6287L87.2313 28.6276L87.2142 28.6257L87.2055 28.6248C85.2748 28.4114 84.314 28.3053 83.3091 28.1991C82.6803 28.1338 81.9221 28.045 81.3601 27.9791C81.1406 27.9534 80.9511 27.9312 80.8108 27.9152L80.74 27.9061C79.9915 27.8097 79.7809 27.7826 79.7483 27.8464C79.7356 27.8714 79.7501 27.9102 79.7703 27.9644L79.771 27.9661L79.7726 27.9706L79.7774 27.9834C79.8455 28.1651 81.2991 32.9687 84.9558 45.1766C85.9097 48.3336 86.716 50.9455 86.7614 50.991C86.7955 51.025 88.6238 51.1386 90.8042 51.2408C92.996 51.343 94.9946 51.4566 95.2558 51.4906C95.6874 51.5474 95.7555 51.5134 95.8577 51.2862C95.9145 51.1386 96.4823 49.1853 97.1069 46.9368C97.528 45.448 98.0041 43.7442 98.3666 42.4469L98.3732 42.4233C98.5551 41.7721 98.708 41.225 98.8103 40.8613C99.7983 37.3295 101.082 32.7757 101.445 31.5151C101.627 30.8338 101.774 30.2773 101.752 30.2546ZM84.8309 52.1266L84.2517 50.2188C84.0066 49.3745 83.0286 46.1211 81.9035 42.3785C81.6212 41.4392 81.3295 40.4691 81.0379 39.4985C79.573 34.6608 78.3351 30.5839 78.2897 30.4363C78.2752 30.398 78.2717 30.337 78.2687 30.284C78.2656 30.2293 78.263 30.1833 78.2493 30.1797C78.1804 30.1617 77.8314 31.2156 75.7334 37.6371C75.5935 38.0652 75.4459 38.5172 75.2901 38.9943L75.2897 38.9953L75.2837 39.0138C74.8097 40.4647 74.26 42.1474 73.6223 44.0978C72.5549 47.3456 71.4987 50.5821 71.2716 51.2862L70.8628 52.5581L71.6009 55.7151C71.7613 56.3922 71.9671 57.2545 72.184 58.1636L72.1848 58.167L72.1876 58.1786C72.5228 59.5829 72.884 61.0968 73.1454 62.2109C73.5883 64.0506 74.0539 65.9925 74.1674 66.5262C74.2923 67.06 74.6444 68.5363 74.951 69.8195C75.1895 70.8188 75.4592 71.9516 75.8638 73.6508C76.2683 75.35 76.8077 77.6155 77.5856 80.8804C77.756 81.6186 77.9263 82.2431 77.949 82.2659C77.9717 82.2886 78.0512 82.016 78.1307 81.664C78.2102 81.3006 78.7326 78.9839 79.3004 76.5196C79.5565 75.3858 79.8173 74.2327 80.0387 73.254C80.2985 72.1055 80.504 71.1972 80.5837 70.8416C80.6039 70.7514 80.6279 70.6441 80.6551 70.5227C80.8266 69.7564 81.1238 68.4285 81.3786 67.3211C81.6334 66.2138 81.9306 64.8859 82.1021 64.1196L82.1318 63.9871L82.1735 63.8007C82.3212 63.1421 82.9798 60.2463 83.6385 57.3731L84.8309 52.1266ZM95.4375 53.6256L93.0641 53.4893C91.7581 53.4098 89.7935 53.319 88.7033 53.2849L86.716 53.2054L86.1028 55.9763C85.7358 57.62 85.4409 58.9241 85.1037 60.4151L85.1001 60.4307C84.9375 61.1499 84.7649 61.9129 84.5697 62.7787C84.4675 63.1875 84.1836 64.4367 83.9337 65.5609C83.7147 66.5464 83.3911 67.9594 83.1692 68.928C83.1379 69.0645 83.1087 69.1921 83.082 69.3085C82.8663 70.2397 82.1962 73.1809 81.5944 75.8383C81.0038 78.4956 80.2089 82.0047 79.8342 83.64C79.4708 85.2753 79.1641 86.6948 79.1641 86.797C79.1641 86.8992 79.7433 87.6827 80.4474 88.5345L81.1397 89.3859L81.1464 89.3942L81.1678 89.4205C83.1113 91.8108 85.4288 94.6611 90.4522 100.845C90.8951 101.378 91.2698 101.81 91.2812 101.798C91.3135 101.777 91.3869 100.915 91.8122 95.9191L91.8831 95.087C91.9253 94.5994 91.9727 94.0405 92.0209 93.472L92.0215 93.4656C92.1157 92.3548 92.213 91.2079 92.2805 90.4877C92.5108 87.7945 92.7022 85.5759 92.8692 83.6403L92.8704 83.6265L92.8708 83.6222L92.8719 83.6097L92.8725 83.6026L92.8745 83.5793L92.8751 83.5727C93.1088 80.8637 93.2947 78.7085 93.4729 76.5764C93.6202 74.8426 93.799 72.7772 93.9746 70.7502C94.0968 69.3387 94.2174 67.9459 94.3246 66.6966C94.4155 65.5723 94.5972 63.4714 94.7221 62.0405C94.7643 61.553 94.8118 60.994 94.86 60.4255L94.8605 60.4192C94.9548 59.3083 95.0521 58.1614 95.1196 57.4413C95.1873 56.7189 95.255 55.9019 95.3062 55.2841C95.3323 54.9695 95.3541 54.7065 95.3694 54.5341L95.4375 53.6256ZM70.5902 60.7346C70.1814 59.0198 69.6363 56.7031 69.3751 55.5902L68.8982 53.5802H64.6623H60.4151L60.4832 54.1139C60.54 54.7158 60.699 56.6463 60.8807 59.0879L60.9039 59.3847L60.9041 59.388C60.9806 60.3683 61.1194 62.1451 61.2214 63.5736C61.6948 69.6599 61.9668 73.2629 62.5593 81.1106L62.56 81.1198L62.5728 81.2892L62.6379 82.1203C62.8052 84.2568 62.9514 86.1241 62.9816 86.4563C63.0114 86.7837 63.1105 88.073 63.2183 89.4764L63.2186 89.4797L63.2655 90.0903C63.3345 91.0047 63.4025 91.9128 63.4713 92.8325L63.4718 92.8391L63.4721 92.8434L63.4728 92.8522L63.4732 92.8579L63.474 92.869C63.6309 94.9645 63.7923 97.1212 63.9809 99.5499C64.0718 100.629 64.1626 101.526 64.1853 101.56C64.2194 101.583 65.162 100.527 66.2749 99.1979C67.3991 97.8806 69.1139 95.8706 70.0792 94.7349C72.5321 91.8732 76.1434 87.6373 76.4954 87.2058L76.8021 86.8538L76.5068 85.6273C76.4666 85.4578 76.4155 85.2403 76.3573 84.9929C76.1855 84.2623 75.9524 83.2706 75.7573 82.4816C75.5075 81.4142 75.1554 79.9151 74.9624 79.1316C74.599 77.5758 74.4059 76.7581 73.3725 72.4314C73.1421 71.4606 72.9196 70.5227 72.7041 69.6143L72.7037 69.6127C71.9212 66.3138 71.2313 63.4055 70.5902 60.7346ZM55.9976 64.5389C57.19 58.0432 57.8259 54.6477 57.8827 54.4546C57.9508 54.2388 57.8713 54.2275 57.5306 54.3751C57.4156 54.4378 56.3478 54.8856 55.0802 55.417L54.7484 55.5562C52.5112 56.4874 47.4009 58.6223 40.1557 61.6658C38.9747 62.1654 37.9526 62.6083 37.9072 62.6538C37.8618 62.6992 38.2251 64.1641 38.7248 65.913C38.931 66.6467 39.2486 67.7671 39.6108 69.0452L39.6142 69.057C40.1091 70.803 40.6868 72.8413 41.1777 74.5891C43.801 83.8898 45.3114 89.2158 45.8111 90.9533L46.2767 92.6227L48.1618 92.8725C49.1952 93.0088 50.1718 93.1451 50.3308 93.1791C50.3364 93.1802 50.3418 93.1813 50.3471 93.1824C50.3508 93.1832 50.3543 93.184 50.3578 93.1848C50.3619 93.1857 50.3659 93.1866 50.3698 93.1875C50.3756 93.1889 50.3817 93.1904 50.3873 93.1917C50.4284 93.2017 50.4636 93.2102 50.4962 93.2042C50.6884 93.1688 50.7874 92.6272 51.4718 88.8858L51.521 88.6168C51.5545 88.4339 51.5892 88.2438 51.6254 88.0462C52.0342 85.7976 52.4204 83.7308 52.4771 83.4469C52.5339 83.163 52.6816 82.3681 52.8065 81.6867C52.9068 81.1301 53.0806 80.2141 53.2274 79.4397L53.281 79.1572C53.2976 79.0697 53.3136 78.9852 53.3289 78.9044C53.6922 76.9058 54.578 72.1362 54.8619 70.6144C54.943 70.1872 55.0861 69.416 55.2356 68.6106C55.3165 68.1744 55.3994 67.7281 55.4752 67.3211C55.5856 66.7282 55.702 66.1114 55.7985 65.6003L55.7997 65.5937L55.8 65.5923C55.8913 65.1087 55.9645 64.7208 55.9976 64.5389ZM102.785 56.4533C101.127 55.7265 99.4236 54.9997 98.992 54.818C98.5605 54.6363 98.1744 54.4887 98.129 54.4887C98.0835 54.4887 98.0949 54.7271 98.1517 55.0224C98.2025 55.3 98.3206 55.9412 98.4639 56.7187L98.4672 56.7366L98.4675 56.7379C98.7399 58.2163 99.1015 60.1782 99.2646 61.0752C99.3286 61.4464 99.4466 62.0844 99.5761 62.784L99.577 62.7884L99.5773 62.7904L99.5777 62.7927L99.5798 62.8038C99.6791 63.34 99.7848 63.9112 99.8778 64.4253C99.9709 64.9347 100.091 65.5857 100.216 66.257L100.217 66.2627C100.38 67.146 100.55 68.064 100.673 68.7407C101.229 71.7792 101.604 73.8126 101.916 75.5054L101.918 75.5148C102.211 77.1009 102.448 78.3894 102.728 79.9265C102.871 80.7005 103.023 81.5307 103.164 82.3001L103.165 82.3058C103.371 83.4304 103.554 84.4246 103.648 84.9232C104.477 89.3975 105.17 93.2246 105.17 93.3268C105.17 93.3949 105.34 93.4176 105.601 93.3836C105.828 93.3495 106.816 93.2132 107.782 93.0883C108.747 92.9634 109.565 92.8385 109.587 92.8158C109.61 92.793 110.28 90.4877 111.075 87.6828C115.39 72.5336 117.889 63.7099 117.957 63.4033L118.025 63.0512L115.084 61.7907C114.028 61.3299 112.486 60.6599 111.057 60.0386C110.302 59.7106 109.578 59.3962 108.974 59.1333C107.933 58.6871 106.525 58.0757 105.207 57.5031L105.201 57.5008C104.307 57.1125 103.454 56.7422 102.785 56.4533ZM103.228 94.4056L102.558 90.7716C102.35 89.662 102.016 87.8453 101.657 85.8929L101.655 85.8856C101.368 84.3234 101.065 82.6749 100.798 81.2325C100.436 79.28 100.033 77.0894 99.7075 75.3196L99.7057 75.31L99.7023 75.2917L99.7009 75.2838L99.6994 75.2755C99.487 74.1207 99.3082 73.1488 99.1964 72.545C99.0588 71.8018 98.8945 70.9039 98.7372 70.044C98.5699 69.1299 98.4105 68.2587 98.2993 67.6618C98.1979 67.1177 98.0665 66.4005 97.932 65.6671L97.9318 65.6655C97.7801 64.8382 97.6247 63.9903 97.5044 63.3465C97.2886 62.1314 97.0842 61.0525 97.0615 60.9617C97.0047 60.6778 96.8911 61.4954 96.7776 63.0626C96.7094 63.8689 96.5504 65.7426 96.4255 67.2076C96.2605 69.0778 96.1163 70.769 95.9727 72.4526L95.9726 72.4539C95.8791 73.5505 95.7859 74.6439 95.6874 75.7815C95.5421 77.4889 95.3991 79.1465 95.2651 80.7012C95.1058 82.5485 94.959 84.2505 94.8357 85.7181C94.7107 87.1831 94.5063 89.5565 94.3814 90.9988C94.2201 92.8669 94.1413 93.7953 93.9029 96.6041C93.8225 97.5517 93.7239 98.7133 93.5978 100.197C93.4729 101.628 93.3821 102.809 93.4048 102.832C93.4275 102.855 94.7902 102.298 96.4369 101.605C98.0835 100.913 99.5144 100.322 99.6053 100.288C99.7075 100.265 100.014 99.8452 100.298 99.3683C100.406 99.1869 100.584 98.8841 100.801 98.5167L100.802 98.5155L100.804 98.5109L100.809 98.5031C101.161 97.906 101.612 97.1413 102.024 96.4497L103.228 94.4056ZM59.7451 71.9772C59.6883 71.2617 59.5066 68.911 59.3476 66.7533C58.9502 61.4159 58.8934 60.8481 58.8025 61.1888C58.7458 61.4386 58.5754 62.3017 58.3256 63.6872C58.2915 63.9029 58.0303 65.3111 57.7464 66.8101C57.5695 67.7832 57.3112 69.1679 57.0741 70.4391C56.9459 71.1262 56.824 71.78 56.7243 72.3179C56.6028 72.9744 56.4791 73.6497 56.3703 74.2439L56.3701 74.2451L56.3695 74.248C56.2246 75.0393 56.1062 75.6861 56.0543 75.9518C55.9869 76.2973 55.8445 77.0618 55.6966 77.8555L55.6963 77.8572C55.645 78.1325 55.593 78.4113 55.5433 78.6773C55.1758 80.6424 54.9601 81.8096 54.6668 83.3964L54.6664 83.3985C54.5429 84.0669 54.4056 84.8098 54.2373 85.7181C53.2494 90.9647 52.92 92.8158 52.7951 93.5539L52.6816 94.2921L53.238 95.2573C53.556 95.7911 54.3055 97.1084 54.9074 98.1872C55.5206 99.2547 56.077 100.175 56.1338 100.209C56.2928 100.311 62.0618 102.73 62.0958 102.707C62.0958 102.707 62.039 101.776 61.9482 100.652C61.8687 99.5272 61.6983 97.2787 61.5734 95.6548C61.49 94.5697 61.3457 92.7038 61.2015 90.8397C61.1299 89.914 61.0583 88.9887 60.9943 88.1597C60.8126 85.6614 60.6082 83.004 60.54 82.2545C60.4914 81.7191 60.3905 80.3782 60.2789 78.8942L60.2788 78.8917L60.2786 78.8898C60.2341 78.2977 60.1879 77.6829 60.1426 77.0875C60.1083 76.637 60.0735 76.1764 60.0393 75.724L60.0389 75.7196L60.0386 75.7149L60.0384 75.7125C59.9143 74.0707 59.7984 72.5371 59.7451 71.9772ZM43.7102 91.7142C43.7556 91.7028 43.6193 91.0101 43.3808 90.2038C43.2094 89.5972 42.859 88.359 42.3941 86.716L42.392 86.7085C41.2553 82.6916 39.4357 76.2613 37.8731 70.728C36.8397 67.0713 35.988 64.0506 35.9766 64.0051C35.9653 63.9597 35.0341 64.6752 33.9098 65.5836C33.644 65.8001 33.3367 66.0502 32.983 66.3382L32.9754 66.3444C30.9707 67.9766 27.4784 70.8201 21.5884 75.6112C21.1953 75.9302 20.676 76.3529 20.1218 76.804L20.1209 76.8048L20.1047 76.818L20.0947 76.8261C19.2955 77.4766 18.427 78.1836 17.7613 78.7227C16.6144 79.654 15.6831 80.4375 15.6831 80.4829C15.6831 80.5852 43.5853 91.771 43.7102 91.7142ZM130.721 72.5336C129.688 71.7387 126.883 69.581 124.475 67.73C122.068 65.8789 120.069 64.3685 120.024 64.3685C119.978 64.3685 119.921 64.4594 119.887 64.5616C119.872 64.6126 119.534 65.8001 118.988 67.721L118.979 67.7511L118.96 67.8198C118.29 70.1767 117.316 73.5995 116.242 77.3714C115.26 80.8153 114.339 84.0515 113.643 86.4967C112.94 88.9699 112.467 90.6339 112.392 90.8852C112.245 91.3849 112.165 91.805 112.211 91.8278C112.29 91.8618 115.152 90.6581 125.895 86.1156C126.863 85.704 128.119 85.1729 129.332 84.66L129.333 84.6596L129.341 84.6563L129.349 84.653C130.405 84.2063 131.427 83.7739 132.197 83.4469C139.079 80.5397 140.317 80.006 140.351 79.9833C140.363 79.9719 138.625 78.6092 136.49 76.9739C135.022 75.8473 133.346 74.5559 132.103 73.598L132.07 73.5724L132.064 73.5678L132.06 73.5648C131.801 73.3653 131.561 73.1802 131.347 73.0153C131.102 72.8269 130.891 72.6641 130.721 72.5336ZM146.836 101.73C145.268 95.5639 143.679 89.3067 142.679 85.3547C142.248 83.674 141.873 82.3113 141.827 82.3113C141.782 82.3113 141.714 82.3681 141.68 82.4249C141.634 82.493 141.01 83.0949 140.272 83.7649C139 84.9232 135.888 87.8077 130.267 93.0429C129.551 93.7072 128.637 94.5566 127.749 95.3834L127.745 95.3864L127.732 95.3988L127.728 95.4022L127.69 95.4375C126.852 96.217 126.04 96.9723 125.441 97.5286C124.191 98.6755 122.885 99.8793 122.545 100.209C122.204 100.527 121.716 100.969 121.477 101.185L121.034 101.571L122.726 102.321C123.058 102.466 123.888 102.833 125.048 103.346L125.063 103.352L125.071 103.356C127.169 104.283 130.332 105.681 133.56 107.102C136.585 108.433 139.869 109.884 142.438 111.019C144.142 111.772 145.532 112.386 146.325 112.734C148.323 113.62 149.97 114.324 149.981 114.302C150.004 114.279 149.584 112.564 149.05 110.475C148.788 109.426 148.403 107.912 147.998 106.32L147.996 106.312C147.595 104.734 147.174 103.08 146.836 101.73ZM23.3486 91.0555C23.0192 90.7716 22.0994 89.954 21.2931 89.2272C20.6883 88.682 19.4508 87.5809 18.2135 86.4799L18.1992 86.4672C17.7918 86.1046 17.3847 85.7423 17.0005 85.4002C15.4447 84.0147 14.1387 82.8791 14.0819 82.8791C14.0365 82.8791 13.9343 83.0949 13.8662 83.3561C13.7853 83.6648 13.495 84.6971 12.9614 86.5945C12.6708 87.6279 12.3079 88.918 11.8675 90.4877C11.5154 91.7028 11.0044 93.5198 10.7319 94.5192C10.5219 95.2581 10.2189 96.3322 9.96504 97.2321L9.96409 97.2355L9.9631 97.2389L9.96101 97.2464L9.95993 97.2502C9.87239 97.5605 9.79083 97.8496 9.72116 98.0964C9.43029 99.1297 9.09042 100.336 8.72413 101.636C8.00355 104.193 7.18077 107.113 6.42787 109.793C5.82599 111.951 5.29225 113.847 5.23547 114.018C5.17869 114.199 5.17869 114.336 5.23547 114.336C5.28089 114.336 10.8908 112.019 17.6932 109.18C34.7502 102.071 35.0114 101.957 35.1817 101.855C35.2953 101.798 34.7956 101.287 33.4328 100.072C32.9021 99.5992 32.2921 99.0529 31.74 98.5583L31.7373 98.5559L31.7311 98.5503L31.7263 98.546L31.7232 98.5433C31.1954 98.0704 30.722 97.6463 30.4235 97.3809C29.8102 96.8245 29.0266 96.1317 28.6973 95.8478C28.3566 95.5526 27.1529 94.4737 26.0173 93.4403C24.8703 92.4069 23.6779 91.3394 23.3486 91.0555ZM125.497 94.576C129.688 90.7035 133.254 87.3875 134.128 86.5699C134.395 86.3182 134.801 85.941 135.19 85.5799C135.398 85.3871 135.601 85.1989 135.775 85.0368C136.186 84.6626 136.621 84.2576 136.85 84.044L136.852 84.0425C136.9 83.9974 136.939 83.961 136.967 83.9352C137.115 83.7989 137.194 83.674 137.137 83.6854C136.99 83.6967 112.574 94.0649 112.494 94.1444C112.438 94.2012 114.959 96.5974 118.048 99.4364L119.172 100.47L120.841 98.914C121.531 98.2676 122.907 96.9867 124.25 95.7366L124.258 95.7297C124.682 95.3349 125.103 94.9434 125.497 94.576ZM43.642 94.0422L31.6159 89.2386C25.0066 86.5926 19.4307 84.3554 19.2376 84.2759C19.0332 84.1964 18.8629 84.151 18.8629 84.1737C18.8629 84.1964 20.6572 85.8203 22.8602 87.785C25.0633 89.7382 28.7995 93.0769 31.173 95.2005C33.5464 97.3242 35.8858 99.4137 36.3854 99.8452L37.2826 100.629L38.4409 99.4478C38.529 99.3565 38.6247 99.2573 38.7259 99.1525C39.3422 98.5142 40.1595 97.6676 40.6667 97.1311C41.2572 96.5065 42.1657 95.5526 42.6881 95.0189L43.642 94.0422ZM76.7226 120.865L76.8021 108.998C76.8475 102.468 76.8816 95.5639 76.8588 93.6447L76.8361 90.1698L75.7914 91.3735C75.4598 91.7648 74.7022 92.6517 73.8014 93.7064C73.1595 94.4579 72.445 95.2945 71.7599 96.0977C70.6632 97.3835 69.2744 99.0168 68.1234 100.37C67.5463 101.049 67.0289 101.658 66.6383 102.116C64.7305 104.354 64.5033 104.66 64.5488 104.967C64.5715 105.149 64.8894 106.534 65.2528 108.033C65.6162 109.532 66.0023 111.167 66.1159 111.667C66.2295 112.167 66.6837 114.086 67.1266 115.926C67.3155 116.731 67.5327 117.645 67.7382 118.51C68.0021 119.621 68.2467 120.65 68.3871 121.263C68.6483 122.353 68.8868 123.284 68.9322 123.33C68.9663 123.375 70.7379 122.841 72.8615 122.137L76.7226 120.865ZM82.7413 94.7463C82.1168 93.9854 81.072 92.7022 80.4247 91.8959C79.766 91.0896 79.1982 90.3855 79.1528 90.3287C79.0165 90.1811 78.9938 93.1451 78.9597 107.885L78.937 120.9L79.7547 121.183C86.2163 123.387 87.0453 123.648 87.1135 123.534C87.1589 123.466 87.3292 122.705 87.5109 121.853C87.6813 121.002 87.9879 119.48 88.2037 118.481C88.2626 118.193 88.364 117.699 88.4944 117.066L88.4953 117.061C88.8169 115.498 89.3139 113.082 89.7822 110.781L90.9973 104.91L89.8162 103.456C89.1803 102.662 87.9425 101.14 87.0794 100.084C86.7133 99.631 86.3085 99.1333 85.9298 98.6678L85.9287 98.6664C85.4149 98.0349 84.9495 97.4627 84.6946 97.1424C84.5379 96.9505 84.3312 96.6964 84.1021 96.4147L84.0943 96.4051L84.092 96.4024C83.6589 95.8699 83.1474 95.2409 82.7413 94.7463ZM50.8646 95.5299C50.7851 95.4617 50.0583 95.3141 49.2406 95.2005C48.4343 95.0983 47.6735 94.9848 47.5713 94.9507C47.4577 94.928 47.3669 94.928 47.3669 94.9507C47.3669 95.0756 49.5472 99.1866 49.6722 99.3001C49.7517 99.3683 50.4785 99.4932 51.2847 99.5613C52.1024 99.6408 52.8746 99.7317 53.0222 99.7657C53.1585 99.7998 53.2721 99.7771 53.2721 99.7089C53.2721 99.5613 51.0463 95.7002 50.8646 95.5299ZM105.953 99.2433C106.09 99.1752 108.134 95.7456 108.315 95.28C108.349 95.1892 108.281 95.1438 108.111 95.1551C107.532 95.1892 105.056 95.5639 104.999 95.6207C104.897 95.7229 102.592 99.6294 102.615 99.6635C102.649 99.7089 105.794 99.3228 105.953 99.2433ZM48.423 101.276C48.1845 101.128 47.7303 100.356 46.6968 98.3689C45.9246 96.8699 45.2546 95.6094 45.2092 95.5639C45.1638 95.5072 43.7102 96.9608 41.9727 98.7777C40.2465 100.595 38.8384 102.094 38.8611 102.116C38.8838 102.128 41.9727 105.035 45.7089 108.555L46.5755 109.371C54.1769 116.52 54.8394 117.143 54.9844 117.04C54.9983 117.03 55.0074 117.014 55.0174 116.996C55.022 116.987 55.0268 116.979 55.0323 116.97C55.1118 116.868 55.6909 115.835 56.3382 114.676C56.8024 113.831 57.7142 112.199 58.619 110.58C58.6204 110.577 58.6218 110.575 58.6233 110.572C58.9566 109.976 59.289 109.381 59.5975 108.828L59.7267 108.595L59.9202 108.246C60.9181 106.449 61.6994 105.041 61.7097 104.99C61.7438 104.876 56.7357 102.707 55.6569 102.366C55.1913 102.219 54.2941 102.037 53.6695 101.969C53.1457 101.902 52.4143 101.82 51.8971 101.761L51.8761 101.759L51.8628 101.757L51.8428 101.755C51.7641 101.746 51.6911 101.738 51.6254 101.73C51.1258 101.674 50.274 101.594 49.7289 101.549C49.1044 101.503 48.6274 101.401 48.423 101.276ZM117.014 101.39C116.696 101.106 115.175 99.6976 113.63 98.2667C112.097 96.8245 110.791 95.6434 110.746 95.6207C110.689 95.6094 109.951 96.8245 109.099 98.3235C108.236 99.8225 107.43 101.128 107.293 101.208C107.089 101.344 104.84 101.662 101.536 102.026C101.104 102.082 99.8437 102.548 97.3908 103.57C95.4603 104.388 93.8363 105.08 93.7909 105.126C93.7455 105.16 93.9272 105.557 94.1997 105.989C94.4723 106.432 95.4489 108.056 96.3687 109.623C99.9119 115.619 100.877 117.186 100.968 117.152C101.059 117.118 103.217 115.165 105.965 112.621L106.123 112.475L106.373 112.245L106.377 112.241L106.379 112.239C107.209 111.476 108.56 110.233 109.655 109.214C109.922 108.969 110.228 108.686 110.561 108.379L110.619 108.326C111.926 107.12 113.614 105.563 114.811 104.456L117.582 101.901L117.014 101.39ZM148.596 116.085C148.289 115.937 146.461 115.131 144.519 114.279C144.227 114.15 143.898 114.005 143.542 113.848L143.507 113.832L143.502 113.831L143.5 113.83C141.506 112.95 138.683 111.705 136.683 110.815C135.57 110.325 134.205 109.72 132.868 109.128L132.867 109.128L132.866 109.127C131.353 108.457 129.878 107.804 128.847 107.352C128.024 106.988 127.072 106.569 126.151 106.164L126.147 106.162L126.145 106.161C124.91 105.617 123.733 105.099 122.999 104.774C121.716 104.206 120.455 103.65 120.183 103.536L119.694 103.32L119.535 103.695C119.494 103.795 118.542 106.013 117.056 109.475L117.024 109.55L116.996 109.616C115.61 112.845 113.772 117.128 111.779 121.774C107.6 131.518 104.148 139.615 104.091 139.762C104.011 140.035 104.5 139.796 109.655 137.105C110.28 136.775 111.631 136.071 112.665 135.549C117.662 132.971 121.193 131.131 122.999 130.178C124.089 129.598 127.292 127.906 130.097 126.43C132.913 124.942 135.491 123.58 135.831 123.398C136.042 123.279 137.323 122.6 139.094 121.663L139.096 121.662L139.111 121.653C140.203 121.075 141.479 120.399 142.804 119.696L149.164 116.334L148.596 116.085ZM38.1684 106.954C37.5665 105.489 37.01 104.115 36.9305 103.911C36.8397 103.718 36.7488 103.547 36.7034 103.547C36.6693 103.559 35.4315 104.058 33.9666 104.672C31.4569 105.728 26.5169 107.795 12.2309 113.757C8.92623 115.131 6.20075 116.289 6.16668 116.323C6.13261 116.357 6.13261 116.403 6.15532 116.425C6.17054 116.44 6.95592 116.854 8.10129 117.456L8.10873 117.46C8.67071 117.755 9.31891 118.096 10.0051 118.458C13.0602 120.047 15.2147 121.177 18.5576 122.93L19.601 123.477C20.9751 124.193 22.7126 125.101 24.3138 125.953C31.0821 129.496 34.1823 131.097 42.2907 135.22C47.4691 137.854 51.739 140.001 51.7958 140.001C51.898 140.001 51.6822 139.49 49.2974 133.868C47.9347 130.666 43.4263 119.787 40.2693 112.064C39.9101 111.182 39.3731 109.879 38.8766 108.674L38.8713 108.661L38.8697 108.657C38.6153 108.04 38.3717 107.449 38.1684 106.954ZM110.28 119.934C113.437 112.587 116.049 106.477 116.094 106.364C116.14 106.25 116.163 106.159 116.151 106.159C116.117 106.159 108.1 113.541 107.157 114.438C105.363 116.141 101.263 119.855 101.093 119.923C100.366 120.23 99.9914 119.855 98.4696 117.288C98.3503 117.087 98.2146 116.859 98.0683 116.612L98.0666 116.609C97.4197 115.519 96.5635 114.077 95.9713 113.087C95.5709 112.407 95.071 111.567 94.6168 110.803L94.6144 110.799C94.2579 110.2 93.9296 109.649 93.7 109.259C93.1436 108.317 92.7121 107.704 92.6666 107.783C92.6212 107.863 92.2805 109.43 91.8944 111.27C91.5578 112.922 91.0837 115.216 90.7849 116.662L90.6907 117.118C89.8844 120.979 89.2598 124.011 89.1916 124.397C89.1349 124.738 89.3052 124.92 93.1436 128.713L93.7437 129.31C95.6772 131.233 97.2806 132.828 97.4249 132.983L97.7088 133.301H101.127H104.545L110.28 119.934ZM53.2153 118.526C52.3182 117.674 50.3763 115.846 47.3101 112.973C46.8104 112.496 45.0388 110.815 43.3695 109.237C41.6888 107.658 40.326 106.398 40.326 106.443C40.326 106.511 41.8023 110.088 44.0054 115.415C44.4688 116.523 45.3878 118.738 46.1681 120.62L46.4584 121.32C46.7298 121.974 47.0512 122.752 47.3878 123.566L47.3894 123.57C48.0803 125.241 48.8352 127.067 49.3542 128.304C50.0328 129.945 50.7205 131.622 50.9901 132.279L50.9914 132.282L51.069 132.472L51.3983 133.301H54.8392H58.2915L62.6182 128.917C65.9796 125.51 66.9449 124.465 66.9222 124.284C66.8995 124.147 66.3203 121.694 65.6389 118.821C64.9576 115.948 64.0945 112.292 63.7197 110.702C63.3336 109.112 62.993 107.715 62.9475 107.601C62.8908 107.454 61.9936 108.964 59.4725 113.484C57.5874 116.857 55.9521 119.662 55.7931 119.787C55.1799 120.275 54.9074 120.139 53.2153 118.526ZM86.5797 125.794C86.5229 125.749 84.5243 125.033 82.1167 124.227C79.7206 123.409 77.7446 122.739 77.7446 122.751C77.7333 122.796 76.6658 123.159 73.3725 124.227C71.2148 124.92 69.4433 125.499 69.4319 125.51C69.4092 125.533 69.6704 126.793 72.0211 137.786C72.5859 140.395 73.1282 142.926 73.2346 143.422L73.2353 143.426L73.2362 143.43L73.4179 144.316H78.0399H82.6505L82.889 143.203C83.7861 139.058 85.2624 132.278 86.205 127.974C86.4548 126.816 86.6251 125.839 86.5797 125.794ZM70.0792 138.865C69.5795 136.526 69.0912 134.277 69.0004 133.868C68.9596 133.685 68.8867 133.348 68.7983 132.939C68.6898 132.437 68.5577 131.826 68.4326 131.256C68.2168 130.223 67.9215 128.826 67.7739 128.156L67.5127 126.93L63.856 130.62C61.846 132.665 60.1993 134.368 60.1993 134.425C60.1993 134.482 60.9375 135.538 61.846 136.775C62.2464 137.326 62.8806 138.194 63.6077 139.19L63.6135 139.197L63.6188 139.205C64.5389 140.464 65.6062 141.925 66.5361 143.203C68.2054 145.497 69.6022 147.371 69.6477 147.382C69.6931 147.382 70.1133 146.882 70.5789 146.258L71.4306 145.145L71.2035 144.134C71.1278 143.797 70.9146 142.793 70.6472 141.534L70.6436 141.517L70.6387 141.494C70.4667 140.685 70.273 139.772 70.0792 138.865ZM95.9713 134.459L92.3259 130.893C90.3159 128.94 88.6465 127.327 88.5898 127.304C88.5443 127.293 88.4762 127.497 88.4308 127.759C88.3854 128.031 88.2491 128.679 88.1242 129.212C88.0755 129.441 87.9851 129.847 87.8754 130.34C87.729 130.998 87.5482 131.81 87.386 132.562C86.0233 138.854 84.7287 144.793 84.6605 145.009C84.6378 145.1 84.9558 145.667 85.3873 146.269L86.1595 147.359L86.4434 147.007C86.6024 146.803 87.7721 145.259 89.044 143.578C90.3159 141.886 91.7468 140.001 92.2237 139.376C92.5016 139.012 92.9682 138.398 93.4666 137.742L93.4702 137.737C93.8263 137.268 94.1983 136.779 94.529 136.344L95.9713 134.459ZM68.7732 149.926L63.4926 142.692L58.212 135.47L55.2253 135.458C52.409 135.458 52.25 135.47 52.3522 135.663C52.409 135.765 52.9995 137.184 53.6695 138.808L54.8846 141.761L62.9589 149.846L71.0445 157.943H77.8582H84.6719L92.7575 149.846L100.854 141.761L102.206 138.604L103.557 135.458L100.65 135.481L97.7542 135.515L95.2104 138.865C93.8136 140.705 91.3947 143.907 89.8389 145.974C87.4655 149.108 86.5116 150.267 84.0927 152.901C82.5029 154.65 80.9471 156.308 80.6404 156.603L80.084 157.148H78.0626C76.7339 157.137 75.939 157.092 75.7459 157.001C75.5756 156.921 73.9403 155.309 72.112 153.401L68.7732 149.926ZM84.7627 149.063L84.1836 148.223C83.9784 147.94 83.7468 147.604 83.5601 147.333C83.4473 147.169 83.3506 147.029 83.2864 146.939L82.9685 146.485L78.0285 146.474H73.0886L72.1347 147.746C71.6123 148.438 71.1807 149.074 71.1694 149.154C71.158 149.233 72.3845 150.573 73.8835 152.14L76.609 154.991H77.9945C79.3118 154.991 79.3799 154.979 79.5843 154.718C79.6979 154.571 80.913 153.242 82.2757 151.754L84.7627 149.063ZM79.4935 160.896C80.3111 160.442 80.9811 160.056 80.9811 160.033C80.9811 160.01 79.6297 159.988 77.9717 159.988C76.3138 159.988 74.9624 160.01 74.9624 160.033C74.9624 160.09 77.2449 161.373 77.6992 161.577C77.9717 161.702 78.1307 161.634 79.4935 160.896Z" fill="white"/>
<path d="M24.9952 14.3446C35.9766 20.7381 38.668 22.3053 41.4617 23.9406L46.9126 27.1203C49.5018 28.6307 51.6822 29.9253 51.7617 29.9934C51.8298 30.0729 52.3863 31.8899 52.9882 34.0476C53.6014 36.2052 54.3396 38.8285 54.6348 39.896C54.9301 40.9521 55.6228 43.405 56.1679 45.3242C56.7016 47.2548 57.1218 48.856 57.0877 48.8901C57.065 48.9241 55.8499 47.8226 54.385 46.4599C51.1485 43.405 45.0729 37.727 41.8591 34.7403C41.2164 34.1367 40.5104 33.4754 39.8888 32.893C39.2472 32.292 38.6954 31.775 38.3955 31.4924C37.9823 31.0952 37.08 30.2532 36.1164 29.3555L35.7007 28.9683L35.6993 28.967C35.4212 28.708 35.1431 28.449 34.8751 28.1991C33.535 26.95 31.5704 25.1103 30.5257 24.1223C29.4695 23.1229 28.2317 21.976 27.7888 21.5671C27.3346 21.1583 25.7447 19.6707 24.2457 18.2625C23.2464 17.3237 21.5303 15.7187 19.8143 14.1137C18.9562 13.3112 18.0982 12.5087 17.3298 11.7895C15.0245 9.63181 12.9009 7.65581 12.617 7.39462C12.3331 7.12207 12.14 6.90631 12.1854 6.90631C12.2309 6.90631 12.7646 7.20157 13.3778 7.56497L13.542 7.66287C14.651 8.32472 14.6687 8.33527 24.9952 14.3446Z" fill="#160835"/>
<path d="M143.554 7.62175C143.145 8.00786 139.727 11.1876 135.945 14.6853C132.87 17.5293 129.75 20.4259 128.185 21.8793L128.179 21.8847L128.175 21.8884C127.82 22.218 127.546 22.4727 127.371 22.6346C126.44 23.509 125.032 24.815 124.248 25.5304C123.465 26.2459 122.034 27.5746 121.068 28.483C120.103 29.3915 119.024 30.3795 118.684 30.6861C118.571 30.7909 118.382 30.9658 118.144 31.1846L118.139 31.1896C117.656 31.6348 116.978 32.2596 116.356 32.8438C115.413 33.7296 114.039 35.0015 113.289 35.6942C112.551 36.3756 111.245 37.5907 110.405 38.3743C106.68 41.8265 99.1737 48.7765 98.9466 48.9696L98.7081 49.1853L98.9352 48.345C99.0602 47.8794 99.3895 46.7097 99.662 45.7444C100.412 43.0984 102.728 34.8652 103.421 32.3441C103.762 31.129 104.102 30.0729 104.182 30.0048C104.261 29.9366 105.601 29.1531 107.157 28.2559C111.041 26.0301 125.145 17.8991 137.478 10.7788C141.169 8.65515 144.201 6.91766 144.235 6.91766C144.269 6.91766 143.962 7.23564 143.554 7.62175Z" fill="#160835"/>
<path d="M98.4129 29.8685C100.23 30.0615 101.729 30.2433 101.752 30.2546C101.774 30.2773 101.627 30.8338 101.445 31.5151C101.082 32.7757 99.7983 37.3295 98.8103 40.8613C98.708 41.225 98.5551 41.7721 98.3732 42.4233L98.3666 42.4469C98.0041 43.7442 97.528 45.448 97.1069 46.9368C96.4823 49.1853 95.9145 51.1386 95.8577 51.2862C95.7555 51.5134 95.6874 51.5474 95.2558 51.4906C94.9946 51.4566 92.996 51.343 90.8042 51.2408C88.6238 51.1386 86.7955 51.025 86.7614 50.991C86.716 50.9455 85.9097 48.3336 84.9558 45.1766C81.2991 32.9687 79.8455 28.1651 79.7774 27.9834L79.7726 27.9706L79.771 27.9661L79.7703 27.9644C79.7501 27.9102 79.7356 27.8714 79.7483 27.8464C79.7809 27.7826 79.9915 27.8097 80.74 27.9061L80.8108 27.9152C80.9511 27.9312 81.1406 27.9534 81.3601 27.9791C81.9221 28.045 82.6803 28.1338 83.3091 28.1991C84.314 28.3053 85.2748 28.4114 87.2055 28.6248L87.2142 28.6257L87.2313 28.6276L87.2412 28.6287L87.243 28.6289L87.3529 28.641L87.4564 28.6525L87.7993 28.6904C88.8794 28.8097 90.2344 28.9593 91.9966 29.1531C92.7727 29.2404 93.7906 29.3534 94.8399 29.4698C96.1092 29.6106 97.4244 29.7566 98.4129 29.8685Z" fill="#3F2A7C"/>
<path d="M76.6658 27.9152C76.6658 27.9834 75.9958 30.0615 75.1781 32.5485C75.0774 32.8553 74.9786 33.1561 74.8813 33.4522L74.5743 34.3868L74.3832 34.9685L74.3754 34.9923L74.3732 34.999C73.2425 38.4402 72.2106 41.581 70.4653 46.9368C69.8066 48.9355 69.2048 50.7525 69.1253 50.9683L68.989 51.3657L64.5601 51.3998L60.1198 51.4225L58.8593 46.9709C58.1666 44.5179 57.1786 41.0203 56.6676 39.2146C56.1679 37.3976 55.3957 34.6721 54.9641 33.1504C54.5326 31.6287 54.2146 30.3455 54.2487 30.2887C54.2828 30.2319 54.4531 30.1865 54.6348 30.1865C54.8052 30.1865 56.3496 30.0388 58.0644 29.8458C62.4592 29.3688 64.8554 29.1076 67.9783 28.7669C68.9177 28.6673 70.254 28.5186 71.5037 28.3796C72.2482 28.2967 72.962 28.2173 73.5428 28.1537C74.4692 28.0463 75.3162 27.9508 75.8704 27.8883C76.2538 27.8451 76.497 27.8177 76.5295 27.813C76.5976 27.813 76.6658 27.8585 76.6658 27.9152Z" fill="#3F2A7C"/>
<path d="M84.2517 50.2188L84.8309 52.1266L83.6385 57.3731C82.9798 60.2463 82.3212 63.1421 82.1735 63.8007L82.1318 63.9871L82.1021 64.1196C81.9306 64.8859 81.6334 66.2138 81.3786 67.3211C81.1238 68.4285 80.8266 69.7564 80.6551 70.5227C80.6279 70.6441 80.6039 70.7514 80.5837 70.8416C80.504 71.1972 80.2985 72.1055 80.0387 73.254C79.8173 74.2327 79.5565 75.3858 79.3004 76.5196C78.7326 78.9839 78.2102 81.3006 78.1307 81.664C78.0512 82.016 77.9717 82.2886 77.949 82.2659C77.9263 82.2431 77.756 81.6186 77.5856 80.8804C76.8077 77.6155 76.2683 75.35 75.8638 73.6508C75.4592 71.9516 75.1895 70.8188 74.951 69.8195C74.6444 68.5363 74.2923 67.06 74.1674 66.5262C74.0539 65.9925 73.5883 64.0506 73.1454 62.2109C72.884 61.0968 72.5228 59.5829 72.1876 58.1786L72.1848 58.167L72.184 58.1636C71.9671 57.2545 71.7613 56.3922 71.6009 55.7151L70.8628 52.5581L71.2716 51.2862C71.4987 50.5821 72.5549 47.3456 73.6223 44.0978C74.26 42.1474 74.8097 40.4647 75.2837 39.0138L75.2897 38.9953L75.2901 38.9943L75.7334 37.6371C77.8314 31.2156 78.1804 30.1617 78.2493 30.1797C78.263 30.1833 78.2656 30.2293 78.2687 30.284C78.2717 30.337 78.2752 30.398 78.2897 30.4363C78.3351 30.5839 79.573 34.6608 81.0379 39.4985C81.3295 40.4691 81.6212 41.4392 81.9035 42.3785C83.0286 46.1211 84.0066 49.3745 84.2517 50.2188Z" fill="#160835"/>
<path d="M9.0625 6.98581C9.55082 7.4287 16.2055 13.6519 18.6925 15.9913C19.8959 17.1195 21.7082 18.8134 23.2785 20.2812L23.2854 20.2877L24.1774 21.1215L24.4299 21.3575L24.8362 21.7375C30.6847 27.1998 33.6713 29.9934 35.3293 31.5492C36.3689 32.5255 37.1868 33.289 39.0434 35.0218C40.1886 36.0906 41.7289 37.5283 43.96 39.6121L44.5632 40.1743L44.5658 40.1767C46.2145 41.7132 47.8365 43.2249 48.3321 43.7003C49.8164 45.0967 50.7174 45.9381 52.1465 47.2724L52.1525 47.278C52.7558 47.8413 53.4532 48.4925 54.3282 49.3103C55.9976 50.8661 57.3376 52.1607 57.3035 52.1947C57.2808 52.2288 56.0657 52.7512 54.6121 53.3531C53.1585 53.9663 50.6942 54.9997 49.1271 55.647C47.5713 56.3057 44.2439 57.7025 41.7456 58.7472C39.2472 59.792 37.169 60.6664 37.1236 60.6891C37.0555 60.7346 36.2605 59.281 33.2284 53.5234C30.9345 49.174 22.5763 33.3321 21.5316 31.3789C21.2704 30.8792 20.271 28.9827 19.3171 27.1771L19.1933 26.9412L19.1918 26.9383C18.28 25.2016 17.3875 23.5015 17.1594 23.0889C16.7052 22.2485 13.5368 16.2297 10.6637 10.7674C9.72116 8.9845 8.83538 7.31512 8.68775 7.05394C8.26757 6.32715 8.3357 6.3158 9.0625 6.98581Z" fill="#3F2A7C"/>
<path d="M143.815 14.4922C142.111 17.6947 140.158 21.3514 139.477 22.6119C137.739 25.8371 134.9 31.1631 133.333 34.1043C132.606 35.4784 131.198 38.1131 130.21 39.9528C129.417 41.4365 128.547 43.0631 127.666 44.7122L127.658 44.7262C124.932 49.8256 122.092 55.1369 121.046 57.1006L120.874 57.4199L120.873 57.4212C119.167 60.5955 118.909 61.0752 118.843 61.0752C118.809 61.0752 117.219 60.3939 115.299 59.5535C114.279 59.1127 112.651 58.4053 110.89 57.6397C109.339 56.9657 107.684 56.2464 106.249 55.6243C103.194 54.2956 100.207 53.001 99.6166 52.7512L98.5605 52.2856L98.992 51.8881C99.4236 51.4906 103.864 47.3797 110.098 41.5881C111.768 40.0323 113.585 38.3516 114.13 37.8519C114.42 37.5858 114.884 37.1556 115.387 36.6898C115.828 36.2807 116.299 35.8441 116.708 35.4671C117.582 34.6494 119.615 32.7643 121.239 31.2653C122.148 30.4204 123.342 29.3122 124.469 28.2659L124.476 28.2591C124.864 27.8994 125.243 27.5471 125.6 27.2154C126.045 26.8025 126.455 26.4216 126.803 26.0983C127.444 25.5028 128.497 24.5263 129.721 23.3918L129.78 23.3371L129.803 23.3155L129.826 23.2943L129.876 23.2484C131.372 21.8615 133.102 20.2575 134.639 18.8303C137.512 16.1729 140.294 13.5951 140.828 13.0954C141.362 12.5958 142.793 11.2671 144.008 10.1428C145.223 9.01855 146.631 7.70123 147.131 7.22427C147.63 6.74731 148.051 6.37259 148.073 6.39529C148.107 6.418 147.858 6.94037 147.528 7.5536C147.371 7.84615 146.909 8.70984 146.283 9.88083C145.596 11.1645 144.712 12.8175 143.815 14.4922Z" fill="#3F2A7C"/>
<path d="M151.617 5.82748C151.685 6.39529 152.116 10.3245 152.582 14.5717C153.047 18.8189 153.479 22.7482 153.547 23.316C153.615 23.8724 153.717 24.7469 153.774 25.2465L153.876 26.155L151.605 36.0349C150.87 39.2308 150.178 42.2298 149.709 44.258C149.382 45.6747 149.165 46.6178 149.118 46.8233C149.065 47.0577 148.929 47.6424 148.751 48.4105C148.549 49.2791 148.292 50.3824 148.039 51.4793C147.689 53.0251 147.352 54.4811 147.182 55.2143L147.181 55.217L147.179 55.2263L147.145 55.3724C147.127 55.4516 147.112 55.518 147.1 55.5704L147.082 55.6477L147.074 55.6811C147.071 55.6965 147.067 55.7134 147.062 55.7316C147.059 55.7475 147.055 55.7643 147.051 55.7821L147.046 55.8031L147.039 55.831C147.026 55.8867 147.011 55.9496 146.994 56.018L146.994 56.0191C146.921 56.3235 146.822 56.7359 146.745 57.1006C146.62 57.6343 146.052 60.0873 145.484 62.5516C144.916 65.0158 144.349 67.4688 144.224 68.0025C144.099 68.5363 143.951 69.1722 143.894 69.422C143.885 69.4625 143.867 69.54 143.842 69.6491C143.815 69.7681 143.778 69.9247 143.735 70.1118C143.573 70.8105 143.313 71.9344 143.043 73.1128C142.032 77.5076 141.827 78.3366 141.771 78.3366C141.725 78.3366 140.726 77.5871 138.546 75.9064C138.137 75.5884 136.047 73.9759 133.89 72.3179C133.008 71.6417 132.054 70.9082 131.167 70.2257L131.158 70.2192C129.887 69.2422 128.754 68.3705 128.166 67.923C127.865 67.6908 127.537 67.4369 127.209 67.1832L127.196 67.1734L127.195 67.1724L127.182 67.1624C126.428 66.5794 125.678 65.9997 125.27 65.6859C125.101 65.556 124.877 65.3842 124.62 65.1882L124.618 65.1861C123.977 64.6964 123.137 64.0546 122.465 63.5282L120.728 62.1881L120.921 61.8361C120.983 61.6965 121.278 61.1487 121.651 60.4572L121.653 60.4532C121.825 60.1335 122.014 59.7833 122.204 59.4286C122.742 58.4427 123.812 56.4351 124.741 54.6923C124.872 54.4477 125 54.2083 125.123 53.9776C127.621 49.2875 131.993 41.1111 134.049 37.2841C134.98 35.5352 136.729 32.2646 137.932 30.0161C139.136 27.7676 141.112 24.0655 142.327 21.7829C143.388 19.7901 145.366 16.0921 147.008 13.024L147.065 12.9172L147.068 12.9112L147.699 11.7327C148.212 10.7717 148.655 9.94246 149.038 9.22708L149.055 9.19427L149.058 9.18852L149.062 9.18076L149.067 9.17244C151.261 5.06647 151.426 4.75711 151.45 4.76762C151.453 4.76926 151.454 4.7787 151.458 4.7827C151.48 4.79405 151.548 5.27103 151.617 5.82748Z" fill="#B22E72"/>
<path d="M7.62027 9.63179C9.01708 12.2891 10.289 14.708 10.4593 15.026C10.6297 15.3326 11.0839 16.207 11.4814 16.9565C11.8675 17.706 12.4126 18.7281 12.6738 19.2278C12.935 19.7274 13.8889 21.5104 14.7747 23.2024C15.6604 24.8831 16.6371 26.7228 16.9323 27.2906L16.9643 27.3509C17.293 27.9704 18.2339 29.7436 19.09 31.3789C19.9758 33.0596 20.9183 34.8539 21.1909 35.3535C21.4521 35.8532 21.9518 36.7958 22.2924 37.4544C22.6445 38.1131 23.8596 40.407 24.9952 42.5647C26.1308 44.7224 27.3686 47.0731 27.7434 47.7885C28.1295 48.504 28.5156 49.2421 28.6292 49.4352C28.7314 49.6169 29.2424 50.5935 29.7648 51.5928C30.2758 52.5922 30.8663 53.7165 31.0708 54.0912C32.2064 56.1921 35.1022 61.7225 35.1022 61.7907C35.1022 61.8247 33.9439 62.79 32.5243 63.9484C28.3339 67.3666 22.883 71.8068 21.4748 72.9425C20.7594 73.5216 18.8174 75.1001 17.1594 76.4515C15.5128 77.7915 14.1387 78.8817 14.1274 78.859C14.1166 78.8482 13.3691 75.5222 12.4288 71.3382L12.4279 71.3346L12.2763 70.6599C11.277 66.1742 9.35776 57.5662 8.01773 51.5361C6.66635 45.5059 4.92885 37.6929 4.14528 34.1611C3.35035 30.6294 2.56677 27.1203 2.39643 26.3481C2.22609 25.5759 2.11252 24.8377 2.12388 24.7014C2.14659 24.5652 2.351 23.1229 2.56677 21.499C2.79389 19.8751 3.14594 17.2972 3.3617 15.7641C3.57747 14.231 3.96358 11.4715 4.21342 9.63179C4.838 5.08932 4.9175 4.61237 5.00835 4.71457C5.05377 4.75999 6.22346 6.97444 7.62027 9.63179Z" fill="#B22E72"/>
<path d="M98.992 54.818C99.4236 54.9997 101.127 55.7265 102.785 56.4533C103.454 56.7422 104.307 57.1125 105.201 57.5008L105.207 57.5031C106.525 58.0757 107.933 58.6871 108.974 59.1333C109.578 59.3962 110.302 59.7106 111.057 60.0386C112.486 60.6599 114.028 61.3299 115.084 61.7907L118.025 63.0512L117.957 63.4033C117.889 63.7099 115.39 72.5336 111.075 87.6828C110.28 90.4877 109.61 92.793 109.587 92.8158C109.565 92.8385 108.747 92.9634 107.782 93.0883C106.816 93.2132 105.828 93.3495 105.601 93.3836C105.34 93.4176 105.17 93.3949 105.17 93.3268C105.17 93.2246 104.477 89.3975 103.648 84.9232C103.554 84.4246 103.371 83.4304 103.165 82.3058L103.164 82.3001C103.023 81.5307 102.871 80.7005 102.728 79.9265C102.448 78.3894 102.211 77.1009 101.918 75.5148L101.916 75.5054C101.604 73.8126 101.229 71.7792 100.673 68.7407C100.55 68.064 100.38 67.146 100.217 66.2627L100.216 66.257C100.091 65.5857 99.9709 64.9347 99.8778 64.4253C99.7848 63.9112 99.6791 63.34 99.5798 62.8038L99.5777 62.7927L99.5773 62.7904L99.577 62.7884L99.5761 62.784C99.4466 62.0844 99.3286 61.4464 99.2646 61.0752C99.1015 60.1782 98.7399 58.2163 98.4675 56.7379L98.4672 56.7366L98.4639 56.7187C98.3206 55.9412 98.2025 55.3 98.1517 55.0224C98.0949 54.7271 98.0835 54.4887 98.129 54.4887C98.1744 54.4887 98.5605 54.6363 98.992 54.818Z" fill="#160835"/>
<path d="M57.8827 54.4546C57.8259 54.6477 57.19 58.0432 55.9976 64.5389C55.9645 64.7208 55.8913 65.1087 55.8 65.5923L55.7997 65.5937L55.7985 65.6003C55.702 66.1114 55.5856 66.7282 55.4752 67.3211C55.3994 67.7281 55.3165 68.1744 55.2356 68.6106C55.0861 69.416 54.943 70.1872 54.8619 70.6144C54.578 72.1362 53.6922 76.9058 53.3289 78.9044C53.3136 78.9852 53.2976 79.0697 53.281 79.1572L53.2274 79.4397C53.0806 80.2141 52.9068 81.1301 52.8065 81.6867C52.6816 82.3681 52.5339 83.163 52.4771 83.4469C52.4204 83.7308 52.0342 85.7976 51.6254 88.0462C51.5892 88.2438 51.5545 88.4339 51.521 88.6168L51.4718 88.8858C50.7874 92.6272 50.6884 93.1688 50.4962 93.2042C50.4636 93.2102 50.4284 93.2017 50.3873 93.1917C50.3817 93.1904 50.3756 93.1889 50.3698 93.1875C50.3659 93.1866 50.3619 93.1857 50.3578 93.1848C50.3543 93.184 50.3508 93.1832 50.3471 93.1824C50.3418 93.1813 50.3364 93.1802 50.3308 93.1791C50.1718 93.1451 49.1952 93.0088 48.1618 92.8725L46.2767 92.6227L45.8111 90.9533C45.3114 89.2158 43.801 83.8898 41.1777 74.5891C40.6868 72.8413 40.1091 70.803 39.6142 69.057L39.6108 69.0452C39.2486 67.7671 38.931 66.6467 38.7248 65.913C38.2251 64.1641 37.8618 62.6992 37.9072 62.6538C37.9526 62.6083 38.9747 62.1654 40.1557 61.6658C47.4009 58.6223 52.5112 56.4874 54.7484 55.5562L55.0802 55.417C56.3478 54.8856 57.4156 54.4378 57.5306 54.3751C57.8713 54.2275 57.9508 54.2388 57.8827 54.4546Z" fill="#160835"/>
<path d="M69.3751 55.5902C69.6363 56.7031 70.1814 59.0198 70.5902 60.7346C71.2313 63.4055 71.9212 66.3138 72.7037 69.6127L72.7041 69.6143C72.9196 70.5227 73.1421 71.4606 73.3725 72.4314C74.4059 76.7581 74.599 77.5758 74.9624 79.1316C75.1554 79.9151 75.5075 81.4142 75.7573 82.4816C75.9524 83.2706 76.1855 84.2623 76.3573 84.9929C76.4155 85.2403 76.4666 85.4578 76.5068 85.6273L76.8021 86.8538L76.4954 87.2058C76.1434 87.6373 72.5321 91.8732 70.0792 94.7349C69.1139 95.8706 67.3991 97.8806 66.2749 99.1979C65.162 100.527 64.2194 101.583 64.1853 101.56C64.1626 101.526 64.0718 100.629 63.9809 99.5499C63.7923 97.1212 63.6309 94.9645 63.474 92.869L63.4732 92.8579L63.4728 92.8522L63.4721 92.8434L63.4718 92.8391L63.4713 92.8325C63.4025 91.9128 63.3345 91.0047 63.2655 90.0903L63.2186 89.4797L63.2183 89.4764C63.1105 88.073 63.0114 86.7837 62.9816 86.4563C62.9514 86.1241 62.8052 84.2568 62.6379 82.1203L62.5728 81.2892L62.56 81.1198L62.5593 81.1106C61.9668 73.2629 61.6948 69.6599 61.2214 63.5736C61.1194 62.1451 60.9806 60.3683 60.9041 59.388L60.9039 59.3847L60.8807 59.0879C60.699 56.6463 60.54 54.7158 60.4832 54.1139L60.4151 53.5802H64.6623H68.8982L69.3751 55.5902Z" fill="#3F2A7C"/>
<path d="M124.475 67.73C126.883 69.581 129.688 71.7387 130.721 72.5336C130.891 72.6641 131.102 72.8269 131.347 73.0153C131.561 73.1802 131.801 73.3653 132.06 73.5648L132.064 73.5678L132.07 73.5724L132.103 73.598C133.346 74.5559 135.022 75.8473 136.49 76.9739C138.625 78.6092 140.363 79.9719 140.351 79.9833C140.317 80.006 139.079 80.5397 132.197 83.4469C131.427 83.7739 130.405 84.2063 129.349 84.653L129.341 84.6563L129.333 84.6596L129.332 84.66C128.119 85.1729 126.863 85.704 125.895 86.1156C115.152 90.6581 112.29 91.8618 112.211 91.8278C112.165 91.805 112.245 91.3849 112.392 90.8852C112.467 90.6339 112.94 88.9699 113.643 86.4967C114.339 84.0515 115.26 80.8153 116.242 77.3714C117.316 73.5995 118.29 70.1767 118.96 67.8198L118.979 67.7511L118.988 67.721C119.534 65.8001 119.872 64.6126 119.887 64.5616C119.921 64.4594 119.978 64.3685 120.024 64.3685C120.069 64.3685 122.068 65.8789 124.475 67.73Z" fill="#3F2A7C"/>
<path d="M93.0641 53.4893L95.4375 53.6256L95.3694 54.5341C95.3541 54.7065 95.3323 54.9695 95.3062 55.2841C95.255 55.9019 95.1873 56.7189 95.1196 57.4413C95.0521 58.1614 94.9548 59.3083 94.8605 60.4192L94.86 60.4255C94.8118 60.994 94.7643 61.553 94.7221 62.0405C94.5972 63.4714 94.4155 65.5723 94.3246 66.6966C94.2174 67.9459 94.0968 69.3387 93.9746 70.7502C93.799 72.7772 93.6202 74.8426 93.4729 76.5764C93.2947 78.7085 93.1088 80.8637 92.8751 83.5727L92.8745 83.5793L92.8725 83.6026L92.8719 83.6097L92.8708 83.6222L92.8704 83.6265L92.8692 83.6403C92.7022 85.5759 92.5108 87.7945 92.2805 90.4877C92.213 91.2079 92.1157 92.3548 92.0215 93.4656L92.0209 93.472C91.9727 94.0405 91.9253 94.5994 91.8831 95.087L91.8122 95.9191C91.3869 100.915 91.3135 101.777 91.2812 101.798C91.2698 101.81 90.8951 101.378 90.4522 100.845C85.4288 94.6611 83.1113 91.8108 81.1678 89.4205L81.1464 89.3942L81.1397 89.3859L80.4474 88.5345C79.7433 87.6827 79.1641 86.8992 79.1641 86.797C79.1641 86.6948 79.4708 85.2753 79.8342 83.64C80.2089 82.0047 81.0038 78.4956 81.5944 75.8383C82.1962 73.1809 82.8663 70.2397 83.082 69.3085C83.1087 69.1921 83.1379 69.0645 83.1692 68.928C83.3911 67.9594 83.7147 66.5464 83.9337 65.5609C84.1836 64.4367 84.4675 63.1875 84.5697 62.7787C84.7649 61.9129 84.9375 61.1499 85.1001 60.4307L85.1037 60.4151C85.4409 58.9241 85.7358 57.62 86.1028 55.9763L86.716 53.2054L88.7033 53.2849C89.7935 53.319 91.7581 53.4098 93.0641 53.4893Z" fill="#3F2A7C"/>
<path d="M108.315 95.28C108.134 95.7456 106.09 99.1752 105.953 99.2433C105.794 99.3228 102.649 99.7089 102.615 99.6635C102.592 99.6294 104.897 95.7229 104.999 95.6207C105.056 95.5639 107.532 95.1892 108.111 95.1551C108.281 95.1438 108.349 95.1892 108.315 95.28Z" fill="#160835"/>
<path d="M49.2406 95.2005C50.0583 95.3141 50.7851 95.4617 50.8646 95.5299C51.0463 95.7002 53.2721 99.5613 53.2721 99.7089C53.2721 99.7771 53.1585 99.7998 53.0222 99.7657C52.8746 99.7317 52.1024 99.6408 51.2847 99.5613C50.4785 99.4932 49.7517 99.3683 49.6722 99.3001C49.5472 99.1866 47.3669 95.0756 47.3669 94.9507C47.3669 94.928 47.4577 94.928 47.5713 94.9507C47.6735 94.9848 48.4343 95.0983 49.2406 95.2005Z" fill="#160835"/>
<path d="M84.1836 148.223L84.7627 149.063L82.2757 151.754C80.913 153.242 79.6979 154.571 79.5843 154.718C79.3799 154.979 79.3118 154.991 77.9945 154.991H76.609L73.8835 152.14C72.3845 150.573 71.158 149.233 71.1694 149.154C71.1807 149.074 71.6123 148.438 72.1347 147.746L73.0886 146.474H78.0285L82.9685 146.485L83.2864 146.939C83.3506 147.029 83.4473 147.169 83.5601 147.333C83.7468 147.604 83.9784 147.94 84.1836 148.223Z" fill="#B22E72"/>
<path d="M59.3476 66.7533C59.5066 68.911 59.6883 71.2617 59.7451 71.9772C59.7984 72.5371 59.9143 74.0707 60.0384 75.7125L60.0386 75.7149L60.0389 75.7196L60.0393 75.724C60.0735 76.1764 60.1083 76.637 60.1426 77.0875C60.1879 77.6829 60.2341 78.2977 60.2786 78.8898L60.2788 78.8917L60.2789 78.8942C60.3905 80.3782 60.4914 81.7191 60.54 82.2545C60.6082 83.004 60.8126 85.6614 60.9943 88.1597C61.0583 88.9887 61.1299 89.914 61.2015 90.8397C61.3457 92.7038 61.49 94.5697 61.5734 95.6548C61.6983 97.2787 61.8687 99.5272 61.9482 100.652C62.039 101.776 62.0958 102.707 62.0958 102.707C62.0618 102.73 56.2928 100.311 56.1338 100.209C56.077 100.175 55.5206 99.2547 54.9074 98.1872C54.3055 97.1084 53.556 95.7911 53.238 95.2573L52.6816 94.2921L52.7951 93.5539C52.92 92.8158 53.2494 90.9647 54.2373 85.7181C54.4056 84.8098 54.5429 84.0669 54.6664 83.3985L54.6668 83.3964C54.9601 81.8096 55.1758 80.6424 55.5433 78.6773C55.593 78.4113 55.645 78.1325 55.6963 77.8572L55.6966 77.8555C55.8445 77.0618 55.9869 76.2973 56.0543 75.9518C56.1062 75.6861 56.2246 75.0393 56.3695 74.248L56.3701 74.2451L56.3703 74.2439C56.4791 73.6497 56.6028 72.9744 56.7243 72.3179C56.824 71.78 56.9459 71.1262 57.0741 70.4391C57.3112 69.1679 57.5695 67.7832 57.7464 66.8101C58.0303 65.3111 58.2915 63.9029 58.3256 63.6872C58.5754 62.3017 58.7458 61.4386 58.8025 61.1888C58.8934 60.8481 58.9502 61.4159 59.3476 66.7533Z" fill="#3F2A7C"/>
<path d="M102.558 90.7716L103.228 94.4056L102.024 96.4497C101.612 97.1413 101.161 97.906 100.809 98.5031L100.804 98.5109L100.802 98.5155L100.801 98.5167C100.584 98.8841 100.406 99.1869 100.298 99.3683C100.014 99.8452 99.7075 100.265 99.6053 100.288C99.5144 100.322 98.0835 100.913 96.4369 101.605C94.7902 102.298 93.4275 102.855 93.4048 102.832C93.3821 102.809 93.4729 101.628 93.5978 100.197C93.7239 98.7133 93.8225 97.5517 93.9029 96.6041C94.1413 93.7953 94.2201 92.8669 94.3814 90.9988C94.5063 89.5565 94.7107 87.1831 94.8357 85.7181C94.959 84.2505 95.1058 82.5485 95.2651 80.7012C95.3991 79.1465 95.5421 77.4889 95.6874 75.7815C95.7859 74.6439 95.8791 73.5505 95.9726 72.4539L95.9727 72.4526C96.1163 70.769 96.2605 69.0778 96.4255 67.2076C96.5504 65.7426 96.7094 63.8689 96.7776 63.0626C96.8911 61.4954 97.0047 60.6778 97.0615 60.9617C97.0842 61.0525 97.2886 62.1314 97.5044 63.3465C97.6247 63.9903 97.7801 64.8382 97.9318 65.6655L97.932 65.6671C98.0665 66.4005 98.1979 67.1177 98.2993 67.6618C98.4105 68.2587 98.5699 69.1299 98.7372 70.044C98.8945 70.9039 99.0588 71.8018 99.1964 72.545C99.3082 73.1488 99.487 74.1207 99.6994 75.2755L99.7009 75.2838L99.7023 75.2917L99.7057 75.31L99.7075 75.3196C100.033 77.0894 100.436 79.28 100.798 81.2325C101.065 82.6749 101.368 84.3234 101.655 85.8856L101.657 85.8929C102.016 87.8453 102.35 89.662 102.558 90.7716Z" fill="#3F2A7C"/>
<path d="M142.679 85.3547C143.679 89.3067 145.268 95.5639 146.836 101.73C147.174 103.08 147.595 104.734 147.996 106.312L147.998 106.32C148.403 107.912 148.788 109.426 149.05 110.475C149.584 112.564 150.004 114.279 149.981 114.302C149.97 114.324 148.323 113.62 146.325 112.734C145.532 112.386 144.142 111.772 142.438 111.019C139.869 109.884 136.585 108.433 133.56 107.102C130.332 105.681 127.169 104.283 125.071 103.356L125.063 103.352L125.048 103.346C123.888 102.833 123.058 102.466 122.726 102.321L121.034 101.571L121.477 101.185C121.716 100.969 122.204 100.527 122.545 100.209C122.885 99.8793 124.191 98.6755 125.441 97.5286C126.04 96.9723 126.852 96.217 127.69 95.4375L127.728 95.4022L127.732 95.3988L127.745 95.3864L127.749 95.3834C128.637 94.5566 129.551 93.7072 130.267 93.0429C135.888 87.8077 139 84.9232 140.272 83.7649C141.01 83.0949 141.634 82.493 141.68 82.4249C141.714 82.3681 141.782 82.3113 141.827 82.3113C141.873 82.3113 142.248 83.674 142.679 85.3547Z" fill="#160835"/>
<path d="M21.2931 89.2272C22.0994 89.954 23.0192 90.7716 23.3486 91.0555C23.6779 91.3394 24.8703 92.4069 26.0173 93.4403C27.1529 94.4737 28.3566 95.5526 28.6973 95.8478C29.0266 96.1317 29.8102 96.8245 30.4235 97.3809C30.722 97.6463 31.1954 98.0704 31.7232 98.5433L31.7263 98.546L31.7311 98.5503L31.7373 98.5559L31.74 98.5583C32.2921 99.0529 32.9021 99.5992 33.4328 100.072C34.7956 101.287 35.2953 101.798 35.1817 101.855C35.0114 101.957 34.7502 102.071 17.6932 109.18C10.8908 112.019 5.28089 114.336 5.23547 114.336C5.17869 114.336 5.17869 114.199 5.23547 114.018C5.29225 113.847 5.82599 111.951 6.42787 109.793C7.18077 107.113 8.00355 104.193 8.72413 101.636C9.09042 100.336 9.43029 99.1297 9.72116 98.0964C9.79083 97.8496 9.87239 97.5605 9.95993 97.2502L9.96101 97.2464L9.9631 97.2389L9.96409 97.2355L9.96504 97.2321C10.2189 96.3322 10.5219 95.2581 10.7319 94.5192C11.0044 93.5198 11.5154 91.7028 11.8675 90.4877C12.3079 88.918 12.6708 87.6279 12.9614 86.5945C13.495 84.6971 13.7853 83.6648 13.8662 83.3561C13.9343 83.0949 14.0365 82.8791 14.0819 82.8791C14.1387 82.8791 15.4447 84.0147 17.0005 85.4002C17.3847 85.7423 17.7918 86.1046 18.1992 86.4672L18.2135 86.4799C19.4508 87.5809 20.6883 88.682 21.2931 89.2272Z" fill="#160835"/>
<path d="M31.6159 89.2386L43.642 94.0422L42.6881 95.0189C42.1657 95.5526 41.2572 96.5065 40.6667 97.1311C40.1595 97.6676 39.3422 98.5142 38.7259 99.1525C38.6247 99.2573 38.529 99.3565 38.4409 99.4478L37.2826 100.629L36.3854 99.8452C35.8858 99.4137 33.5464 97.3242 31.173 95.2005C28.7995 93.0769 25.0633 89.7382 22.8602 87.785C20.6572 85.8203 18.8629 84.1964 18.8629 84.1737C18.8629 84.151 19.0332 84.1964 19.2376 84.2759C19.4307 84.3554 25.0066 86.5926 31.6159 89.2386Z" fill="#3F2A7C"/>
<path d="M43.3808 90.2038C43.6193 91.0101 43.7556 91.7028 43.7102 91.7142C43.5853 91.771 15.6831 80.5852 15.6831 80.4829C15.6831 80.4375 16.6144 79.654 17.7613 78.7227C18.427 78.1836 19.2955 77.4766 20.0947 76.8261L20.1047 76.818L20.1209 76.8048L20.1218 76.804C20.676 76.3529 21.1953 75.9302 21.5884 75.6112C27.4784 70.8201 30.9707 67.9766 32.9754 66.3444L32.983 66.3382C33.3367 66.0502 33.644 65.8001 33.9098 65.5836C35.0341 64.6752 35.9653 63.9597 35.9766 64.0051C35.988 64.0506 36.8397 67.0713 37.8731 70.728C39.4357 76.2613 41.2553 82.6916 42.392 86.7085L42.3941 86.716C42.859 88.359 43.2094 89.5972 43.3808 90.2038Z" fill="#3F2A7C"/>
<path d="M134.128 86.5699C133.254 87.3875 129.688 90.7035 125.497 94.576C125.103 94.9434 124.682 95.3349 124.258 95.7297L124.25 95.7366C122.907 96.9867 121.531 98.2676 120.841 98.914L119.172 100.47L118.048 99.4364C114.959 96.5974 112.438 94.2012 112.494 94.1444C112.574 94.0649 136.99 83.6967 137.137 83.6854C137.194 83.674 137.115 83.7989 136.967 83.9352C136.939 83.961 136.9 83.9974 136.852 84.0425L136.85 84.044C136.621 84.2576 136.186 84.6626 135.775 85.0368C135.601 85.1989 135.398 85.3871 135.19 85.5799C134.801 85.941 134.395 86.3182 134.128 86.5699Z" fill="#3F2A7C"/>
<path d="M113.63 98.2667C115.175 99.6976 116.696 101.106 117.014 101.39L117.582 101.901L114.811 104.456C113.614 105.563 111.926 107.12 110.619 108.326L110.561 108.379C110.228 108.686 109.922 108.969 109.655 109.214C108.56 110.233 107.209 111.476 106.379 112.239L106.377 112.241L106.373 112.245L106.123 112.475L105.965 112.621C103.217 115.165 101.059 117.118 100.968 117.152C100.877 117.186 99.9119 115.619 96.3687 109.623C95.4489 108.056 94.4723 106.432 94.1997 105.989C93.9272 105.557 93.7455 105.16 93.7909 105.126C93.8363 105.08 95.4603 104.388 97.3908 103.57C99.8437 102.548 101.104 102.082 101.536 102.026C104.84 101.662 107.089 101.344 107.293 101.208C107.43 101.128 108.236 99.8225 109.099 98.3235C109.951 96.8245 110.689 95.6094 110.746 95.6207C110.791 95.6434 112.097 96.8245 113.63 98.2667Z" fill="#160835"/>
<path d="M76.8021 108.998L76.7226 120.865L72.8615 122.137C70.7379 122.841 68.9663 123.375 68.9322 123.33C68.8868 123.284 68.6483 122.353 68.3871 121.263C68.2467 120.65 68.0021 119.621 67.7382 118.51C67.5327 117.645 67.3155 116.731 67.1266 115.926C66.6837 114.086 66.2295 112.167 66.1159 111.667C66.0023 111.167 65.6162 109.532 65.2528 108.033C64.8894 106.534 64.5715 105.149 64.5488 104.967C64.5033 104.66 64.7305 104.354 66.6383 102.116C67.0289 101.658 67.5463 101.049 68.1234 100.37C69.2744 99.0168 70.6632 97.3835 71.7599 96.0977C72.445 95.2945 73.1595 94.4579 73.8014 93.7064C74.7022 92.6517 75.4598 91.7648 75.7914 91.3735L76.8361 90.1698L76.8588 93.6447C76.8816 95.5639 76.8475 102.468 76.8021 108.998Z" fill="#3F2A7C"/>
<path d="M80.4247 91.8959C81.072 92.7022 82.1168 93.9854 82.7413 94.7463C83.1474 95.2409 83.6589 95.8699 84.092 96.4024L84.0943 96.4051L84.1021 96.4147C84.3312 96.6964 84.5379 96.9505 84.6946 97.1424C84.9495 97.4627 85.4149 98.0349 85.9287 98.6664L85.9298 98.6678C86.3085 99.1333 86.7133 99.631 87.0794 100.084C87.9425 101.14 89.1803 102.662 89.8162 103.456L90.9973 104.91L89.7822 110.781C89.3139 113.082 88.8169 115.498 88.4953 117.061L88.4944 117.066C88.364 117.699 88.2626 118.193 88.2037 118.481C87.9879 119.48 87.6813 121.002 87.5109 121.853C87.3292 122.705 87.1589 123.466 87.1135 123.534C87.0453 123.648 86.2163 123.387 79.7547 121.183L78.937 120.9L78.9597 107.885C78.9938 93.1451 79.0165 90.1811 79.1528 90.3287C79.1982 90.3855 79.766 91.0896 80.4247 91.8959Z" fill="#3F2A7C"/>
<path d="M82.1167 124.227C84.5243 125.033 86.5229 125.749 86.5797 125.794C86.6251 125.839 86.4548 126.816 86.205 127.974C85.2624 132.278 83.7861 139.058 82.889 143.203L82.6505 144.316H78.0399H73.4179L73.2362 143.43L73.2353 143.426L73.2346 143.422C73.1282 142.926 72.5859 140.395 72.0211 137.786C69.6704 126.793 69.4092 125.533 69.4319 125.51C69.4433 125.499 71.2148 124.92 73.3725 124.227C76.6658 123.159 77.7333 122.796 77.7446 122.751C77.7446 122.739 79.7206 123.409 82.1167 124.227Z" fill="#160835"/>
<path d="M63.4926 142.692L68.7732 149.926L72.112 153.401C73.9403 155.309 75.5756 156.921 75.7459 157.001C75.939 157.092 76.7339 157.137 78.0626 157.148H80.084L80.6404 156.603C80.9471 156.308 82.5029 154.65 84.0927 152.901C86.5116 150.267 87.4655 149.108 89.8389 145.974C91.3947 143.907 93.8136 140.705 95.2104 138.865L97.7542 135.515L100.65 135.481L103.557 135.458L102.206 138.604L100.854 141.761L92.7575 149.846L84.6719 157.943H77.8582H71.0445L62.9589 149.846L54.8846 141.761L53.6695 138.808C52.9995 137.184 52.409 135.765 52.3522 135.663C52.25 135.47 52.409 135.458 55.2253 135.458L58.212 135.47L63.4926 142.692Z" fill="#160835"/>
<path d="M92.3259 130.893L95.9713 134.459L94.529 136.344C94.1983 136.779 93.8263 137.268 93.4702 137.737L93.4666 137.742C92.9682 138.398 92.5016 139.012 92.2237 139.376C91.7468 140.001 90.3159 141.886 89.044 143.578C87.7721 145.259 86.6024 146.803 86.4434 147.007L86.1595 147.359L85.3873 146.269C84.9558 145.667 84.6378 145.1 84.6605 145.009C84.7287 144.793 86.0233 138.854 87.386 132.562C87.5482 131.81 87.729 130.998 87.8754 130.34C87.9851 129.847 88.0755 129.441 88.1242 129.212C88.2491 128.679 88.3854 128.031 88.4308 127.759C88.4762 127.497 88.5443 127.293 88.5898 127.304C88.6465 127.327 90.3159 128.94 92.3259 130.893Z" fill="#3F2A7C"/>
<path d="M116.094 106.364C116.049 106.477 113.437 112.587 110.28 119.934L104.545 133.301H101.127H97.7088L97.4249 132.983C97.2806 132.828 95.6772 131.233 93.7437 129.31L93.1436 128.713C89.3052 124.92 89.1349 124.738 89.1916 124.397C89.2598 124.011 89.8844 120.979 90.6907 117.118L90.7849 116.662C91.0837 115.216 91.5578 112.922 91.8944 111.27C92.2805 109.43 92.6212 107.863 92.6666 107.783C92.7121 107.704 93.1436 108.317 93.7 109.259C93.9296 109.649 94.2579 110.2 94.6144 110.799L94.6168 110.803C95.071 111.567 95.5709 112.407 95.9713 113.087C96.5635 114.077 97.4197 115.519 98.0666 116.609L98.0683 116.612C98.2146 116.859 98.3503 117.087 98.4696 117.288C99.9914 119.855 100.366 120.23 101.093 119.923C101.263 119.855 105.363 116.141 107.157 114.438C108.1 113.541 116.117 106.159 116.151 106.159C116.163 106.159 116.14 106.25 116.094 106.364Z" fill="#3F2A7C"/>
<path d="M47.3101 112.973C50.3763 115.846 52.3182 117.674 53.2153 118.526C54.9074 120.139 55.1799 120.275 55.7931 119.787C55.9521 119.662 57.5874 116.857 59.4725 113.484C61.9936 108.964 62.8908 107.454 62.9475 107.601C62.993 107.715 63.3336 109.112 63.7197 110.702C64.0945 112.292 64.9576 115.948 65.6389 118.821C66.3203 121.694 66.8995 124.147 66.9222 124.284C66.9449 124.465 65.9796 125.51 62.6182 128.917L58.2915 133.301H54.8392H51.3983L51.069 132.472L50.9914 132.282L50.9901 132.279C50.7205 131.622 50.0328 129.945 49.3542 128.304C48.8352 127.067 48.0803 125.241 47.3894 123.57L47.3878 123.566C47.0512 122.752 46.7298 121.974 46.4584 121.32L46.1681 120.62C45.3878 118.738 44.4688 116.523 44.0054 115.415C41.8023 110.088 40.326 106.511 40.326 106.443C40.326 106.398 41.6888 107.658 43.3695 109.237C45.0388 110.815 46.8104 112.496 47.3101 112.973Z" fill="#3F2A7C"/>
<path d="M69.0004 133.868C69.0912 134.277 69.5795 136.526 70.0792 138.865C70.273 139.772 70.4667 140.685 70.6387 141.494L70.6436 141.517L70.6472 141.534C70.9146 142.793 71.1278 143.797 71.2035 144.134L71.4306 145.145L70.5789 146.258C70.1133 146.882 69.6931 147.382 69.6477 147.382C69.6022 147.371 68.2054 145.497 66.5361 143.203C65.6062 141.925 64.5389 140.464 63.6188 139.205L63.6135 139.197L63.6077 139.19C62.8806 138.194 62.2464 137.326 61.846 136.775C60.9375 135.538 60.1993 134.482 60.1993 134.425C60.1993 134.368 61.846 132.665 63.856 130.62L67.5127 126.93L67.7739 128.156C67.9215 128.826 68.2168 130.223 68.4326 131.256C68.5577 131.826 68.6898 132.437 68.7983 132.939C68.8867 133.348 68.9596 133.685 69.0004 133.868Z" fill="#3F2A7C"/>
<path d="M80.9811 160.033C80.9811 160.056 80.3111 160.442 79.4935 160.896C78.1307 161.634 77.9717 161.702 77.6992 161.577C77.2449 161.373 74.9624 160.09 74.9624 160.033C74.9624 160.01 76.3138 159.988 77.9717 159.988C79.6297 159.988 80.9811 160.01 80.9811 160.033Z" fill="#160835"/>
<path d="M36.9305 103.911C37.01 104.115 37.5665 105.489 38.1684 106.954C38.3717 107.449 38.6153 108.04 38.8697 108.657L38.8713 108.661L38.8766 108.674C39.3731 109.879 39.9101 111.182 40.2693 112.064C43.4263 119.787 47.9347 130.666 49.2974 133.868C51.6822 139.49 51.898 140.001 51.7958 140.001C51.739 140.001 47.4691 137.854 42.2907 135.22C34.1823 131.097 31.0821 129.496 24.3138 125.953C22.7126 125.101 20.9751 124.193 19.601 123.477L18.5576 122.93C15.2147 121.177 13.0602 120.047 10.0051 118.458C9.31891 118.096 8.67071 117.755 8.10873 117.46L8.10129 117.456C6.95592 116.854 6.17054 116.44 6.15532 116.425C6.13261 116.403 6.13261 116.357 6.16668 116.323C6.20075 116.289 8.92623 115.131 12.2309 113.757C26.5169 107.795 31.4569 105.728 33.9666 104.672C35.4315 104.058 36.6693 103.559 36.7034 103.547C36.7488 103.547 36.8397 103.718 36.9305 103.911Z" fill="#3F2A7C"/>
<path d="M144.519 114.279C146.461 115.131 148.289 115.937 148.596 116.085L149.164 116.334L142.804 119.696C141.479 120.399 140.203 121.075 139.111 121.653L139.096 121.662L139.094 121.663C137.323 122.6 136.042 123.279 135.831 123.398C135.491 123.58 132.913 124.942 130.097 126.43C127.292 127.906 124.089 129.598 122.999 130.178C121.193 131.131 117.662 132.971 112.665 135.549C111.631 136.071 110.28 136.775 109.655 137.105C104.5 139.796 104.011 140.035 104.091 139.762C104.148 139.615 107.6 131.518 111.779 121.774C113.772 117.128 115.61 112.845 116.996 109.616L117.024 109.55L117.056 109.475C118.542 106.013 119.494 103.795 119.535 103.695L119.694 103.32L120.183 103.536C120.455 103.65 121.716 104.206 122.999 104.774C123.733 105.099 124.91 105.617 126.145 106.161L126.147 106.162L126.151 106.164C127.072 106.569 128.024 106.988 128.847 107.352C129.878 107.804 131.353 108.457 132.866 109.127L132.867 109.128L132.868 109.128C134.205 109.72 135.57 110.325 136.683 110.815C138.683 111.705 141.506 112.95 143.5 113.83L143.502 113.831L143.507 113.832L143.542 113.848L144.519 114.279Z" fill="#3F2A7C"/>
<path d="M46.6968 98.3689C47.7303 100.356 48.1845 101.128 48.423 101.276C48.6274 101.401 49.1044 101.503 49.7289 101.549C50.274 101.594 51.1258 101.674 51.6254 101.73L51.8428 101.755L51.8628 101.757L51.8761 101.759L51.8971 101.761C52.4143 101.82 53.1457 101.902 53.6695 101.969C54.2941 102.037 55.1913 102.219 55.6569 102.366C56.7357 102.707 61.7438 104.876 61.7097 104.99C61.6994 105.041 60.9181 106.449 59.9202 108.246L59.7267 108.595L59.5975 108.828C59.289 109.381 58.9566 109.976 58.6233 110.572L58.619 110.58C57.7142 112.199 56.8024 113.831 56.3382 114.676C55.6909 115.835 55.1118 116.868 55.0323 116.97C55.0268 116.979 55.022 116.987 55.0174 116.996C55.0074 117.014 54.9983 117.03 54.9844 117.04C54.8394 117.143 54.1769 116.52 46.5755 109.371L45.7089 108.555C41.9727 105.035 38.8838 102.128 38.8611 102.116C38.8384 102.094 40.2465 100.595 41.9727 98.7777C43.7102 96.9608 45.1638 95.5072 45.2092 95.5639C45.2546 95.6094 45.9246 96.8699 46.6968 98.3689Z" fill="#160835"/>
<path d="M202 79.2823V33.0663H211.243V51.5527H238.973V33.0663H248.216V70.0391L238.973 79.2823V60.7959H211.243V70.0391L202 79.2823ZM261.157 79.2823V70.0391H279.643V51.5527H288.886V70.0391H298.129L307.373 79.2823H261.157ZM261.157 42.3095V33.0663H307.373V42.3095H261.157ZM338.799 79.2823V51.5527H348.043V70.0391L338.799 79.2823ZM320.313 42.3095V33.0663H366.529V42.3095H320.313ZM379.47 79.2823V51.5527H411.821L416.442 46.9311L411.821 42.3095H379.47V33.0663H416.442L425.686 42.3095V51.5527L416.442 60.7959L425.686 79.2823H416.442L407.199 60.7959H388.713V70.0391L379.47 79.2823ZM438.626 79.2823V70.0391H457.113V51.5527H466.356V70.0391H475.599L484.842 79.2823H438.626ZM438.626 42.3095V33.0663H484.842V42.3095H438.626ZM497.783 42.3095V33.0663H507.026V42.3095H497.783ZM497.783 79.2823L507.026 70.0391H530.134L534.756 65.4175V60.7959H507.026L497.783 51.5527H534.756V33.0663H543.999V70.0391L534.756 79.2823H497.783ZM556.939 79.2823V51.5527H566.182V70.0391L556.939 79.2823ZM580.047 79.2823L566.182 51.5527H575.426L580.047 60.7959L584.669 51.5527H593.912L580.047 79.2823ZM593.912 79.2823V51.5527H603.155V70.0391L593.912 79.2823ZM556.939 42.3095V33.0663H566.182L570.804 42.3095H556.939ZM589.29 42.3095L593.912 33.0663H603.155V42.3095H589.29ZM616.096 42.3095V33.0663H625.339V42.3095H616.096ZM625.339 79.2823L616.096 70.0391V51.5527H625.339V65.4175L629.961 70.0391H648.447L653.069 65.4175V33.0663H662.312V70.0391L653.069 79.2823H625.339ZM675.252 79.2823V33.0663H684.495V51.5527H712.225V33.0663H721.468V70.0391L712.225 79.2823V60.7959H684.495V70.0391L675.252 79.2823Z" fill="white"/>
<path d="M217.093 106.989C217.093 107.173 217.001 107.265 216.817 107.265H206.387C206.313 107.265 206.277 107.302 206.277 107.375V114.825C206.277 114.899 206.313 114.936 206.387 114.936H213.782C213.966 114.936 214.057 115.027 214.057 115.211V115.956C214.057 116.14 213.966 116.232 213.782 116.232H206.387C206.313 116.232 206.277 116.269 206.277 116.343V125.006C206.277 125.19 206.185 125.282 206.001 125.282H205.09C204.906 125.282 204.814 125.19 204.814 125.006V106.244C204.814 106.06 204.906 105.968 205.09 105.968H216.817C217.001 105.968 217.093 106.06 217.093 106.244V106.989ZM232.828 125.282C232.663 125.282 232.552 125.218 232.497 125.089L228.276 116.315C228.257 116.26 228.221 116.232 228.165 116.232H222.951C222.877 116.232 222.84 116.269 222.84 116.343V125.006C222.84 125.19 222.748 125.282 222.564 125.282H221.654C221.47 125.282 221.378 125.19 221.378 125.006V106.244C221.378 106.06 221.47 105.968 221.654 105.968H228.607C230.152 105.968 231.394 106.447 232.332 107.403C233.288 108.36 233.766 109.61 233.766 111.155C233.766 112.461 233.408 113.565 232.69 114.466C231.973 115.349 231.007 115.901 229.793 116.122C229.701 116.159 229.674 116.205 229.711 116.26L233.932 124.951C233.95 124.988 233.96 125.034 233.96 125.089C233.96 125.218 233.886 125.282 233.739 125.282H232.828ZM222.951 107.265C222.877 107.265 222.84 107.302 222.84 107.375V114.908C222.84 114.982 222.877 115.018 222.951 115.018H228.469C229.609 115.018 230.529 114.66 231.228 113.942C231.945 113.225 232.304 112.296 232.304 111.155C232.304 109.997 231.945 109.059 231.228 108.341C230.529 107.624 229.609 107.265 228.469 107.265H222.951ZM244.839 125.503C243.57 125.503 242.448 125.246 241.473 124.731C240.516 124.197 239.771 123.461 239.238 122.523C238.723 121.567 238.465 120.472 238.465 119.24V112.011C238.465 110.778 238.723 109.693 239.238 108.755C239.771 107.799 240.516 107.063 241.473 106.548C242.448 106.014 243.57 105.748 244.839 105.748C246.108 105.748 247.23 106.014 248.205 106.548C249.18 107.063 249.934 107.799 250.468 108.755C251.001 109.693 251.268 110.778 251.268 112.011V119.24C251.268 120.472 251.001 121.567 250.468 122.523C249.934 123.461 249.18 124.197 248.205 124.731C247.23 125.246 246.108 125.503 244.839 125.503ZM244.839 124.234C246.329 124.234 247.525 123.783 248.426 122.882C249.346 121.981 249.806 120.785 249.806 119.295V111.983C249.806 110.512 249.346 109.325 248.426 108.424C247.525 107.504 246.329 107.044 244.839 107.044C243.368 107.044 242.181 107.504 241.28 108.424C240.378 109.325 239.928 110.512 239.928 111.983V119.295C239.928 120.785 240.378 121.981 241.28 122.882C242.181 123.783 243.368 124.234 244.839 124.234ZM268.735 106.244C268.735 106.06 268.827 105.968 269.011 105.968H269.922C270.106 105.968 270.198 106.06 270.198 106.244V125.006C270.198 125.19 270.106 125.282 269.922 125.282H269.011C268.882 125.282 268.772 125.218 268.68 125.089L258.692 108.893C258.674 108.838 258.646 108.819 258.609 108.838C258.572 108.838 258.554 108.865 258.554 108.921V125.006C258.554 125.19 258.462 125.282 258.278 125.282H257.368C257.184 125.282 257.092 125.19 257.092 125.006V106.244C257.092 106.06 257.184 105.968 257.368 105.968H258.306C258.434 105.968 258.545 106.033 258.637 106.161L268.597 122.358C268.616 122.413 268.643 122.44 268.68 122.44C268.717 122.422 268.735 122.385 268.735 122.33V106.244ZM287.848 105.968C288.032 105.968 288.124 106.06 288.124 106.244V106.989C288.124 107.173 288.032 107.265 287.848 107.265H282.33C282.256 107.265 282.22 107.302 282.22 107.375V125.006C282.22 125.19 282.128 125.282 281.944 125.282H281.033C280.849 125.282 280.757 125.19 280.757 125.006V107.375C280.757 107.302 280.72 107.265 280.647 107.265H275.404C275.22 107.265 275.129 107.173 275.129 106.989V106.244C275.129 106.06 275.22 105.968 275.404 105.968H287.848ZM305.381 106.989C305.381 107.173 305.289 107.265 305.105 107.265H294.648C294.574 107.265 294.537 107.302 294.537 107.375V114.825C294.537 114.899 294.574 114.936 294.648 114.936H302.07C302.254 114.936 302.346 115.027 302.346 115.211V115.956C302.346 116.14 302.254 116.232 302.07 116.232H294.648C294.574 116.232 294.537 116.269 294.537 116.343V123.875C294.537 123.949 294.574 123.986 294.648 123.986H305.105C305.289 123.986 305.381 124.078 305.381 124.261V125.006C305.381 125.19 305.289 125.282 305.105 125.282H293.351C293.167 125.282 293.075 125.19 293.075 125.006V106.244C293.075 106.06 293.167 105.968 293.351 105.968H305.105C305.289 105.968 305.381 106.06 305.381 106.244V106.989ZM322.414 106.244C322.414 106.06 322.506 105.968 322.69 105.968H323.6C323.784 105.968 323.876 106.06 323.876 106.244V125.006C323.876 125.19 323.784 125.282 323.6 125.282H322.69C322.561 125.282 322.451 125.218 322.359 125.089L312.37 108.893C312.352 108.838 312.324 108.819 312.288 108.838C312.251 108.838 312.232 108.865 312.232 108.921V125.006C312.232 125.19 312.14 125.282 311.957 125.282H311.046C310.862 125.282 310.77 125.19 310.77 125.006V106.244C310.77 106.06 310.862 105.968 311.046 105.968H311.984C312.113 105.968 312.223 106.033 312.315 106.161L322.276 122.358C322.294 122.413 322.322 122.44 322.359 122.44C322.395 122.422 322.414 122.385 322.414 122.33V106.244ZM330.169 125.282C329.985 125.282 329.893 125.19 329.893 125.006V106.244C329.893 106.06 329.985 105.968 330.169 105.968H336.571C338.336 105.968 339.734 106.437 340.764 107.375C341.795 108.295 342.31 109.555 342.31 111.155V120.095C342.31 121.695 341.795 122.965 340.764 123.903C339.734 124.822 338.336 125.282 336.571 125.282H330.169ZM331.356 123.875C331.356 123.949 331.393 123.986 331.466 123.986H336.653C337.941 123.986 338.953 123.627 339.688 122.909C340.443 122.174 340.829 121.18 340.847 119.93V111.321C340.847 110.07 340.47 109.086 339.716 108.369C338.98 107.633 337.959 107.265 336.653 107.265H331.466C331.393 107.265 331.356 107.302 331.356 107.375V123.875ZM354.405 125.282C354.221 125.282 354.129 125.19 354.129 125.006V106.244C354.129 106.06 354.221 105.968 354.405 105.968H360.806C362.572 105.968 363.97 106.437 365 107.375C366.03 108.295 366.545 109.555 366.545 111.155V120.095C366.545 121.695 366.03 122.965 365 123.903C363.97 124.822 362.572 125.282 360.806 125.282H354.405ZM355.591 123.875C355.591 123.949 355.628 123.986 355.701 123.986H360.889C362.176 123.986 363.188 123.627 363.924 122.909C364.678 122.174 365.064 121.18 365.083 119.93V111.321C365.083 110.07 364.705 109.086 363.951 108.369C363.215 107.633 362.195 107.265 360.889 107.265H355.701C355.628 107.265 355.591 107.302 355.591 107.375V123.875ZM384.318 106.989C384.318 107.173 384.226 107.265 384.042 107.265H373.585C373.512 107.265 373.475 107.302 373.475 107.375V114.825C373.475 114.899 373.512 114.936 373.585 114.936H381.007C381.191 114.936 381.283 115.027 381.283 115.211V115.956C381.283 116.14 381.191 116.232 381.007 116.232H373.585C373.512 116.232 373.475 116.269 373.475 116.343V123.875C373.475 123.949 373.512 123.986 373.585 123.986H384.042C384.226 123.986 384.318 124.078 384.318 124.261V125.006C384.318 125.19 384.226 125.282 384.042 125.282H372.288C372.104 125.282 372.012 125.19 372.012 125.006V106.244C372.012 106.06 372.104 105.968 372.288 105.968H384.042C384.226 105.968 384.318 106.06 384.318 106.244V106.989ZM394.802 125.282C394.636 125.282 394.526 125.209 394.471 125.062L388.373 106.272L388.345 106.161C388.345 106.033 388.428 105.968 388.594 105.968H389.559C389.725 105.968 389.835 106.042 389.891 106.189L395.243 123.02C395.262 123.057 395.289 123.075 395.326 123.075C395.363 123.075 395.39 123.057 395.409 123.02L400.817 106.189C400.872 106.042 400.982 105.968 401.148 105.968H402.058C402.261 105.968 402.334 106.069 402.279 106.272L396.154 125.062C396.099 125.209 395.988 125.282 395.823 125.282H394.802ZM418.847 106.989C418.847 107.173 418.755 107.265 418.571 107.265H408.113C408.04 107.265 408.003 107.302 408.003 107.375V114.825C408.003 114.899 408.04 114.936 408.113 114.936H415.536C415.719 114.936 415.811 115.027 415.811 115.211V115.956C415.811 116.14 415.719 116.232 415.536 116.232H408.113C408.04 116.232 408.003 116.269 408.003 116.343V123.875C408.003 123.949 408.04 123.986 408.113 123.986H418.571C418.755 123.986 418.847 124.078 418.847 124.261V125.006C418.847 125.19 418.755 125.282 418.571 125.282H406.817C406.633 125.282 406.541 125.19 406.541 125.006V106.244C406.541 106.06 406.633 105.968 406.817 105.968H418.571C418.755 105.968 418.847 106.06 418.847 106.244V106.989ZM424.512 125.282C424.328 125.282 424.236 125.19 424.236 125.006V106.244C424.236 106.06 424.328 105.968 424.512 105.968H425.422C425.606 105.968 425.698 106.06 425.698 106.244V123.875C425.698 123.949 425.735 123.986 425.809 123.986H435.714C435.898 123.986 435.99 124.078 435.99 124.261V125.006C435.99 125.19 435.898 125.282 435.714 125.282H424.512ZM446.404 125.503C445.135 125.503 444.012 125.246 443.038 124.731C442.081 124.197 441.336 123.461 440.803 122.523C440.288 121.567 440.03 120.472 440.03 119.24V112.011C440.03 110.778 440.288 109.693 440.803 108.755C441.336 107.799 442.081 107.063 443.038 106.548C444.012 106.014 445.135 105.748 446.404 105.748C447.673 105.748 448.795 106.014 449.77 106.548C450.745 107.063 451.499 107.799 452.032 108.755C452.566 109.693 452.833 110.778 452.833 112.011V119.24C452.833 120.472 452.566 121.567 452.032 122.523C451.499 123.461 450.745 124.197 449.77 124.731C448.795 125.246 447.673 125.503 446.404 125.503ZM446.404 124.234C447.894 124.234 449.089 123.783 449.991 122.882C450.91 121.981 451.37 120.785 451.37 119.295V111.983C451.37 110.512 450.91 109.325 449.991 108.424C449.089 107.504 447.894 107.044 446.404 107.044C444.932 107.044 443.746 107.504 442.844 108.424C441.943 109.325 441.492 110.512 441.492 111.983V119.295C441.492 120.785 441.943 121.981 442.844 122.882C443.746 123.783 444.932 124.234 446.404 124.234ZM465.83 105.913C467.394 105.913 468.654 106.401 469.61 107.375C470.567 108.332 471.045 109.601 471.045 111.183C471.045 112.747 470.557 114.007 469.583 114.963C468.626 115.92 467.357 116.398 465.775 116.398H460.036C459.962 116.398 459.926 116.435 459.926 116.508V125.006C459.926 125.19 459.834 125.282 459.65 125.282H458.739C458.555 125.282 458.463 125.19 458.463 125.006V106.189C458.463 106.005 458.555 105.913 458.739 105.913H465.83ZM465.72 115.156C466.879 115.156 467.808 114.798 468.507 114.08C469.224 113.344 469.583 112.388 469.583 111.211C469.583 110.015 469.224 109.059 468.507 108.341C467.808 107.605 466.879 107.237 465.72 107.237H460.036C459.962 107.237 459.926 107.274 459.926 107.348V115.046C459.926 115.119 459.962 115.156 460.036 115.156H465.72ZM488.065 106.989C488.065 107.173 487.973 107.265 487.789 107.265H477.331C477.258 107.265 477.221 107.302 477.221 107.375V114.825C477.221 114.899 477.258 114.936 477.331 114.936H484.754C484.938 114.936 485.03 115.027 485.03 115.211V115.956C485.03 116.14 484.938 116.232 484.754 116.232H477.331C477.258 116.232 477.221 116.269 477.221 116.343V123.875C477.221 123.949 477.258 123.986 477.331 123.986H487.789C487.973 123.986 488.065 124.078 488.065 124.261V125.006C488.065 125.19 487.973 125.282 487.789 125.282H476.035C475.851 125.282 475.759 125.19 475.759 125.006V106.244C475.759 106.06 475.851 105.968 476.035 105.968H487.789C487.973 105.968 488.065 106.06 488.065 106.244V106.989ZM504.904 125.282C504.739 125.282 504.629 125.218 504.573 125.089L500.352 116.315C500.333 116.26 500.297 116.232 500.241 116.232H495.027C494.953 116.232 494.916 116.269 494.916 116.343V125.006C494.916 125.19 494.824 125.282 494.64 125.282H493.73C493.546 125.282 493.454 125.19 493.454 125.006V106.244C493.454 106.06 493.546 105.968 493.73 105.968H500.683C502.228 105.968 503.47 106.447 504.408 107.403C505.364 108.36 505.843 109.61 505.843 111.155C505.843 112.461 505.484 113.565 504.767 114.466C504.049 115.349 503.083 115.901 501.869 116.122C501.777 116.159 501.75 116.205 501.787 116.26L506.008 124.951C506.027 124.988 506.036 125.034 506.036 125.089C506.036 125.218 505.962 125.282 505.815 125.282H504.904ZM495.027 107.265C494.953 107.265 494.916 107.302 494.916 107.375V114.908C494.916 114.982 494.953 115.018 495.027 115.018H500.545C501.685 115.018 502.605 114.66 503.304 113.942C504.022 113.225 504.38 112.296 504.38 111.155C504.38 109.997 504.022 109.059 503.304 108.341C502.605 107.624 501.685 107.265 500.545 107.265H495.027Z" fill="white"/>
</svg>
