<?xml version="1.0" standalone="no"?>
<!DOCTYPE svg PUBLIC "-//W3C//DTD SVG 20010904//EN"
 "http://www.w3.org/TR/2001/REC-SVG-20010904/DTD/svg10.dtd">
<svg version="1.0" xmlns="http://www.w3.org/2000/svg"
 width="512.000000pt" height="512.000000pt" viewBox="0 0 512.000000 512.000000"
 preserveAspectRatio="xMidYMid meet">
<metadata>
Created by potrace 1.14, written by Peter Selinger 2001-2017
</metadata>
<g transform="translate(0.000000,512.000000) scale(0.100000,-0.100000)"
fill="#000000" stroke="none">
<path d="M4117 5109 c-10 -6 -259 -233 -553 -505 l-536 -494 -67 6 c-36 3
-369 25 -739 49 -482 31 -682 41 -702 33 -37 -12 -60 -48 -60 -93 0 -32 30
-70 320 -408 l320 -372 -218 -215 c-119 -119 -398 -393 -620 -610 l-402 -395
0 -908 0 -909 34 -34 c19 -19 42 -34 52 -34 10 0 447 -49 971 -110 525 -60
961 -110 969 -110 9 0 31 15 50 34 45 45 45 80 -1 137 l-34 44 650 5 651 5 29
33 29 32 0 2381 0 2381 -34 34 c-35 35 -74 44 -109 23z m-62 -1197 c-4 -5
-720 140 -763 154 -7 2 162 165 375 362 l388 359 3 -435 c1 -239 0 -437 -3
-440z m-1702 44 c273 -18 499 -35 501 -37 7 -6 -475 -601 -483 -597 -10 4
-571 655 -571 663 0 8 12 7 553 -29z m1221 -156 c236 -50 431 -92 433 -93 2
-2 -84 -184 -190 -405 l-192 -401 -46 -1 c-57 0 -122 -22 -165 -55 -18 -14
-39 -25 -46 -25 -7 0 -196 84 -421 186 -377 173 -407 188 -395 205 7 10 135
169 283 353 219 272 274 334 290 330 11 -2 213 -45 449 -94z m485 -1557 l-1
-1088 -180 717 -180 717 178 370 c98 204 180 371 181 371 2 0 3 -489 2 -1087z
m-1797 890 c23 -25 1692 -2668 1705 -2700 8 -20 -1273 -19 -1284 1 -4 8 -97
105 -206 215 -192 195 -199 201 -238 201 -58 0 -99 -42 -99 -101 0 -46 -10
-34 345 -397 105 -107 116 -122 90 -117 -16 3 -345 41 -730 85 -385 44 -719
82 -742 85 l-43 6 0 702 1 702 252 -258 252 -257 43 0 c82 0 130 85 85 150 -9
14 -144 156 -299 315 -155 160 -283 294 -284 298 -1 9 1108 1097 1119 1097 4
0 19 -12 33 -27z m893 -444 l350 -160 202 -805 c110 -443 197 -802 193 -797
-11 11 -1241 1964 -1247 1981 -3 7 30 -3 73 -23 44 -20 237 -108 429 -196z"/>
<path d="M3521 3546 c-13 -7 -30 -24 -37 -37 -55 -100 76 -200 157 -120 83 83
-17 214 -120 157z"/>
<path d="M2983 3335 c-20 -8 -39 -28 -49 -49 -15 -31 -16 -39 -3 -73 20 -52
74 -80 124 -63 46 15 65 44 65 98 0 32 -6 49 -25 67 -13 14 -31 25 -39 25 -8
0 -20 2 -28 5 -7 2 -28 -2 -45 -10z"/>
<path d="M1863 1155 c-13 -9 -28 -33 -34 -54 -9 -31 -8 -43 6 -70 33 -64 130
-75 170 -18 25 36 19 100 -11 131 -31 30 -95 36 -131 11z"/>
</g>
</svg>
