<?xml version="1.0" standalone="no"?>
<!DOCTYPE svg PUBLIC "-//W3C//DTD SVG 20010904//EN"
 "http://www.w3.org/TR/2001/REC-SVG-20010904/DTD/svg10.dtd">
<svg version="1.0" xmlns="http://www.w3.org/2000/svg"
 width="500.000000pt" height="500.000000pt" viewBox="0 0 500.000000 500.000000"
 preserveAspectRatio="xMidYMid meet">
<metadata>
Created by potrace 1.14, written by Peter Selinger 2001-2017
</metadata>
<g transform="translate(0.000000,500.000000) scale(0.100000,-0.100000)"
fill="#000000" stroke="none">
<path d="M867 4189 c-4 -19 -18 -119 -33 -224 l-26 -190 133 -597 c74 -329
136 -598 139 -598 7 0 405 322 437 353 l23 22 -306 580 c-168 319 -318 604
-334 634 l-27 55 -6 -35z"/>
<path d="M3796 3578 c-279 -521 -335 -633 -324 -644 19 -20 442 -344 448 -344
3 0 65 260 138 578 l133 577 -25 230 c-15 126 -28 230 -29 232 -2 1 -155 -282
-341 -629z"/>
<path d="M983 4120 c19 -36 162 -306 317 -600 155 -294 284 -537 285 -539 2
-2 105 39 229 90 l225 94 -32 31 c-18 17 -243 228 -502 469 -258 241 -490 456
-513 479 l-44 41 35 -65z"/>
<path d="M3570 3729 c-267 -248 -513 -477 -547 -509 l-63 -57 225 -98 c124
-54 227 -96 229 -94 3 3 593 1107 638 1192 5 9 7 17 6 17 -2 -1 -221 -204
-488 -451z"/>
<path d="M1045 4163 c55 -57 978 -913 981 -910 3 2 -21 95 -52 206 l-57 201
-406 237 c-482 281 -479 279 -466 266z"/>
<path d="M3525 3915 l-440 -254 -57 -198 c-32 -109 -57 -203 -55 -209 1 -6
198 171 437 394 239 222 464 430 500 463 36 32 63 59 60 58 -3 0 -203 -114
-445 -254z"/>
<path d="M2210 3681 c-222 -25 -235 -27 -232 -46 2 -11 31 -118 65 -237 l61
-218 98 0 97 0 82 253 c45 138 84 258 86 265 3 6 -1 11 -8 11 -8 -1 -120 -13
-249 -28z"/>
<path d="M2545 3693 c3 -10 38 -124 77 -253 38 -129 73 -238 77 -241 3 -4 49
-9 102 -13 l97 -6 62 222 c35 123 63 230 64 238 1 11 -39 19 -199 36 -110 13
-220 25 -244 28 -38 5 -42 4 -36 -11z"/>
<path d="M2422 3405 l-80 -248 76 -323 c42 -178 79 -320 83 -316 4 4 39 152
79 328 l73 321 -67 223 c-37 123 -71 232 -75 243 -6 16 -29 -43 -89 -228z"/>
<path d="M2611 2767 l-84 -375 119 -147 c65 -81 127 -156 136 -168 l18 -22 0
25 c0 14 20 254 44 535 25 280 42 512 40 514 -3 3 -46 7 -97 9 l-92 4 -84
-375z"/>
<path d="M2114 3073 c3 -32 22 -269 42 -528 19 -258 37 -471 38 -472 2 -2 65
69 141 158 l138 161 -77 326 c-43 180 -82 346 -88 370 l-10 42 -95 0 -95 0 6
-57z"/>
<path d="M1828 3026 c-120 -50 -218 -95 -218 -101 0 -5 41 -157 91 -336 l92
-327 46 -5 c25 -3 47 -4 49 -2 5 5 162 849 159 856 -1 3 -100 -35 -219 -85z"/>
<path d="M2950 3103 c1 -5 36 -197 78 -428 85 -458 77 -434 146 -421 l32 6 94
330 c52 181 92 331 89 333 -6 6 -427 187 -433 187 -3 0 -6 -3 -6 -7z"/>
<path d="M2920 2949 c1 -8 -16 -213 -37 -456 -20 -243 -35 -445 -31 -448 3 -3
34 8 70 24 58 26 69 36 103 91 l38 62 -68 366 c-60 331 -76 405 -75 361z"/>
<path d="M2062 2900 c-20 -93 -122 -652 -122 -667 0 -7 16 -42 36 -77 34 -58
42 -66 98 -89 l61 -25 2 42 c2 22 -12 228 -30 456 -31 385 -34 411 -45 360z"/>
<path d="M1360 2738 c-107 -88 -208 -170 -223 -182 l-29 -23 307 -123 c168
-67 308 -120 311 -117 6 6 -154 587 -165 598 -3 4 -94 -65 -201 -153z"/>
<path d="M3352 2594 c-46 -163 -81 -298 -78 -301 4 -5 599 240 614 252 2 2
-435 339 -446 342 -4 2 -44 -130 -90 -293z"/>
<path d="M3695 2278 c-172 -160 -225 -214 -214 -221 8 -5 149 -68 314 -141
195 -86 301 -128 303 -120 3 11 -165 684 -173 692 -1 1 -105 -93 -230 -210z"/>
<path d="M982 2157 c-116 -411 -109 -379 -85 -370 121 47 643 269 643 273 0 5
-356 326 -437 394 l-30 26 -91 -323z"/>
<path d="M3542 2345 c-145 -63 -265 -115 -266 -117 -2 -2 30 -34 70 -71 l73
-69 196 182 c168 158 205 194 193 189 -2 -1 -122 -52 -266 -114z"/>
<path d="M1210 2427 c14 -13 90 -82 170 -152 80 -71 160 -142 178 -159 l32
-30 70 69 c38 38 66 72 62 76 -4 4 -126 55 -272 113 -194 78 -258 100 -240 83z"/>
<path d="M2344 2163 c-64 -76 -123 -145 -131 -154 -11 -14 -6 -46 33 -215 26
-109 50 -202 53 -206 4 -4 44 4 89 19 l82 27 0 333 c0 183 -2 333 -4 333 -2 0
-57 -62 -122 -137z"/>
<path d="M2520 1966 l0 -334 78 -26 c42 -14 84 -26 92 -26 12 0 24 43 53 188
21 103 40 194 43 203 5 17 -240 329 -258 329 -4 0 -8 -150 -8 -334z"/>
<path d="M1844 2161 c24 -47 29 -51 61 -51 19 0 35 3 35 6 0 4 -10 23 -22 43
-12 20 -22 37 -22 38 -1 0 -18 4 -39 8 l-39 8 26 -52z"/>
<path d="M3134 2202 c-24 -2 -36 -12 -52 -41 -28 -49 -28 -51 8 -51 24 0 35 8
56 40 14 21 24 43 22 47 -1 4 -17 7 -34 5z"/>
<path d="M1697 2122 l-68 -69 163 -154 c90 -85 170 -160 179 -167 15 -11 26 3
92 122 l75 135 -74 31 c-40 17 -101 33 -136 36 -80 8 -98 20 -127 83 -14 28
-27 51 -30 51 -4 0 -37 -31 -74 -68z"/>
<path d="M3191 2130 c-19 -33 -37 -60 -40 -60 -86 -3 -291 -68 -291 -92 0 -12
140 -247 151 -253 4 -3 89 70 189 162 l182 168 -72 67 c-39 38 -75 68 -78 68
-4 0 -23 -27 -41 -60z"/>
<path d="M1238 1876 c-185 -77 -334 -144 -330 -147 24 -22 1002 -524 1002
-514 0 2 -60 150 -134 327 -74 178 -146 355 -162 393 -15 39 -30 73 -33 76 -3
4 -158 -57 -343 -135z"/>
<path d="M3415 1988 c-7 -18 -85 -201 -173 -405 -88 -205 -158 -373 -156 -373
7 0 933 485 988 518 5 3 -2 11 -15 17 -36 19 -618 275 -624 275 -3 0 -12 -15
-20 -32z"/>
<path d="M3202 1823 c-75 -70 -149 -138 -164 -151 -36 -33 -41 -28 -128 119
-39 66 -74 119 -78 119 -4 0 -24 -82 -45 -182 l-37 -182 92 -93 93 -93 80 0
80 0 127 295 c69 162 124 295 122 295 -3 0 -66 -57 -142 -127z"/>
<path d="M1671 1933 c2 -7 56 -139 119 -293 l115 -280 81 0 80 0 92 94 c51 51
92 97 92 102 1 28 -85 362 -91 358 -5 -3 -34 -51 -65 -107 -65 -116 -92 -157
-103 -157 -5 0 -64 52 -132 117 -179 168 -192 179 -188 166z"/>
<path d="M2401 1559 c-46 -16 -86 -30 -88 -32 -3 -4 71 -359 83 -399 5 -16 19
-18 107 -18 l102 0 44 205 c24 113 42 207 40 209 -6 5 -193 66 -199 65 -3 0
-43 -14 -89 -30z"/>
<path d="M2186 1411 c-43 -43 -77 -83 -75 -88 2 -5 49 -70 103 -145 l99 -137
20 25 20 25 -43 197 c-23 108 -43 198 -44 199 -1 1 -37 -33 -80 -76z"/>
<path d="M2692 1285 c-36 -164 -41 -198 -30 -215 7 -11 16 -20 19 -20 4 0 54
62 112 138 l106 139 -77 76 c-43 43 -80 77 -83 77 -2 0 -24 -88 -47 -195z"/>
<path d="M1930 1305 c0 -3 12 -34 26 -68 22 -54 48 -85 207 -244 l182 -183
155 0 155 0 177 178 c156 156 181 185 208 245 16 38 30 71 30 73 0 2 -28 4
-62 4 l-63 0 -115 -152 c-63 -84 -152 -194 -198 -245 -82 -91 -84 -93 -129
-93 -43 0 -49 4 -120 73 -41 39 -131 150 -201 245 l-125 172 -64 0 c-34 0 -63
-2 -63 -5z"/>
<path d="M2370 1030 l-21 -30 62 -65 c83 -87 98 -87 177 3 l60 67 -20 28 c-19
27 -22 27 -128 27 l-109 0 -21 -30z"/>
<path d="M2464 741 c27 -18 32 -19 60 -4 17 9 33 17 35 19 2 2 -25 4 -60 4
l-64 0 29 -19z"/>
</g>
</svg>
