<svg id="Layer_1" enable-background="new 0 0 511.999 511.999" height="512" viewBox="0 0 511.999 511.999" width="512" xmlns="http://www.w3.org/2000/svg"><g><g clip-rule="evenodd" fill-rule="evenodd"><path d="m306.556 110.999 109.443 23v-124z" fill="#ffa96b"/><path d="m237.628 196.487 68.928-85.488-150.829-9.82 68.022 79.156z" fill="#ffa96b"/><path d="m306.556 110.999-68.928 85.488 121.585 55.512 56.786-118z" fill="#ff9346"/><path d="m415.999 133.999-56.786 118 56.786 228z" fill="#ffa96b"/><path d="m415.999 479.999-56.786-228-121.585-55.512z" fill="#ffa96b"/><path d="m415.999 479.999-178.371-283.512-13.879-16.152-127.75 124.982 169.582 174.682z" fill="#ff9346"/><path d="m265.581 479.999-169.582-174.682v174.682l190.94 22z" fill="#ffa96b"/></g><g><path d="m420.011.84c-3.639-1.592-7.874-.883-10.794 1.812l-106.291 98.09-146.55-9.542c-4.007-.27-7.799 1.911-9.597 5.513s-1.261 7.93 1.363 10.983l61.911 72.048-121.047 118.425c-1.923 1.882-3.007 4.458-3.007 7.148v174.682c0 5.08 3.809 9.353 8.855 9.935l190.94 22c.385.044.768.065 1.148.065 3.774 0 7.271-2.139 8.968-5.583 1.867-3.793 1.147-8.35-1.797-11.383l-4.887-5.034h126.772c5.522 0 10-4.478 10-10v-469.999c.001-3.972-2.349-7.568-5.987-9.16zm-14.012 120.839-78.414-16.479 78.414-72.364zm-55.325 137.414 40.525 162.707-127.292-202.322zm11.959-37.265c-1.007-.097-2.019-.146-3.032-.146-8.406 0-16.481 3.412-22.354 9.295l-83.752-38.238 57-70.694 90.959 19.116zm-75.959-102.103-49.292 61.134-58.568-68.156zm-16.863 350.274-38.907-40.076c-3.847-3.962-10.177-4.057-14.141-.209-3.963 3.847-4.057 10.178-.209 14.141l43.688 45.002-154.244-17.771v-141.11l47.869 49.309c3.848 3.962 10.178 4.058 14.141.209 3.963-3.847 4.057-10.178.209-14.141l-58.105-59.853 113.004-110.554 6.443 7.497 168.335 267.557h-128.083zm136.188-71.528-36.211-145.388 36.211-75.245z"/><path d="m302.413 177.537h-.008c-5.522 0-9.996 4.478-9.996 10s4.481 10 10.004 10 10-4.478 10-10-4.477-10-10-10z"/><path d="m357.163 156.037h-.007c-5.522 0-9.997 4.478-9.997 10s4.481 10 10.004 10 10-4.478 10-10-4.477-10-10-10z"/><path d="m192.388 394.604h-.007c-5.522 0-9.996 4.478-9.996 10s4.48 10 10.003 10 10-4.478 10-10-4.478-10-10-10z"/></g></g></svg>